<svg width="562" height="372" viewBox="0 0 562 372" fill="none" xmlns="http://www.w3.org/2000/svg">
<g clip-path="url(#clip0_28_2)">
<path d="M562 -95H0V467H562V-95Z" fill="white"/>
<path d="M245.47 91.0107C228.195 28.3365 150.346 8.14945 105.723 54.9865C105.083 55.6609 104.442 56.3466 103.801 57.0434C39.8346 126.574 70.0589 297.917 203.545 341.348C337.031 384.779 475.879 305.47 483.68 234.579C491.48 163.689 429.896 141.411 334.323 161.238C280.326 172.433 256.227 130.025 245.47 91.0107Z" fill="#D8EFFA"/>
<path d="M356.51 101.734C338.65 104.645 333.704 120.46 347.496 131.688C352.059 135.397 358.567 138.477 367.84 140.017C403.168 145.873 421.916 130.25 407.753 109.984C399.009 97.4737 374.213 98.845 356.51 101.734Z" fill="#D8EFFA"/>
<path d="M80.1075 229.802C71.3403 213.976 54.7725 214.662 48.8603 231.432C46.9045 236.973 46.2076 244.144 47.8936 253.395C54.3117 288.621 75.353 300.985 89.639 280.821C98.4624 268.367 88.796 245.493 80.1075 229.802Z" fill="#D8EFFA"/>
<path d="M496.28 242.818C494.639 251.428 501.742 257.531 509.801 254.216C512.465 253.114 515.152 251.001 517.546 247.28C526.65 233.118 522.042 220.968 509.363 222.215C501.54 222.98 497.91 234.276 496.28 242.818Z" fill="#D8EFFA"/>
<path d="M451.129 151.92C459.716 153.707 465.932 146.705 462.751 138.59C461.694 135.903 459.626 133.183 455.951 130.733C441.946 121.392 429.716 125.787 430.751 138.488C431.38 146.323 442.62 150.144 451.129 151.92Z" fill="#D8EFFA"/>
<path d="M242.492 59.7523C249.292 65.2936 258.037 61.9329 258.947 53.2668C259.251 50.4006 258.666 47.0286 256.531 43.1621C248.393 28.4152 235.512 26.7067 230.589 38.4525C227.531 45.7023 235.748 54.2559 242.492 59.7523Z" fill="#D8EFFA"/>
<path d="M514.297 369.066C517.242 369.56 520.322 368.729 522.379 366.559C523.717 365.143 524.627 363.401 524.627 361.726C524.627 361.704 524.627 361.681 524.627 361.659C524.593 349.643 539.351 350.441 544.083 335.75C548.827 321.06 530.101 319.823 519.4 328.894C511.712 335.413 502.484 326.309 491.3 333.907C481.589 340.505 486.995 356.758 471.08 351.678C465.999 350.048 461.447 351.621 457.603 354.499C453.186 357.815 450.297 362.468 449.105 367.526L450.376 368.425C481.769 387.679 495.909 365.997 514.297 369.066Z" fill="#43AADD"/>
<path d="M483.185 368.425L524.818 341.708C525.38 341.348 525.537 340.606 525.178 340.055C524.818 339.493 524.076 339.336 523.525 339.696L478.757 368.436H483.185V368.425Z" fill="#1C98D6"/>
<path d="M480.937 288.925C479.184 262.735 478.891 235.265 480.836 217.056C483.387 193.261 489.142 176.704 497.954 167.836C498.539 167.252 499.494 167.24 500.079 167.825C500.663 168.409 500.675 169.365 500.09 169.949C484.68 185.46 479.139 227.093 484.028 290.453L480.937 288.925Z" fill="#0A4562"/>
<path d="M484.882 196.037C484.882 196.037 472.339 196.015 473.226 173.951C473.226 173.962 492.424 179.436 484.882 196.037Z" fill="#43AADD"/>
<path d="M483.826 207.39C483.826 207.39 483.151 194.857 505.227 194.531C505.227 194.531 500.821 213.999 483.826 207.39Z" fill="#43AADD"/>
<path d="M493.425 176.446C493.425 176.446 488.603 164.858 509.307 157.181C509.307 157.181 511.656 177.008 493.425 176.446Z" fill="#43AADD"/>
<path d="M481.005 230.162C481.005 230.162 469.191 234.388 462.571 213.324C462.571 213.313 482.499 211.976 481.005 230.162Z" fill="#43AADD"/>
<path d="M481.69 241.885C481.69 241.885 478.858 229.656 500.54 225.52C500.54 225.509 499.573 245.46 481.69 241.885Z" fill="#43AADD"/>
<path d="M481.027 258.026C481.027 258.026 469.292 262.477 462.279 241.537C462.279 241.537 482.162 239.828 481.027 258.026Z" fill="#43AADD"/>
<path d="M116.874 347.305L113.457 347.17L111.647 347.103L106.51 346.901C106.51 346.901 59.0325 266.299 88.7735 240.019C97.9341 231.927 113.94 238.637 110.399 275.83C107.117 310.292 116.874 347.305 116.874 347.305Z" fill="#43AADD"/>
<path d="M113.457 347.17L111.647 347.103C103.363 327.579 99.1705 306.594 97.1024 291.87C94.6408 274.391 94.5172 261.69 94.5172 261.567C94.5172 261.117 94.8768 260.746 95.3264 260.746C95.776 260.746 96.147 261.106 96.1582 261.555C96.1582 261.679 96.2706 274.29 98.7322 291.667C100.812 306.459 105.038 327.613 113.457 347.17Z" fill="#559BBE"/>
<path d="M126.304 363.446L121.662 365.166L119.2 366.076L112.22 368.661C112.22 368.661 3.8778 287.418 28.9655 235.726C36.6986 219.832 61.82 219.877 77.8145 271.536C92.6401 319.43 126.304 363.446 126.304 363.446Z" fill="#43AADD"/>
<path d="M121.662 365.177L119.2 366.087C97.2485 344.608 79.9614 318.913 68.9799 300.389C55.9415 278.404 48.7142 261.499 48.6467 261.33C48.3882 260.723 48.6692 260.027 49.2762 259.779C49.8831 259.521 50.58 259.802 50.8385 260.409C50.906 260.577 58.0883 277.359 71.0481 299.22C82.0857 317.823 99.519 343.731 121.662 365.177Z" fill="#559BBE"/>
<path d="M496.662 368.043C496.606 366.166 496.392 364.278 495.976 362.401C492.076 344.574 502.675 341.202 516.647 335.571C530.618 329.939 532.281 313.214 522.379 299.31C512.488 285.406 530.258 274.234 523.717 253.305C517.175 232.387 494.436 246.303 489.457 265.59C485.883 279.461 467.708 276.459 460.975 294.443C455.13 310.056 474.721 324.477 452.095 331.637C444.868 333.918 440.867 339.471 438.776 345.956C436.371 353.431 436.843 361.187 439.585 368.032H496.662V368.043Z" fill="#43AADD"/>
<path d="M468.978 368.043L506.25 276.021C506.598 275.144 506.182 274.155 505.305 273.807C504.429 273.458 503.44 273.874 503.091 274.751L465.302 368.054H468.978V368.043Z" fill="#1F98D5"/>
<path d="M158.383 89.8306C158.383 89.8306 159.17 73.2628 149.087 70.0819C133.396 65.125 129.024 73.2628 126.607 78.6468C123.505 85.5369 124.831 99.0586 134.183 100.362C148.166 102.307 157.517 94.4615 158.383 89.8306Z" fill="#403657"/>
<path d="M168.488 145.233C176.648 145.233 183.684 139.523 185.359 131.531C186.562 125.787 187.742 120.696 187.742 117.829V117.751C187.82 116.852 187.854 115.941 187.865 115.053C187.978 101.981 179.907 78.1073 151.56 81.8951C151.56 81.8951 128.035 84.5815 125.36 107.567C125.36 107.567 124.247 118.167 123.505 125.855C123.494 125.99 123.483 126.125 123.46 126.259C122.426 136.409 130.406 145.221 140.612 145.221H168.488V145.233Z" fill="#403657"/>
<path d="M202.151 172.557C202.151 172.557 207.164 212.268 212.886 232.657C212.886 232.657 221.023 228.869 231.668 223.721C243.211 218.146 259.813 207.963 259.813 207.963L264.005 218.068C264.005 218.068 221.124 258.532 206.928 260.825C192.721 263.118 184.021 212.268 184.021 212.268L202.151 172.557Z" fill="#43AADD"/>
<path d="M258.936 209.154C258.936 209.154 257.756 203.512 260.285 199.69C262.814 195.869 266.658 188.72 271.165 187.236C274.942 185.989 269.367 192.362 269.209 196.408C269.209 196.408 274.829 195.7 278.876 194.385C282.439 193.227 289.486 191.789 292.757 191.137C293.656 190.957 294.229 192.092 293.544 192.688C292.431 193.654 290.093 194.868 285.282 196.026C285.282 196.026 297.028 193.801 298.242 195.599C299.456 197.397 284.732 199.904 284.732 199.904C284.732 199.904 296.163 199.229 296.466 201.017C296.646 202.107 284.799 204.613 284.799 204.613C284.799 204.613 295.612 204.906 292.993 206.614C292.229 207.109 271.311 209.469 264.028 218.068C264.005 218.079 259.104 213.01 258.936 209.154Z" fill="#FFA681"/>
<path d="M129.856 164.734C129.856 164.734 105.87 171.804 85.2104 176.469C85.2104 176.469 84.6709 167.51 84.1314 155.697C83.5469 142.883 84.6034 123.449 84.6034 123.449L73.7231 124.562C73.7231 124.562 58.5267 181.527 63.2699 195.104C68.0132 208.682 128.215 189.664 128.215 189.664L129.856 164.734Z" fill="#43AADD"/>
<path d="M83.974 124.787C83.974 124.787 89.4929 123.135 91.651 119.1C93.809 115.064 99.7662 106.938 96.0908 103.926C94.7532 102.824 93.7753 107.624 90.3022 109.692C90.3022 109.692 88.2452 104.42 87.4809 100.228C86.8065 96.5409 84.7159 89.6507 83.7268 86.4698C83.457 85.5931 82.1869 85.6268 81.9958 86.5148C81.6811 87.9535 81.7148 90.5837 82.9849 95.3719C82.9849 95.3719 79.3544 83.9858 77.1963 83.7722C75.0382 83.5587 79.8377 97.7098 79.8377 97.7098C79.8377 97.7098 74.9933 87.3353 73.2736 87.9198C72.2282 88.2795 75.6564 99.8904 75.6564 99.8904C75.6564 99.8904 70.2612 90.5162 70.0027 93.6297C69.924 94.5402 77.8145 114.064 73.7119 124.562C73.7119 124.562 80.5009 126.473 83.974 124.787Z" fill="#FFA681"/>
<path d="M201.252 326.421L201.443 327.264C182.762 339.909 112.906 331.277 112.906 331.277C113.029 329.816 113.187 328.276 113.389 326.691C113.603 324.926 113.872 323.094 114.187 321.206C115.03 316.125 116.165 310.618 117.435 304.964C117.84 303.188 118.256 301.379 118.683 299.558C119.942 294.151 121.291 288.677 122.561 283.35C122.999 281.518 123.426 279.708 123.854 277.909C124.438 275.414 124.989 272.953 125.517 270.581C126.203 267.411 126.821 264.377 127.338 261.51C127.686 259.588 127.99 257.734 128.215 255.98C128.484 254.126 128.664 252.372 128.777 250.742C127.664 246.64 126.63 242.616 125.663 238.716C125.18 236.726 124.708 234.793 124.247 232.871C122.808 226.723 121.549 220.878 120.448 215.404C120.054 213.414 119.672 211.481 119.324 209.593C118.099 203.13 117.121 197.285 116.323 192.193C116.019 190.159 115.727 188.259 115.48 186.472C115.199 184.516 114.963 182.707 114.749 181.054C113.816 173.827 113.49 169.724 113.49 169.724C113.659 169.59 113.827 169.466 114.007 169.342C116.132 167.836 119.436 166.42 123.123 165.161C127.012 163.823 131.306 162.666 135.094 161.755C135.667 161.62 136.229 161.486 136.78 161.351C141.759 160.182 145.479 159.507 145.479 159.507C162.418 163.059 167.251 160.777 167.251 160.777L175.861 163.318L176.873 163.677L183.145 165.88L183.403 165.97L194.654 169.927L202.163 172.557L199.229 186L197.959 191.867L194.126 209.559L192.867 215.404L189.046 233.028L187.787 238.817L184.628 253.418L185.258 256.205L186.494 261.623L188.45 270.233L190.226 278.022L191.451 283.417L195.138 299.648L196.363 305.009L200.016 321.06L201.252 326.421Z" fill="#43AADD"/>
<path d="M176.861 163.666C175.063 174.254 169.926 184.91 159.248 186.056C146.356 187.45 139.668 171.276 136.757 161.339C141.736 160.17 146.896 159.035 146.896 159.035C163.834 162.587 167.105 160.418 167.105 160.418L175.839 163.295L176.861 163.666Z" fill="#FFA681"/>
<path d="M157.933 177.165C144.423 177.165 141.186 160.474 141.152 160.305C141.084 159.946 141.32 159.597 141.691 159.53C142.051 159.462 142.4 159.698 142.467 160.058C142.591 160.732 145.659 176.48 158.72 175.805C170.151 175.232 170.825 162.542 170.848 162.003C170.859 161.632 171.174 161.351 171.545 161.362C171.916 161.373 172.197 161.688 172.186 162.059C172.174 162.205 171.444 176.502 158.799 177.143C158.495 177.154 158.214 177.165 157.933 177.165Z" fill="white"/>
<path d="M133.689 172.557C133.689 174.378 132.216 175.85 130.395 175.85C128.574 175.85 127.102 174.378 127.102 172.557C127.102 170.736 128.574 169.264 130.395 169.264C132.216 169.264 133.689 170.736 133.689 172.557Z" fill="#1B89BF"/>
<path d="M127.079 188.653C127.079 190.474 125.607 191.946 123.786 191.946C121.965 191.946 120.493 190.474 120.493 188.653C120.493 186.832 121.965 185.359 123.786 185.359C125.607 185.359 127.079 186.832 127.079 188.653Z" fill="#1B89BF"/>
<path d="M148.143 196.262C148.143 198.083 146.671 199.555 144.85 199.555C143.029 199.555 141.557 198.083 141.557 196.262C141.557 194.441 143.029 192.969 144.85 192.969C146.671 192.969 148.143 194.441 148.143 196.262Z" fill="#1B89BF"/>
<path d="M133.452 205.265C134.127 206.963 133.306 208.873 131.609 209.548C129.912 210.222 128.001 209.402 127.327 207.704C126.652 206.007 127.473 204.096 129.17 203.422C130.856 202.748 132.778 203.568 133.452 205.265Z" fill="#1B89BF"/>
<path d="M162.047 211.357C162.047 213.178 160.575 214.651 158.754 214.651C156.933 214.651 155.46 213.178 155.46 211.357C155.46 209.537 156.933 208.064 158.754 208.064C160.575 208.053 162.047 209.537 162.047 211.357Z" fill="#1B89BF"/>
<path d="M183.088 218.158C183.088 219.979 181.616 221.451 179.795 221.451C177.974 221.451 176.502 219.979 176.502 218.158C176.502 216.337 177.974 214.864 179.795 214.864C181.616 214.853 183.088 216.337 183.088 218.158Z" fill="#1B89BF"/>
<path d="M187.326 175.861C187.326 177.682 185.853 179.155 184.032 179.155C182.212 179.155 180.739 177.682 180.739 175.861C180.739 174.041 182.212 172.568 184.032 172.568C185.842 172.557 187.326 174.041 187.326 175.861Z" fill="#1B89BF"/>
<path d="M163.385 232.421C163.385 234.242 161.912 235.715 160.091 235.715C158.27 235.715 156.798 234.242 156.798 232.421C156.798 230.6 158.27 229.128 160.091 229.128C161.912 229.128 163.385 230.6 163.385 232.421Z" fill="#1B89BF"/>
<path d="M143.063 242.65C143.063 244.47 141.59 245.943 139.769 245.943C137.948 245.943 136.476 244.47 136.476 242.65C136.476 240.829 137.948 239.356 139.769 239.356C141.59 239.356 143.063 240.829 143.063 242.65Z" fill="#1B89BF"/>
<path d="M140.691 224.025C140.691 225.846 139.219 227.318 137.398 227.318C135.577 227.318 134.104 225.846 134.104 224.025C134.104 222.204 135.577 220.732 137.398 220.732C139.219 220.72 140.691 222.204 140.691 224.025Z" fill="#1B89BF"/>
<path d="M173.197 197.128C173.197 198.948 171.725 200.421 169.893 200.421C168.072 200.421 166.599 198.948 166.599 197.128C166.599 195.307 168.072 193.834 169.893 193.834C171.713 193.834 173.197 195.307 173.197 197.128Z" fill="#1B89BF"/>
<path d="M191.428 192.969C191.428 194.79 189.956 196.262 188.135 196.262C186.314 196.262 184.842 194.79 184.842 192.969C184.842 191.148 186.314 189.675 188.135 189.675C189.956 189.675 191.428 191.148 191.428 192.969Z" fill="#1B89BF"/>
<path d="M179.795 237.884C179.795 239.705 178.323 241.177 176.502 241.177C174.681 241.177 173.208 239.705 173.208 237.884C173.208 236.063 174.681 234.579 176.502 234.579C178.311 234.579 179.795 236.063 179.795 237.884Z" fill="#1B89BF"/>
<path d="M180.672 263.983C180.672 265.804 179.199 267.276 177.378 267.276C175.558 267.276 174.085 265.804 174.085 263.983C174.085 262.162 175.558 260.69 177.378 260.69C179.199 260.679 180.672 262.162 180.672 263.983Z" fill="#1B89BF"/>
<path d="M163.89 253.092C164.565 254.789 163.744 256.7 162.047 257.374C160.35 258.048 158.439 257.228 157.765 255.531C157.09 253.833 157.911 251.923 159.608 251.248C161.294 250.574 163.216 251.394 163.89 253.092Z" fill="#1B89BF"/>
<path d="M141.433 262.758C142.107 264.455 141.287 266.366 139.59 267.04C137.892 267.715 135.981 266.894 135.307 265.197C134.633 263.5 135.453 261.589 137.15 260.915C138.836 260.24 140.758 261.061 141.433 262.758Z" fill="#1B89BF"/>
<path d="M208.243 368.021L207.558 363.918L204.894 347.968L203.983 342.506L201.443 327.276L196.824 327.478L135.577 330.254L112.895 331.277L111.445 343.135L110.759 348.654L108.747 365.019L108.376 368.021H208.243Z" fill="#9C78ED"/>
<path d="M208.232 368.021L207.603 364.311L207.547 363.918L207.108 361.299L206.67 358.703L204.871 347.968L204.354 344.799L203.961 342.517L203.905 342.18L201.589 328.276L201.432 327.287L201.23 326.433L201.05 325.679L200.016 321.082L197.959 312.09L197.363 309.516L196.352 305.02L195.126 299.636L194.295 295.95L193.699 293.376L191.44 283.428L190.608 279.787L190.214 278.022L190.035 277.213L188.45 270.221C163.553 277.572 137.184 273.211 125.483 270.581C124.966 272.941 124.393 275.414 123.82 277.909C123.685 278.46 123.561 279 123.426 279.551C123.224 280.405 123.011 281.27 122.808 282.124C122.73 282.54 122.628 282.934 122.527 283.35C121.561 287.43 120.549 291.589 119.56 295.714C119.358 296.568 119.166 297.433 118.964 298.265C118.863 298.703 118.762 299.119 118.649 299.569C118.234 301.39 117.818 303.211 117.402 304.975C116.885 307.336 116.39 309.651 115.918 311.944C115.738 312.798 115.558 313.63 115.401 314.462C114.929 316.777 114.513 319.037 114.153 321.217C113.839 323.117 113.58 324.938 113.378 326.725C113.299 327.276 113.243 327.815 113.164 328.332C113.086 329.22 112.984 330.074 112.906 330.929C112.906 331.063 112.883 331.165 112.883 331.288L111.433 343.135L111.197 344.979L110.883 347.553L110.748 348.643L109.14 361.614L108.826 364.21L108.724 365.042L108.365 368.032H208.232V368.021Z" fill="#403657"/>
<path d="M178.109 119.347C178.109 119.347 182.155 114.221 185.168 118.459C188.18 122.696 183.92 135.229 176.547 132.172L178.109 119.347Z" fill="#F97853"/>
<path d="M178.165 128.305C178.435 128.305 178.682 128.136 178.761 127.878C179.907 124.011 184.122 122.438 184.167 122.427C184.493 122.314 184.651 121.966 184.527 121.662C184.403 121.359 184.044 121.201 183.729 121.314C183.527 121.381 178.885 123.101 177.569 127.552C177.48 127.867 177.671 128.193 177.997 128.283C178.053 128.294 178.109 128.305 178.165 128.305Z" fill="#EA5143"/>
<path d="M182.425 126.349C182.538 126.349 182.661 126.316 182.762 126.259C183.055 126.08 183.133 125.72 182.953 125.439C182.92 125.394 182.178 124.315 180.616 123.652C180.301 123.517 179.93 123.652 179.795 123.955C179.649 124.259 179.795 124.607 180.11 124.742C181.312 125.259 181.908 126.091 181.908 126.091C182.021 126.259 182.212 126.349 182.425 126.349Z" fill="#EA5143"/>
<path d="M176.288 132.093C175.591 132.869 175.164 133.891 175.164 135.015C175.164 137.432 177.131 139.41 179.559 139.41C181.976 139.41 183.954 137.443 183.954 135.015C183.954 133.622 183.302 132.374 182.279 131.576C181.773 131.171 181.166 130.879 180.514 130.733C180.402 130.441 180.458 130.16 180.672 129.901C181.515 130.081 182.279 130.463 182.908 131.003C184.066 131.958 184.797 133.408 184.797 135.015C184.797 137.904 182.448 140.253 179.559 140.253C176.67 140.253 174.321 137.904 174.321 135.015C174.321 133.768 174.76 132.633 175.49 131.733C175.749 131.857 176.018 131.969 176.288 132.093Z" fill="white"/>
<path d="M146.896 145.559V160.935C146.896 160.935 154.044 166.442 159.608 166.926C165.172 167.409 167.105 160.845 167.105 160.845V146.536L146.896 145.559Z" fill="#FFA681"/>
<path d="M146.896 147.065V153.202C150.638 157.349 157.27 158.822 167.105 157.372V148.043L146.896 147.065Z" fill="#F97853"/>
<path d="M180.548 125.192C180.368 126.675 180.166 128.181 179.896 129.688C178.132 139.68 171.803 150.482 163.823 152.291C146.581 156.203 139.421 142.659 136.667 132.677C136.364 131.565 136.937 130.295 136.69 128.98C136.116 125.866 134.858 122.325 134.577 118.841C134.374 116.424 134.239 114.042 134.138 111.883C133.857 105.814 137.375 100.228 142.872 98.0471C150.796 94.8999 162.834 92.4046 174.231 99.0811C178.446 101.554 181.088 106.117 181.178 111.13C181.245 114.963 181.155 119.954 180.548 125.192Z" fill="#FFA681"/>
<path d="M158.686 132.925C158.36 132.925 158.079 132.689 158.023 132.363C157.967 132.003 158.203 131.655 158.574 131.587L160.878 131.205L157.708 122.764C157.574 122.415 157.753 122.033 158.102 121.898C158.45 121.775 158.832 121.943 158.967 122.292L162.71 132.25L158.81 132.902C158.754 132.925 158.72 132.925 158.686 132.925Z" fill="#F97853"/>
<path d="M166.936 121.763C166.936 123.236 167.701 124.439 168.634 124.439C169.567 124.439 170.331 123.247 170.331 121.763C170.331 120.291 169.567 119.088 168.634 119.088C167.69 119.088 166.936 120.291 166.936 121.763Z" fill="#403657"/>
<path d="M148.166 121.763C148.166 123.236 148.93 124.439 149.863 124.439C150.796 124.439 151.56 123.247 151.56 121.763C151.56 120.291 150.796 119.088 149.863 119.088C148.93 119.088 148.166 120.291 148.166 121.763Z" fill="#403657"/>
<path d="M173.624 114.761C172.264 114.491 169.499 114.053 166.554 114.154C165.779 114.176 165.161 114.761 165.273 115.379V115.39C165.363 115.885 165.88 116.211 166.498 116.166C168.499 116.02 173.748 116.042 176.187 116.773C176.254 116.424 176.018 116.042 175.67 115.716C175.153 115.222 174.422 114.907 173.624 114.761Z" fill="#403657"/>
<path d="M146.322 115.076C147.682 114.795 150.436 114.311 153.381 114.379C154.157 114.39 154.786 114.974 154.685 115.593V115.604C154.606 116.098 154.089 116.436 153.46 116.402C151.448 116.278 146.21 116.379 143.782 117.144C143.715 116.795 143.939 116.413 144.277 116.076C144.794 115.57 145.524 115.244 146.322 115.076Z" fill="#403657"/>
<path d="M166.936 136.915C166.442 139.264 164.79 143.58 159.237 143.58C153.662 143.58 152.1 139.635 151.571 136.915H166.936Z" fill="white"/>
<path d="M159.304 147.615C160.912 147.615 162.328 146.75 162.384 146.716C162.688 146.525 162.789 146.12 162.598 145.817C162.407 145.514 162.002 145.412 161.699 145.603C161.687 145.615 160.53 146.312 159.304 146.312C157.978 146.312 156.798 145.615 156.787 145.603C156.472 145.412 156.067 145.514 155.888 145.828C155.696 146.143 155.798 146.536 156.112 146.727C156.169 146.75 157.607 147.615 159.304 147.615Z" fill="#F97853"/>
<path d="M181.245 123.618C181.088 123.753 180.93 123.708 180.784 123.438C178.502 119.425 180.649 111.411 173.905 108.343C168.769 106.005 166.925 101.194 166.925 101.194C165.756 103.206 162.699 105.05 162.699 105.05C162.699 105.05 154.943 109.647 146.896 112.749C144.501 113.671 142.793 114.604 141.602 115.413C141.691 115.435 141.748 115.458 141.748 115.458C141.748 115.458 139.522 119.077 141.152 124.708C142.782 130.34 140.68 139.624 137.061 141.771C137.128 141.613 139.848 135.195 138.308 129.946C137.42 126.945 137.431 122.157 136.588 119.302C135.656 118.661 133.509 117.582 132.789 117.155C132.587 114.693 132.43 112.266 132.329 110.063C132.036 103.869 135.745 98.1819 141.534 95.9564C149.885 92.7417 162.575 90.2015 174.591 97.0129C179.031 99.5307 181.818 104.184 181.919 109.287C181.987 113.187 181.886 118.29 181.245 123.618Z" fill="#403657"/>
<path d="M136.588 119.302C136.588 119.302 131.879 113.592 129.103 117.706C126.326 121.831 130.429 134.453 137.229 131.486L136.588 119.302Z" fill="#FFA681"/>
<path d="M136.78 131.7C137.263 132.621 137.431 133.712 137.162 134.802C136.577 137.151 134.183 138.578 131.834 137.994C129.485 137.41 128.057 135.015 128.642 132.666C128.979 131.317 129.912 130.272 131.092 129.733C131.688 129.463 132.34 129.328 133.014 129.339C133.127 129.092 133.194 128.811 133.059 128.496C132.205 128.474 131.362 128.654 130.62 129.013C129.271 129.665 128.203 130.89 127.821 132.453C127.124 135.251 128.833 138.095 131.632 138.803C134.43 139.5 137.274 137.792 137.982 134.993C138.286 133.79 138.128 132.576 137.645 131.531C137.353 131.587 137.061 131.643 136.78 131.7Z" fill="white"/>
<path d="M135.566 127.271C135.318 127.271 135.082 127.102 135.015 126.855C133.958 123.101 130.069 121.572 130.024 121.561C129.732 121.449 129.575 121.111 129.687 120.819C129.799 120.527 130.125 120.37 130.429 120.482C130.609 120.55 134.902 122.213 136.116 126.54C136.206 126.844 136.026 127.159 135.723 127.249C135.667 127.26 135.622 127.271 135.566 127.271Z" fill="#F97853"/>
<path d="M131.643 125.371C131.542 125.371 131.429 125.338 131.328 125.282C131.058 125.113 130.98 124.753 131.16 124.483C131.193 124.439 131.879 123.393 133.318 122.741C133.61 122.606 133.947 122.741 134.082 123.034C134.217 123.326 134.082 123.663 133.79 123.798C132.677 124.292 132.137 125.102 132.126 125.113C132.014 125.282 131.823 125.371 131.643 125.371Z" fill="#F97853"/>
<path d="M385.982 243.358C375.023 251.226 357.882 256.621 357.882 256.621L354.375 243.998L351.632 234.152L349.699 227.206L330.051 227.195C331.119 230.881 332.209 234.635 333.322 238.345C334.738 243.122 336.155 247.798 337.492 252.114C339.392 258.183 341.134 263.522 342.55 267.344C342.876 268.232 343.258 269.198 343.697 270.233C346.327 277.325 348.44 285.024 358.466 280.191C367.29 275.942 379.26 270.053 385.24 266.141L385.982 243.358Z" fill="#FFA681"/>
<path d="M333.322 238.345C334.738 243.122 336.155 247.798 337.503 252.114C345.529 251.259 351.07 247.292 354.375 243.998L351.632 234.152L333.322 238.345Z" fill="#F97853"/>
<path d="M329.152 169.432C329.152 169.432 349.654 218.315 358.466 234.152C358.466 234.152 346.113 244.65 334.075 244.943C334.075 244.943 327.14 191.272 329.152 169.432Z" fill="#43AADD"/>
<path d="M281.169 368.054C281.371 364.637 281.573 361.378 281.742 358.354C282.472 346.013 282.933 337.594 282.933 337.594L278.1 337.38L275.38 337.257L242.525 335.795C242.525 335.795 241.93 345.215 241.222 359.051C241.076 361.883 240.929 364.896 240.783 368.054H281.169Z" fill="#7EDBF8"/>
<path d="M278.1 337.391L282.933 337.605C282.933 337.605 282.461 346.024 281.742 358.365C269.119 359.422 255.339 359.849 241.222 359.062C241.93 345.226 242.525 335.807 242.525 335.807L275.38 337.268L278.1 337.391Z" fill="#43AADD"/>
<path d="M276.38 368.054C277.145 354.87 277.763 343.585 278.111 337.38L275.391 337.257C275.054 343.484 274.425 354.825 273.66 368.054H276.38Z" fill="#43AADD"/>
<path d="M291.757 368.054H332.142C331.996 364.896 331.839 361.883 331.704 359.051C330.996 345.215 330.4 335.795 330.4 335.795L297.545 337.257L294.825 337.38L289.992 337.594C289.992 337.594 290.464 346.013 291.183 358.354C291.352 361.378 291.543 364.637 291.757 368.054Z" fill="#9C78ED"/>
<path d="M294.814 337.391L289.981 337.605C289.981 337.605 290.453 346.024 291.172 358.365C303.795 359.422 317.575 359.849 331.692 359.062C330.984 345.226 330.389 335.807 330.389 335.807L297.534 337.268L294.814 337.391Z" fill="#43AADD"/>
<path d="M299.265 368.054C298.501 354.825 297.871 343.484 297.534 337.257L294.814 337.38C295.151 343.585 295.781 354.87 296.545 368.054H299.265Z" fill="#43AADD"/>
<path d="M235.388 312.383C235.388 313.057 235.388 313.731 235.388 314.383C235.399 326.399 235.467 335.706 235.523 340.28C247.123 343.427 258.734 345.451 270.344 346.395C270.873 346.44 271.39 346.473 271.918 346.518C272.199 346.541 272.48 346.563 272.761 346.575C273.379 346.62 274.009 346.653 274.627 346.687C275.324 346.732 276.009 346.766 276.706 346.799C284.608 347.17 292.499 347.024 300.4 346.372C301.996 346.237 303.581 346.08 305.177 345.911C305.278 345.9 305.38 345.889 305.481 345.878C305.885 345.833 306.29 345.788 306.706 345.732C306.953 345.698 307.2 345.675 307.448 345.642C316.631 344.54 325.825 342.753 335.019 340.269C335.042 338.19 335.053 335.11 335.053 331.232C335.053 330.513 335.053 329.771 335.053 328.995C335.053 323.443 335.008 316.53 334.952 308.73C334.952 308.066 334.941 307.392 334.941 306.706C334.896 301.502 334.84 295.938 334.772 290.127C334.761 289.453 334.761 288.779 334.75 288.104C334.671 282.147 334.581 275.965 334.48 269.682C334.412 265.849 334.345 261.971 334.266 258.105C334.188 254.182 334.098 250.248 334.008 246.348C333.985 245.493 333.963 244.65 333.94 243.796C333.041 206.873 331.479 172.928 328.905 169.14C327.118 166.521 323.038 163.441 318.216 160.339C317.631 159.968 317.024 159.586 316.417 159.204C314.372 157.922 297.635 152.235 295.511 150.987L277.83 149.751C277.718 149.818 260.813 155.517 260.701 155.573C259.97 155.989 259.239 156.405 258.509 156.832C252.248 160.44 246.066 164.251 242.514 167.533C241.997 168.005 241.525 168.477 241.132 168.926C240.817 169.286 240.536 169.635 240.311 169.983C240.098 170.298 239.895 170.815 239.693 171.534C237.557 179.312 236.433 209.862 235.871 243.11C235.826 245.493 235.793 247.887 235.759 250.293C235.748 251.349 235.725 252.406 235.714 253.462C235.703 254.193 235.692 254.924 235.68 255.643C235.68 256.014 235.669 256.374 235.669 256.733C235.647 258.543 235.624 260.341 235.613 262.14C235.602 263.466 235.579 264.792 235.568 266.119C235.433 282.866 235.377 299.131 235.388 312.383Z" fill="#43AADD"/>
<path d="M203.77 359.86C203.332 364.581 209.086 362.018 207.457 352.453C205.838 342.888 210.447 334.233 212.425 334.503C214.414 334.784 210.784 344.945 212.548 348.609C214.313 352.273 216.595 345.158 218.865 340.842C221.226 336.357 221.08 326.579 220.012 319.599C218.944 312.619 231.589 270.21 231.656 257.925L233.196 252.721L238.839 233.646L247.673 203.782C247.673 203.782 242.379 181.178 233.455 183.123C233.455 183.123 228.734 198.87 223.676 216.629C222.822 219.641 221.956 222.721 221.102 225.778C217.505 238.648 214.122 251.361 212.548 258.903C208.401 278.82 208.075 320.206 208.075 320.206C208.075 320.206 200.746 335.413 200.578 342.18C200.409 349.396 204.197 355.139 203.77 359.86Z" fill="#FFA681"/>
<path d="M221.113 225.778L233.208 252.721L238.85 233.646L223.687 216.618C222.833 219.63 221.968 222.71 221.113 225.778Z" fill="#F97853"/>
<path d="M220.518 217.753C225.823 226.846 231.218 235.894 236.591 244.954C238.355 239.03 240.199 233.343 241.919 228.105C241.919 228.094 241.93 228.083 241.93 228.06C242.615 225.969 243.29 223.957 243.93 222.024C243.942 221.99 243.953 221.957 243.964 221.923C244.189 221.249 244.403 220.574 244.627 219.922C247.19 212.167 249.18 206.007 249.753 202.41C251.281 192.733 247.111 173.793 241.222 170.05C241.064 170.388 240.603 169.342 240.322 169.983C239.288 172.366 234.702 178.267 232.432 184.011C232.14 184.741 231.848 185.505 231.533 186.281C228.251 194.733 224.238 205.715 220.518 217.753Z" fill="#43AADD"/>
<path d="M285.901 167.443C293.555 167.443 298.962 160.451 299.186 160.159C299.512 159.732 299.445 159.114 299.051 158.765C298.658 158.417 298.074 158.484 297.748 158.912C297.68 159.001 292.656 165.464 285.901 165.464C279.224 165.464 275.155 158.147 275.122 158.08C274.863 157.608 274.301 157.45 273.863 157.72C273.424 157.99 273.267 158.597 273.525 159.069C273.705 159.406 278.156 167.443 285.901 167.443Z" fill="#1280B7"/>
<path d="M318.283 234.388C318.429 234.388 318.564 234.354 318.699 234.276C319.16 234.028 319.34 233.433 319.115 232.938L315.777 225.879C315.541 225.385 314.979 225.194 314.529 225.441C314.068 225.688 313.888 226.284 314.113 226.779L317.451 233.837C317.609 234.186 317.946 234.388 318.283 234.388Z" fill="#1280B7"/>
<path d="M325.241 228.6C325.364 228.678 325.499 228.734 325.645 228.746C326.162 228.791 326.612 228.386 326.657 227.835L327.309 219.956C327.354 219.405 326.972 218.922 326.466 218.877C325.949 218.832 325.499 219.237 325.454 219.776L324.802 227.655C324.769 228.06 324.948 228.409 325.241 228.6Z" fill="#1280B7"/>
<path d="M307.302 216.393C307.751 216.393 308.145 216.045 308.223 215.561L309.426 207.761C309.505 207.221 309.167 206.704 308.662 206.614C308.156 206.524 307.673 206.895 307.594 207.435L306.391 215.235C306.312 215.775 306.65 216.292 307.155 216.382C307.2 216.382 307.245 216.393 307.302 216.393Z" fill="#1280B7"/>
<path d="M277.302 219.293C277.459 219.293 277.628 219.248 277.774 219.158C278.213 218.877 278.359 218.27 278.1 217.798L274.335 210.987C274.076 210.514 273.503 210.357 273.053 210.638C272.615 210.919 272.469 211.526 272.727 211.998L276.493 218.81C276.673 219.113 276.976 219.293 277.302 219.293Z" fill="#1280B7"/>
<path d="M314.158 188.788C314.327 188.788 314.506 188.731 314.664 188.63L320.868 184.336C321.295 184.033 321.419 183.426 321.149 182.954C320.868 182.493 320.295 182.358 319.857 182.662L313.652 186.955C313.225 187.259 313.101 187.866 313.371 188.338C313.551 188.63 313.855 188.788 314.158 188.788Z" fill="#1280B7"/>
<path d="M286.485 252.192C286.631 252.192 286.766 252.159 286.901 252.08C287.362 251.833 287.542 251.237 287.317 250.742L283.979 243.684C283.743 243.189 283.192 242.998 282.731 243.245C282.27 243.493 282.09 244.088 282.315 244.583L285.653 251.642C285.822 252.001 286.148 252.192 286.485 252.192Z" fill="#1280B7"/>
<path d="M301.165 194.093C301.479 194.093 301.783 193.924 301.951 193.621C302.221 193.149 302.097 192.542 301.659 192.249L295.387 188.057C294.949 187.765 294.376 187.911 294.106 188.372C293.836 188.844 293.96 189.451 294.398 189.743L300.67 193.935C300.827 194.048 300.996 194.093 301.165 194.093Z" fill="#1280B7"/>
<path d="M316.069 164.745C316.058 164.936 316.091 165.127 316.17 165.285C316.316 165.577 316.597 165.779 316.923 165.813C317.44 165.858 317.878 165.442 317.912 164.891L318.204 160.35C317.62 159.979 317.024 159.597 316.406 159.215L316.069 164.745Z" fill="#1280B7"/>
<path d="M324.431 208.053C324.746 208.053 325.05 207.884 325.218 207.581C325.488 207.109 325.364 206.502 324.926 206.209L318.654 202.017C318.216 201.725 317.642 201.871 317.373 202.332C317.103 202.804 317.227 203.411 317.665 203.703L323.937 207.895C324.094 208.008 324.263 208.053 324.431 208.053Z" fill="#1280B7"/>
<path d="M274.436 173.614C274.616 173.614 274.784 173.557 274.953 173.445C275.38 173.141 275.504 172.523 275.223 172.062L271.648 166.263C271.367 165.802 270.783 165.678 270.356 165.982C269.929 166.285 269.805 166.903 270.086 167.364L273.66 173.164C273.84 173.456 274.132 173.614 274.436 173.614Z" fill="#1280B7"/>
<path d="M271.232 273.841C271.48 273.841 271.727 273.739 271.907 273.537L277.032 267.827C277.392 267.434 277.381 266.804 277.01 266.422C276.639 266.04 276.043 266.051 275.695 266.456L270.569 272.166C270.21 272.559 270.221 273.189 270.592 273.571C270.772 273.751 270.996 273.841 271.232 273.841Z" fill="#1280B7"/>
<path d="M290.059 272.649C290.307 272.649 290.554 272.548 290.734 272.346L295.859 266.636C296.219 266.242 296.208 265.613 295.837 265.231C295.466 264.849 294.881 264.86 294.522 265.264L289.396 270.974C289.037 271.368 289.048 271.997 289.419 272.379C289.587 272.559 289.823 272.649 290.059 272.649Z" fill="#1280B7"/>
<path d="M303.592 311.225C303.682 310.978 303.671 310.697 303.559 310.449L300.367 303.312C300.142 302.817 299.591 302.604 299.119 302.84C298.658 303.076 298.456 303.672 298.681 304.166L301.873 311.303C302.098 311.798 302.648 312.012 303.12 311.776C303.345 311.652 303.503 311.45 303.592 311.225Z" fill="#1280B7"/>
<path d="M249.573 334.75C249.663 334.503 249.652 334.222 249.539 333.975L246.347 326.837C246.122 326.343 245.572 326.129 245.099 326.365C244.639 326.601 244.436 327.197 244.661 327.691L247.853 334.829C248.078 335.323 248.629 335.537 249.101 335.301C249.326 335.188 249.494 334.986 249.573 334.75Z" fill="#1280B7"/>
<path d="M272.772 346.563C273.402 346.608 274.02 346.642 274.638 346.676L275.29 342.236C275.369 341.696 275.02 341.179 274.515 341.101C274.009 341.022 273.525 341.393 273.447 341.933L272.772 346.563Z" fill="#1280B7"/>
<path d="M265.331 333.143C265.534 332.997 265.68 332.761 265.714 332.48L266.86 324.668C266.939 324.128 266.59 323.611 266.085 323.533C265.579 323.443 265.095 323.814 265.017 324.364L263.87 332.176C263.792 332.716 264.14 333.233 264.646 333.311C264.904 333.345 265.14 333.278 265.331 333.143Z" fill="#1280B7"/>
<path d="M310.303 267.793C310.46 267.793 310.617 267.749 310.764 267.659C311.213 267.389 311.359 266.771 311.101 266.299L307.392 259.453C307.133 258.981 306.56 258.813 306.121 259.094C305.672 259.375 305.526 259.982 305.784 260.454L309.493 267.299C309.662 267.625 309.977 267.793 310.303 267.793Z" fill="#1280B7"/>
<path d="M299.422 250.686C299.76 250.686 300.086 250.484 300.254 250.147L303.649 243.122C303.885 242.627 303.705 242.031 303.244 241.784C302.783 241.526 302.221 241.728 301.985 242.211L298.591 249.236C298.355 249.731 298.534 250.327 298.995 250.574C299.13 250.652 299.276 250.686 299.422 250.686Z" fill="#1280B7"/>
<path d="M328.882 249.652C328.984 249.776 329.107 249.866 329.231 249.933C329.546 250.068 329.916 250.023 330.197 249.776L334.008 246.348C333.985 245.493 333.974 244.65 333.952 243.796L328.995 248.247C328.601 248.607 328.545 249.236 328.882 249.652Z" fill="#1280B7"/>
<path d="M299.467 176.109C299.805 176.109 300.131 175.918 300.299 175.569L303.694 168.544C303.93 168.05 303.75 167.454 303.289 167.207C302.828 166.959 302.266 167.15 302.03 167.634L298.636 174.659C298.4 175.153 298.579 175.749 299.04 175.996C299.175 176.075 299.321 176.109 299.467 176.109Z" fill="#1280B7"/>
<path d="M277.74 201.86C277.797 201.86 277.853 201.848 277.92 201.837C278.426 201.736 278.752 201.208 278.662 200.668L277.257 192.901C277.156 192.362 276.673 192.002 276.167 192.115C275.661 192.216 275.335 192.744 275.425 193.283L276.83 201.05C276.909 201.534 277.302 201.86 277.74 201.86Z" fill="#1280B7"/>
<path d="M289.835 208.682C289.891 208.682 289.947 208.671 290.014 208.66C290.52 208.559 290.846 208.03 290.756 207.491L289.351 199.724C289.25 199.184 288.767 198.836 288.261 198.937C287.755 199.038 287.429 199.567 287.519 200.106L288.924 207.873C289.003 208.345 289.396 208.682 289.835 208.682Z" fill="#1280B7"/>
<path d="M281.169 183.055C281.472 183.055 281.776 182.886 281.955 182.594L285.923 175.918C286.204 175.457 286.069 174.839 285.631 174.546C285.193 174.254 284.619 174.389 284.35 174.85L280.382 181.526C280.101 181.987 280.236 182.605 280.674 182.898C280.82 183.01 281 183.055 281.169 183.055Z" fill="#1280B7"/>
<path d="M317.53 251.923C317.789 251.63 317.856 251.192 317.687 250.81L314.506 243.672C314.282 243.178 313.731 242.964 313.259 243.2C312.798 243.436 312.596 244.032 312.82 244.527L316.001 251.664C316.226 252.159 316.777 252.372 317.249 252.136C317.35 252.08 317.451 252.013 317.53 251.923Z" fill="#1280B7"/>
<path d="M293.544 231.207C293.915 231.207 294.263 230.971 294.409 230.578L297.107 223.216C297.298 222.699 297.062 222.125 296.579 221.923C296.095 221.721 295.556 221.979 295.376 222.485L292.678 229.847C292.487 230.364 292.723 230.938 293.207 231.14C293.319 231.185 293.431 231.207 293.544 231.207Z" fill="#1280B7"/>
<path d="M263.938 276.707C264.084 276.707 264.219 276.673 264.354 276.594C264.814 276.347 264.994 275.751 264.769 275.257L261.431 268.198C261.195 267.704 260.633 267.512 260.184 267.76C259.723 268.007 259.543 268.603 259.768 269.097L263.106 276.156C263.263 276.504 263.6 276.707 263.938 276.707Z" fill="#1280B7"/>
<path d="M313.012 327.433C313.012 327.579 313.045 327.736 313.113 327.883C313.349 328.366 313.911 328.557 314.372 328.31L320.936 324.668C321.397 324.421 321.576 323.814 321.329 323.319C321.093 322.836 320.531 322.645 320.07 322.892L313.506 326.534C313.191 326.714 313.012 327.062 313.012 327.433Z" fill="#1280B7"/>
<path d="M330.838 331.951C330.838 332.109 330.872 332.255 330.939 332.401C331.175 332.895 331.737 333.075 332.198 332.828L335.053 331.243C335.053 330.524 335.053 329.782 335.053 329.006L331.344 331.052C331.018 331.232 330.838 331.592 330.838 331.951Z" fill="#1280B7"/>
<path d="M303.244 340.752L305.492 345.878C305.897 345.833 306.301 345.788 306.717 345.732C306.964 345.698 307.212 345.675 307.448 345.642L304.93 339.898C304.716 339.404 304.154 339.179 303.694 339.415C303.233 339.662 303.03 340.246 303.244 340.752Z" fill="#1280B7"/>
<path d="M251.821 258.712C252.271 258.712 252.664 258.363 252.743 257.88L253.945 250.079C254.024 249.54 253.687 249.023 253.181 248.933C252.675 248.843 252.192 249.214 252.113 249.753L250.911 257.554C250.832 258.093 251.169 258.61 251.675 258.7C251.72 258.7 251.765 258.712 251.821 258.712Z" fill="#1280B7"/>
<path d="M251.045 201.129C251.203 201.129 251.371 201.084 251.517 200.994C251.956 200.713 252.102 200.106 251.843 199.634L248.078 192.823C247.82 192.351 247.246 192.193 246.797 192.474C246.358 192.755 246.212 193.362 246.471 193.834L250.236 200.646C250.416 200.949 250.731 201.129 251.045 201.129Z" fill="#1280B7"/>
<path d="M263.162 228.791C263.331 228.791 263.511 228.734 263.668 228.633L269.872 224.34C270.3 224.036 270.423 223.429 270.153 222.957C269.872 222.496 269.299 222.361 268.861 222.665L262.645 226.959C262.218 227.262 262.094 227.869 262.364 228.341C262.555 228.633 262.859 228.791 263.162 228.791Z" fill="#1280B7"/>
<path d="M328.916 275.189C329.062 275.189 329.197 275.156 329.332 275.077C329.793 274.83 329.973 274.234 329.748 273.739L326.41 266.681C326.174 266.186 325.623 265.995 325.162 266.242C324.701 266.49 324.521 267.085 324.746 267.58L328.084 274.639C328.242 274.987 328.568 275.189 328.916 275.189Z" fill="#1280B7"/>
<path d="M252.574 239.514C252.889 239.514 253.192 239.345 253.361 239.042C253.631 238.569 253.496 237.962 253.069 237.67L246.797 233.478C246.358 233.185 245.785 233.332 245.515 233.792C245.246 234.265 245.369 234.871 245.808 235.164L252.08 239.356C252.237 239.457 252.405 239.514 252.574 239.514Z" fill="#1280B7"/>
<path d="M267.613 249.495C267.838 249.72 268.164 249.821 268.49 249.731C268.984 249.585 269.277 249.034 269.142 248.506L267.197 240.874C267.062 240.345 266.545 240.031 266.051 240.177C265.556 240.323 265.264 240.874 265.399 241.402L267.343 249.034C267.388 249.214 267.478 249.371 267.613 249.495Z" fill="#1280B7"/>
<path d="M241.154 168.926L242.773 171.557C242.953 171.838 243.245 172.006 243.548 172.006C243.728 172.006 243.897 171.961 244.054 171.838C244.481 171.534 244.605 170.916 244.324 170.455L242.526 167.533C242.008 168.016 241.548 168.477 241.154 168.926Z" fill="#1280B7"/>
<path d="M234.062 186.281L235.781 189.08C235.961 189.372 236.254 189.529 236.557 189.529C236.737 189.529 236.905 189.473 237.074 189.361C237.501 189.057 237.625 188.439 237.333 187.978L234.894 184.01C234.624 184.741 234.354 185.505 234.062 186.281Z" fill="#1280B7"/>
<path d="M314.664 299.827C314.911 299.827 315.158 299.726 315.338 299.524L320.464 293.814C320.823 293.421 320.812 292.791 320.441 292.409C320.07 292.027 319.475 292.038 319.126 292.443L314.001 298.153C313.641 298.546 313.652 299.176 314.023 299.558C314.203 299.738 314.439 299.827 314.664 299.827Z" fill="#1280B7"/>
<path d="M280.584 319.778C280.831 319.778 281.079 319.677 281.259 319.475L286.384 313.765C286.744 313.372 286.732 312.742 286.361 312.36C285.991 311.978 285.395 311.989 285.046 312.394L279.921 318.104C279.561 318.497 279.573 319.127 279.943 319.509C280.123 319.689 280.359 319.778 280.584 319.778Z" fill="#1280B7"/>
<path d="M271.12 311.854C271.277 311.652 271.356 311.382 271.322 311.101L270.401 303.256C270.333 302.705 269.872 302.323 269.355 302.39C268.85 302.458 268.479 302.952 268.546 303.503L269.468 311.348C269.535 311.899 269.996 312.281 270.513 312.214C270.76 312.18 270.974 312.045 271.12 311.854Z" fill="#1280B7"/>
<path d="M290.532 333.975C290.779 333.975 291.026 333.873 291.206 333.671L296.331 327.961C296.691 327.568 296.68 326.938 296.309 326.556C295.938 326.174 295.342 326.185 294.994 326.59L289.868 332.3C289.509 332.693 289.52 333.323 289.891 333.705C290.059 333.885 290.296 333.975 290.532 333.975Z" fill="#1280B7"/>
<path d="M235.388 312.383C235.388 313.057 235.388 313.731 235.388 314.383L241.165 314.9C241.682 314.945 242.132 314.541 242.177 313.99C242.222 313.439 241.84 312.967 241.323 312.911L235.388 312.383Z" fill="#1280B7"/>
<path d="M303.098 287.834C303.345 287.834 303.592 287.733 303.772 287.531L308.898 281.821C309.257 281.428 309.246 280.798 308.875 280.416C308.504 280.034 307.92 280.045 307.56 280.45L302.435 286.16C302.075 286.553 302.086 287.182 302.457 287.565C302.637 287.744 302.873 287.834 303.098 287.834Z" fill="#1280B7"/>
<path d="M278.46 285.35C278.471 285.609 278.583 285.867 278.786 286.047L284.451 291.139C284.844 291.499 285.429 291.442 285.766 291.015C286.092 290.588 286.047 289.97 285.653 289.61L279.988 284.519C279.595 284.159 279.011 284.215 278.673 284.642C278.516 284.856 278.437 285.103 278.46 285.35Z" fill="#1280B7"/>
<path d="M251.484 313.349C251.641 313.349 251.798 313.304 251.945 313.214C252.394 312.933 252.54 312.326 252.282 311.854L248.573 305.009C248.314 304.537 247.741 304.368 247.303 304.649C246.853 304.93 246.707 305.537 246.965 306.009L250.675 312.855C250.854 313.181 251.169 313.349 251.484 313.349Z" fill="#1280B7"/>
<path d="M245.077 293.005C245.414 293.005 245.74 292.814 245.909 292.465L249.303 285.44C249.539 284.946 249.359 284.35 248.899 284.103C248.438 283.844 247.876 284.047 247.64 284.53L244.245 291.555C244.009 292.049 244.189 292.645 244.65 292.892C244.785 292.971 244.931 293.005 245.077 293.005Z" fill="#1280B7"/>
<path d="M255.193 213.19C255.53 213.19 255.856 212.987 256.025 212.65L259.419 205.625C259.655 205.13 259.475 204.535 259.015 204.287C258.554 204.04 257.992 204.231 257.756 204.715L254.361 211.74C254.125 212.234 254.305 212.83 254.766 213.077C254.901 213.156 255.047 213.19 255.193 213.19Z" fill="#1280B7"/>
<path d="M251.484 183.696C251.54 183.696 251.596 183.685 251.664 183.673C252.169 183.572 252.495 183.044 252.405 182.504L251 174.737C250.899 174.198 250.416 173.85 249.91 173.951C249.404 174.052 249.078 174.58 249.168 175.12L250.573 182.886C250.652 183.359 251.045 183.696 251.484 183.696Z" fill="#1280B7"/>
<path d="M234.455 210.492C234.511 210.492 234.568 210.481 234.635 210.469C235.141 210.368 235.467 209.84 235.377 209.3L233.972 201.534C233.871 200.994 233.387 200.646 232.882 200.747C232.376 200.848 232.05 201.376 232.14 201.916L233.545 209.683C233.623 210.166 234.017 210.492 234.455 210.492Z" fill="#1280B7"/>
<path d="M263.589 190.507C263.645 190.507 263.702 190.496 263.769 190.485C264.275 190.384 264.601 189.855 264.511 189.316L263.106 181.549C263.005 181.009 262.521 180.661 262.016 180.762C261.51 180.863 261.184 181.392 261.274 181.931L262.679 189.698C262.757 190.181 263.151 190.507 263.589 190.507Z" fill="#1280B7"/>
<path d="M258.037 163.464C258.217 163.509 258.396 163.497 258.554 163.43C258.846 163.318 259.082 163.059 259.149 162.722L260.712 155.585C259.981 156 259.251 156.416 258.52 156.843L257.329 162.261C257.216 162.801 257.531 163.329 258.037 163.464Z" fill="#1280B7"/>
<path d="M236.714 222.496C237.018 222.496 237.321 222.328 237.501 222.035L241.469 215.359C241.75 214.898 241.615 214.28 241.177 213.988C240.738 213.695 240.165 213.83 239.895 214.291L235.928 220.968C235.647 221.428 235.781 222.047 236.22 222.339C236.366 222.451 236.535 222.496 236.714 222.496Z" fill="#1280B7"/>
<path d="M263.173 294.241C263.432 293.949 263.499 293.511 263.331 293.128L260.15 285.991C259.925 285.496 259.374 285.283 258.902 285.519C258.441 285.755 258.239 286.351 258.464 286.845L261.645 293.983C261.87 294.477 262.42 294.691 262.892 294.455C263.005 294.399 263.106 294.331 263.173 294.241Z" fill="#1280B7"/>
<path d="M328.725 307.651L334.952 308.73C334.952 308.066 334.941 307.392 334.93 306.706L329.029 305.684C328.523 305.605 328.039 305.964 327.961 306.504C327.882 307.055 328.219 307.572 328.725 307.651Z" fill="#1280B7"/>
<path d="M330.625 289.419L334.772 290.139C334.761 289.464 334.761 288.79 334.75 288.115L330.928 287.452C330.422 287.362 329.939 287.733 329.86 288.273C329.77 288.823 330.119 289.329 330.625 289.419Z" fill="#1280B7"/>
<path d="M239.198 273.526C239.569 273.526 239.918 273.29 240.064 272.896L242.762 265.534C242.953 265.017 242.717 264.444 242.233 264.242C241.75 264.039 241.21 264.298 241.031 264.804L238.333 272.166C238.142 272.683 238.378 273.256 238.861 273.458C238.974 273.503 239.086 273.526 239.198 273.526Z" fill="#1280B7"/>
<path d="M235.781 250.293C237.535 243.066 239.727 235.029 241.907 228.105C241.907 228.094 241.919 228.083 241.919 228.06C242.593 225.925 243.267 223.89 243.919 222.024C243.93 221.99 243.942 221.957 243.953 221.923C244.155 221.339 244.358 220.765 244.571 220.215C244.605 220.113 244.616 220.023 244.616 219.922C244.616 219.596 244.414 219.282 244.077 219.158C243.649 219.001 243.177 219.225 243.02 219.653C240.783 225.745 238.142 234.512 235.883 243.11C235.849 245.493 235.815 247.887 235.781 250.293Z" fill="#1280B7"/>
<path d="M262.499 110.692C262.499 110.692 256.013 103.543 258.464 95.2145C260.914 86.8969 267.613 86.9868 267.613 86.9868C267.613 86.9868 271.525 78.141 278.179 77.8487C284.833 77.5565 291.116 65.732 297.174 68.9466C303.233 72.1613 296.522 79.1638 296.522 79.1638C296.522 79.1638 306.897 68.216 310.325 71.4307C313.742 74.6453 305.571 83.2551 305.571 83.2551C305.571 83.2551 314.293 77.1294 317.159 79.456C320.025 81.794 310.325 91.865 310.325 91.865C310.325 91.865 316.597 103.172 310.28 108.253L262.499 110.692Z" fill="#403657"/>
<path d="M307.841 113.086C307.841 113.086 311.989 107.556 315.08 112.131C318.171 116.705 313.798 130.216 306.245 126.923L307.841 113.086Z" fill="#F97853"/>
<path d="M307.897 122.741C308.178 122.741 308.437 122.561 308.516 122.28C309.685 118.11 314.012 116.413 314.057 116.402C314.383 116.278 314.551 115.907 314.428 115.581C314.304 115.255 313.933 115.087 313.607 115.21C313.405 115.289 308.639 117.133 307.29 121.943C307.2 122.28 307.392 122.64 307.729 122.73C307.785 122.73 307.841 122.741 307.897 122.741Z" fill="#EA5143"/>
<path d="M312.258 120.639C312.382 120.639 312.495 120.606 312.607 120.538C312.899 120.347 312.989 119.954 312.798 119.65C312.764 119.605 312 118.436 310.404 117.717C310.078 117.571 309.707 117.717 309.561 118.043C309.415 118.369 309.561 118.74 309.887 118.886C311.123 119.437 311.73 120.336 311.73 120.347C311.843 120.538 312.045 120.639 312.258 120.639Z" fill="#EA5143"/>
<path d="M265.073 113.086C265.073 113.086 260.925 107.556 257.834 112.131C254.743 116.705 259.116 130.216 266.669 126.923L265.073 113.086Z" fill="#F97853"/>
<path d="M265.017 122.741C264.736 122.741 264.477 122.561 264.399 122.28C263.23 118.11 258.902 116.413 258.857 116.402C258.531 116.278 258.363 115.907 258.486 115.581C258.61 115.255 258.981 115.087 259.307 115.21C259.509 115.289 264.275 117.133 265.624 121.943C265.714 122.28 265.523 122.64 265.185 122.73C265.14 122.73 265.084 122.741 265.017 122.741Z" fill="#EA5143"/>
<path d="M260.656 120.639C260.532 120.639 260.42 120.606 260.307 120.538C260.015 120.347 259.925 119.954 260.116 119.65C260.15 119.605 260.914 118.436 262.51 117.717C262.836 117.571 263.207 117.717 263.353 118.043C263.499 118.369 263.353 118.74 263.027 118.886C261.791 119.437 261.184 120.336 261.184 120.347C261.071 120.538 260.869 120.639 260.656 120.639Z" fill="#EA5143"/>
<path d="M276.245 138.376V151.819C276.245 151.819 280.258 158.664 285.676 159.125C291.094 159.597 295.904 153.235 295.904 153.235V139.32L276.245 138.376Z" fill="#FFA681"/>
<path d="M276.245 138.376V144.345C279.887 148.38 286.339 149.391 295.904 147.975V139.32L276.245 138.376Z" fill="#F97853"/>
<path d="M262.083 103.869C262.33 109.096 262.825 115.626 263.825 120.842V120.853C263.825 120.864 263.825 120.887 263.837 120.898C263.837 120.898 263.837 120.898 263.837 120.909C264.084 122.179 264.354 123.382 264.657 124.461C264.837 125.09 265.028 125.754 265.253 126.428C268.434 136.42 275.818 150.886 294.364 144.266C302.176 141.478 306.245 133.419 308.313 124.663C308.437 124.146 308.549 123.629 308.65 123.123C308.718 122.797 308.785 122.472 308.842 122.157L308.931 121.685C308.943 121.606 308.954 121.55 308.965 121.516C308.965 121.494 308.965 121.482 308.965 121.482C310.19 114.75 310.37 107.949 310.28 103.094C310.19 98.1369 307.481 93.6072 303.165 91.1569C291.476 84.5253 279.145 86.9981 271.019 90.1228C265.399 92.3034 261.791 97.8447 262.083 103.869Z" fill="#FFA681"/>
<path d="M263.814 120.842C263.814 120.842 263.814 120.842 263.814 120.853C263.814 120.864 263.814 120.887 263.825 120.898C263.825 120.898 263.825 120.898 263.825 120.909C263.949 121.348 264.601 123.742 265.242 126.428C268.422 136.42 275.807 150.886 294.353 144.266C302.165 141.478 306.234 133.419 308.302 124.663C308.426 124.146 308.538 123.629 308.639 123.123C308.707 122.797 308.774 122.472 308.83 122.157L308.92 121.685C308.931 121.606 308.943 121.55 308.954 121.516C308.954 121.494 308.954 121.482 308.954 121.482L306.223 120.932C305.706 123.517 304.548 125.945 303.132 128.114C300.827 122.584 289.115 126.259 289.115 126.259L289.059 126.282C288.351 126.507 287.609 126.619 286.879 126.619C286.125 126.619 285.372 126.495 284.631 126.259C284.631 126.259 273.065 122.427 270.659 127.698C268.265 123.989 266.635 120.617 266.635 120.617L263.814 120.842ZM286.867 128.777C300.108 126.99 298.029 134.116 298.029 134.116C296.556 135.454 295.219 136.432 294.308 136.937C291.419 138.545 288.576 139.163 286.508 139.062C284.473 138.972 283.922 139.388 278.786 136.611C277.875 136.128 276.965 135.398 276.066 134.543C275.841 133.161 273.593 126.495 286.867 128.777Z" fill="#403657"/>
<path d="M274.874 113.581C274.874 115.019 275.616 116.177 276.526 116.177C277.437 116.177 278.179 115.019 278.179 113.581C278.179 112.142 277.437 110.984 276.526 110.984C275.616 110.984 274.874 112.153 274.874 113.581Z" fill="#403657"/>
<path d="M295.522 113.581C295.522 115.019 296.264 116.177 297.174 116.177C298.085 116.177 298.827 115.019 298.827 113.581C298.827 112.142 298.085 110.984 297.174 110.984C296.253 110.984 295.522 112.153 295.522 113.581Z" fill="#403657"/>
<path d="M270.648 104.825C270.648 104.825 277.471 102.127 282.731 104.398L282.203 107.32C282.203 107.32 274.492 106.668 270.603 108.242C270.255 107.118 270.198 105.982 270.648 104.825Z" fill="#403657"/>
<path d="M303.087 104.836C303.087 104.836 296.208 102.116 290.925 104.409L291.453 107.354C291.453 107.354 299.22 106.702 303.132 108.287C303.491 107.151 303.536 106.005 303.087 104.836Z" fill="#403657"/>
<path d="M286.238 125.192C285.159 125.192 284.091 124.776 283.922 124.708C283.596 124.573 283.439 124.202 283.574 123.877C283.709 123.551 284.08 123.393 284.406 123.528C284.979 123.764 286.361 124.124 286.968 123.775C287.081 123.708 287.238 123.573 287.283 123.18C287.519 120.954 286.901 113.48 286.901 113.401C286.867 113.052 287.137 112.738 287.485 112.715C287.834 112.681 288.149 112.951 288.171 113.3C288.194 113.614 288.801 120.965 288.553 123.315C288.463 124.202 288.003 124.652 287.62 124.877C287.216 125.113 286.721 125.192 286.238 125.192Z" fill="#F97853"/>
<path d="M294.376 130.059C293.892 132.498 292.285 136.982 286.856 136.982C281.416 136.982 279.887 132.88 279.37 130.059H294.376Z" fill="white"/>
<path d="M262.072 103.869C262.319 109.096 262.814 115.626 263.814 120.842L266.669 120.639C266.669 120.639 265.972 116.233 265.657 113.356C265.343 110.478 264.792 105.117 267.242 104.443C269.693 103.779 268.254 97.6536 271.66 95.0009C275.065 92.337 282.675 91.6065 287.688 94.6975C292.701 97.7772 298.366 94.4614 300.67 95.0009C302.985 95.5292 306.133 98.7214 305.278 101.7C304.424 104.679 306.976 106.488 307.594 109.568C308.212 112.648 306.234 120.954 306.234 120.954L308.965 121.505C310.19 114.772 310.381 107.972 310.291 103.116C310.202 98.1594 307.493 93.6184 303.177 91.1793C291.487 84.5477 279.157 87.0205 271.03 90.1453C265.399 92.3146 261.791 97.8446 262.072 103.869Z" fill="#403657"/>
<path d="M379.552 247.663C377.821 263.489 367.481 298.85 360.332 305.773C351.014 314.788 320.362 333.772 304.39 343.506C301.513 345.26 315.046 356.96 315.046 356.96C315.046 356.96 357.443 338.83 373.64 324.533C378.226 320.487 387.521 307.729 398.02 283.44C401.201 276.077 408.922 261.218 408.518 251.529C408.046 240.39 390.343 242.222 379.552 247.663Z" fill="#1F93CC"/>
<path d="M346.473 338.594C346.473 338.594 334.941 342.978 330.849 347.789C326.758 352.611 321.363 356.691 322.678 358.59C323.993 360.49 329.973 354.937 329.973 354.937C329.973 354.937 331.614 361.029 337.414 361.692C343.213 362.356 354.195 350.992 354.195 350.992L346.473 338.594Z" fill="#FFA681"/>
<path d="M460.3 291.858C460.3 292.859 460.289 294.05 460.278 295.388C460.255 296.725 460.233 298.22 460.188 299.85C460.154 300.963 460.121 302.154 460.076 303.391C460.042 304.436 459.997 305.515 459.952 306.639C459.907 307.785 459.851 308.966 459.795 310.191C458.997 326.77 457.052 349.654 452.781 368.009H363.063C366.053 354.679 370.639 333.637 374.27 306.347C374.427 305.2 374.573 304.042 374.719 302.873C374.865 301.705 375.011 300.524 375.157 299.333C375.236 298.703 375.315 298.063 375.394 297.422C375.45 296.894 375.517 296.366 375.573 295.848C375.742 294.376 375.888 292.926 376.023 291.51C376.135 290.33 376.237 289.161 376.338 288.014C377.878 269.671 377.338 255.913 379.541 247.674C382.115 238.086 412.137 227.093 412.137 227.093L430.942 228.083C430.942 228.083 448.881 233.939 458.468 242.357C468.056 250.776 460.042 275.897 460.278 290.161C460.3 290.644 460.3 291.218 460.3 291.858Z" fill="#1F93CC"/>
<path d="M460.278 295.388C452.118 296.377 443.609 296.77 435.258 296.77C407.911 296.77 382.239 292.589 376.023 291.499C376.135 290.318 376.237 289.149 376.338 288.003C383.565 289.284 425.355 296.197 460.289 291.858C460.3 292.859 460.3 294.05 460.278 295.388Z" fill="#E0D5F8"/>
<path d="M460.188 299.85C460.154 300.963 460.121 302.154 460.076 303.391C451.972 304.357 443.542 304.751 435.258 304.751C406.371 304.751 379.35 300.086 375.157 299.333C375.236 298.703 375.315 298.063 375.394 297.422C375.45 296.894 375.517 296.366 375.573 295.849C379.732 296.602 423.681 304.357 460.188 299.85Z" fill="#E0D5F8"/>
<path d="M459.963 306.65C459.918 307.797 459.862 308.977 459.806 310.202C451.376 311.27 442.553 311.686 433.909 311.686C405.933 311.686 379.721 307.313 374.281 306.347C374.438 305.2 374.584 304.042 374.73 302.874C381.205 304.02 424.377 311.304 459.963 306.65Z" fill="#E0D5F8"/>
<path d="M417.577 245.134C426.929 245.134 435.561 235.197 435.932 234.759C436.168 234.478 436.134 234.062 435.865 233.826C435.584 233.59 435.168 233.624 434.932 233.894C434.842 233.995 425.805 244.414 416.768 243.785C416.408 243.762 416.094 244.032 416.06 244.403C416.037 244.763 416.307 245.077 416.667 245.111C416.982 245.122 417.285 245.134 417.577 245.134Z" fill="#1F93CC"/>
<path d="M425.693 356.938C426.018 356.938 426.311 356.691 426.344 356.353C426.389 355.994 426.131 355.668 425.76 355.623C401.605 352.847 391.59 311.022 391.489 310.607C391.41 310.247 391.051 310.033 390.702 310.112C390.343 310.191 390.129 310.55 390.208 310.899C390.612 312.664 400.537 354.049 425.614 356.938C425.636 356.938 425.659 356.938 425.693 356.938Z" fill="#1F93CC"/>
<path d="M416.071 344.282C416.296 344.282 416.509 344.169 416.633 343.967C416.824 343.652 416.723 343.248 416.42 343.057C403.572 335.132 401.661 323.454 401.639 323.342C401.583 322.982 401.246 322.735 400.886 322.791C400.526 322.847 400.279 323.184 400.335 323.544C400.414 324.05 402.336 335.93 415.723 344.192C415.824 344.248 415.947 344.282 416.071 344.282Z" fill="#1F93CC"/>
<path d="M423.568 210.087C438.187 210.087 450.038 198.236 450.038 183.617C450.038 168.998 438.187 157.147 423.568 157.147C408.949 157.147 397.098 168.998 397.098 183.617C397.098 198.236 408.949 210.087 423.568 210.087Z" fill="#403657"/>
<path d="M397.536 178.874C397.536 178.874 390.039 176.806 391.028 169.533C391.871 163.34 399.144 167.353 398.503 162.52C397.862 157.675 396.446 153.28 402.707 152.066C408.181 151.01 408.27 154.764 415.464 149.313C423.962 142.883 430.481 157.776 438.068 158.226C449.252 158.889 450.657 165.206 451.758 170.264C452.86 175.322 448.555 178.874 448.555 178.874H397.536Z" fill="#403657"/>
<path d="M401.549 191.024C401.549 191.024 397.356 185.438 394.243 190.058C391.13 194.677 395.536 208.334 403.168 204.996L401.549 191.024Z" fill="#F97853"/>
<path d="M401.493 200.781C401.212 200.781 400.953 200.59 400.875 200.309C399.694 196.094 395.322 194.385 395.277 194.374C394.94 194.25 394.782 193.879 394.906 193.542C395.03 193.205 395.401 193.036 395.738 193.171C395.94 193.25 400.751 195.116 402.122 199.971C402.223 200.32 402.021 200.668 401.673 200.769C401.616 200.769 401.549 200.781 401.493 200.781Z" fill="#EA5143"/>
<path d="M397.087 198.656C396.963 198.656 396.851 198.623 396.738 198.555C396.435 198.364 396.356 197.959 396.547 197.667C396.581 197.622 397.356 196.442 398.964 195.711C399.29 195.565 399.672 195.711 399.818 196.037C399.964 196.363 399.818 196.745 399.492 196.892C398.244 197.454 397.637 198.353 397.626 198.364C397.503 198.555 397.3 198.656 397.087 198.656Z" fill="#EA5143"/>
<path d="M431.953 216.573V230.151C431.953 230.151 426.367 236.13 420.893 236.602C415.419 237.074 412.092 230.578 412.092 230.578V217.528L431.953 216.573Z" fill="#FFA681"/>
<path d="M431.953 216.573V222.597C428.278 226.677 421.759 227.689 412.103 226.273V217.528L431.953 216.573Z" fill="#F97853"/>
<path d="M446.273 181.706C446.026 186.978 445.52 193.576 444.508 198.859C444.261 200.174 443.969 201.41 443.654 202.523C440.799 212.526 433.65 229.679 413.643 222.541C404.809 219.383 400.706 209.548 398.885 199.533C397.649 192.733 397.458 185.865 397.548 180.953C397.649 175.94 400.38 171.365 404.741 168.893C416.554 162.194 429.008 164.689 437.214 167.847C442.912 170.039 446.554 175.625 446.273 181.706Z" fill="#FFA681"/>
<path d="M422.264 191.294V192.362C422.264 194.52 423.107 196.543 424.636 198.06C426.142 199.555 428.132 200.376 430.256 200.376H430.514C432.358 200.342 434.021 199.6 435.483 198.173C436.955 196.745 437.787 194.688 437.787 192.542V191.271C437.787 190.923 437.719 190.586 437.596 190.271C437.461 189.889 437.236 189.563 436.955 189.282C436.449 188.776 435.741 188.461 434.966 188.461H425.063C423.939 188.461 422.972 189.113 422.523 190.069C422.354 190.417 422.253 190.799 422.253 191.204C422.264 191.249 422.264 191.271 422.264 191.294ZM423.433 191.294C423.433 190.384 424.175 189.642 425.086 189.642H434.988C435.898 189.642 436.64 190.372 436.64 191.294V192.564C436.64 194.396 435.932 196.138 434.685 197.352C433.437 198.555 432.032 199.184 430.503 199.218H430.267C428.458 199.218 426.76 198.521 425.468 197.24C424.164 195.947 423.445 194.216 423.445 192.373V191.294H423.433Z" fill="#403657"/>
<path d="M402.437 191.294V192.362C402.437 194.52 403.28 196.543 404.809 198.06C406.315 199.555 408.304 200.376 410.429 200.376H410.698C412.53 200.342 414.205 199.6 415.666 198.173C417.139 196.745 417.982 194.688 417.982 192.542V191.272C417.982 191.249 417.982 191.238 417.982 191.215C417.982 190.833 417.892 190.473 417.746 190.136C417.307 189.147 416.318 188.45 415.172 188.45H405.269C404.404 188.45 403.617 188.844 403.1 189.462C402.853 189.765 402.662 190.125 402.561 190.507C402.471 190.788 402.437 191.035 402.437 191.294ZM403.606 191.294C403.606 190.384 404.348 189.642 405.258 189.642H415.161C416.071 189.642 416.813 190.372 416.813 191.294V192.564C416.813 194.396 416.094 196.138 414.857 197.352C413.621 198.555 412.204 199.184 410.676 199.218H410.44C408.63 199.218 406.933 198.521 405.652 197.24C404.348 195.947 403.628 194.216 403.628 192.373V191.294H403.606Z" fill="#403657"/>
<path d="M444.857 188.012C441.496 187.866 439.091 188.832 438.146 189.305C437.877 189.428 437.169 189.889 437.146 189.911L437.697 190.901C437.708 190.901 438.484 190.429 438.787 190.294C439.72 189.855 441.788 188.99 444.868 189.17V188.012H444.857Z" fill="#403657"/>
<path d="M423.051 191.339L423.433 190.237C423.366 190.215 421.725 189.653 419.926 189.653C418.004 189.653 416.779 190.237 416.723 190.271L417.229 191.316C417.24 191.316 418.285 190.822 419.926 190.822C421.522 190.822 423.04 191.339 423.051 191.339Z" fill="#403657"/>
<path d="M398.346 188.293V189.462C400.762 189.664 402.999 190.743 403.033 190.754L403.55 189.709C403.415 189.642 401.021 188.484 398.346 188.293Z" fill="#403657"/>
<path d="M411.609 192.8C411.609 194.25 410.867 195.419 409.945 195.419C409.024 195.419 408.282 194.239 408.282 192.8C408.282 191.35 409.024 190.181 409.945 190.181C410.856 190.17 411.609 191.35 411.609 192.8Z" fill="#403657"/>
<path d="M431.144 192.8C431.144 194.25 430.402 195.419 429.48 195.419C428.559 195.419 427.817 194.239 427.817 192.8C427.817 191.35 428.559 190.181 429.48 190.181C430.391 190.17 431.144 191.35 431.144 192.8Z" fill="#403657"/>
<path d="M404.516 184.741C404.516 184.741 411.463 181.999 416.813 184.303L416.363 186.787C416.363 186.787 410.575 185.494 404.899 187.607C404.539 186.461 404.056 185.91 404.516 184.741Z" fill="#403657"/>
<path d="M436.292 184.741C436.292 184.741 429.345 181.999 423.995 184.303L424.445 186.787C424.445 186.787 430.233 185.494 435.91 187.607C436.258 186.461 436.741 185.91 436.292 184.741Z" fill="#403657"/>
<path d="M420.724 203.793C421.815 203.793 422.894 203.366 423.062 203.298C423.388 203.163 423.546 202.793 423.411 202.455C423.276 202.129 422.905 201.972 422.568 202.107C421.983 202.343 420.59 202.714 419.983 202.354C419.87 202.287 419.702 202.141 419.668 201.758C419.432 199.51 420.05 191.957 420.061 191.878C420.095 191.519 419.825 191.215 419.477 191.182C419.117 191.148 418.814 191.418 418.78 191.766C418.757 192.081 418.15 199.51 418.398 201.882C418.488 202.77 418.96 203.231 419.331 203.456C419.735 203.703 420.241 203.793 420.724 203.793Z" fill="#F97853"/>
<path d="M412.733 207.064C413.261 209.716 415.015 214.595 420.916 214.595C426.828 214.595 428.491 210.132 429.065 207.064H412.733Z" fill="white"/>
<path d="M420.837 217.967C422.512 217.967 423.917 217.124 423.984 217.09C424.287 216.91 424.389 216.505 424.198 216.202C424.018 215.898 423.613 215.797 423.31 215.988C423.298 216 422.129 216.685 420.837 216.685C419.645 216.685 418.499 216 418.488 215.988C418.184 215.797 417.791 215.898 417.6 216.202C417.409 216.505 417.51 216.899 417.813 217.09C417.869 217.112 419.263 217.967 420.837 217.967Z" fill="#F97853"/>
<path d="M400.886 195.329C400.403 192.665 399.919 189.237 400.268 187.472C400.897 184.359 403.471 182.527 402.617 179.526C401.763 176.513 404.932 173.288 407.27 172.748C409.608 172.208 415.071 173.366 420.443 170.815C425.569 168.376 434.493 170.118 435.943 173.411C437.697 177.401 435.314 177.772 440.113 182.088C442.024 183.808 439.754 188.27 439.428 191.17C439.282 192.508 439.259 193.16 439.315 194.587L439.338 195.318H445.082C445.711 190.822 446.082 185.854 446.273 181.695C446.565 175.614 442.912 170.028 437.225 167.836C429.02 164.678 416.566 162.182 404.752 168.881C400.391 171.354 397.66 175.929 397.57 180.942C397.491 184.831 397.604 189.968 398.267 195.318H400.886V195.329Z" fill="#403657"/>
<path d="M442.53 197.813C442.508 196.307 442.62 194.812 442.878 193.328C443.238 191.305 443.823 189.473 445.891 188.63C447.554 187.956 449.33 187.933 450.6 189.81C453.714 194.43 450.241 208.817 442.609 205.479L442.53 197.813Z" fill="#FFA681"/>
<path d="M444.104 201.286C444.385 201.23 444.598 200.994 444.621 200.702C444.958 196.341 448.903 193.812 448.948 193.778C449.252 193.587 449.341 193.194 449.15 192.89C448.959 192.587 448.566 192.497 448.262 192.688C448.083 192.8 443.721 195.576 443.339 200.601C443.317 200.96 443.575 201.264 443.935 201.298C443.98 201.309 444.047 201.298 444.104 201.286Z" fill="#F97853"/>
<path d="M448.004 198.342C448.116 198.319 448.229 198.263 448.33 198.173C448.588 197.926 448.588 197.521 448.341 197.262C448.296 197.217 447.307 196.217 445.587 195.824C445.239 195.745 444.89 195.959 444.812 196.307C444.733 196.656 444.947 197.004 445.295 197.083C446.633 197.386 447.408 198.15 447.408 198.162C447.577 198.33 447.802 198.386 448.004 198.342Z" fill="#F97853"/>
<path d="M454.669 239.401C445.239 253.687 409.17 303.087 401.032 308.819C390.433 316.294 361.546 326.916 344.967 337.987C339.336 341.753 352.644 352.397 352.644 352.397C352.644 352.397 393.074 341.033 411.272 329.411C416.419 326.129 437.843 304.661 451.5 285.631C456.175 279.112 463.785 270.053 464.886 260.42C466.156 249.337 462.672 243.403 454.669 239.401Z" fill="#1F93CC"/>
<path d="M383.172 368.009H270.794C269.355 368.009 268.198 366.84 268.198 365.413V356.455C268.198 355.016 269.367 353.858 270.794 353.858H383.172C384.61 353.858 385.768 355.027 385.768 356.455V365.413C385.768 366.84 384.599 368.009 383.172 368.009Z" fill="#1A0B42"/>
<path d="M268.209 368.009L246.111 285.238C244.875 280.585 248.37 276.032 253.181 276.032H301.816C305.099 276.032 307.976 278.213 308.864 281.371L333.199 368.009H268.209Z" fill="#403657"/>
<path d="M308.864 281.371L332.996 367.301H338.549L314.417 281.371C313.517 278.213 310.651 276.021 307.369 276.021H301.816C305.099 276.021 307.976 278.213 308.864 281.371Z" fill="#1A0B42"/>
<path d="M296.365 325.724C297.624 331.187 294.229 335.604 288.767 335.604C283.304 335.604 277.853 331.176 276.594 325.724C275.335 320.262 278.73 315.844 284.192 315.844C289.655 315.844 295.106 320.262 296.365 325.724Z" fill="#43AADD"/>
<path d="M447.071 63.158C442.98 63.158 439.653 59.831 439.653 55.7396C439.653 51.6483 442.98 48.3212 447.071 48.3212C451.162 48.3212 454.489 51.6483 454.489 55.7396C454.489 59.831 451.162 63.158 447.071 63.158ZM447.071 50.6367C444.261 50.6367 441.979 52.9184 441.979 55.7284C441.979 58.5384 444.261 60.8201 447.071 60.8201C449.881 60.8201 452.163 58.5384 452.163 55.7284C452.163 52.9184 449.881 50.6367 447.071 50.6367Z" fill="#1FC2F5"/>
<path d="M473.788 89.1899C469.697 89.1899 466.37 85.8629 466.37 81.7715C466.37 77.6801 469.697 74.3531 473.788 74.3531C477.88 74.3531 481.207 77.6801 481.207 81.7715C481.207 85.8629 477.88 89.1899 473.788 89.1899ZM473.788 76.6798C470.978 76.6798 468.697 78.9615 468.697 81.7715C468.697 84.5815 470.978 86.8632 473.788 86.8632C476.598 86.8632 478.88 84.5815 478.88 81.7715C478.88 78.9615 476.598 76.6798 473.788 76.6798Z" fill="#1FC2F5"/>
<path d="M482.96 113.311C482.32 113.311 481.791 112.794 481.791 112.142V107.005C481.791 106.365 482.308 105.836 482.96 105.836C483.601 105.836 484.129 106.353 484.129 107.005V112.142C484.118 112.794 483.601 113.311 482.96 113.311Z" fill="#1FC2F5"/>
<path d="M482.96 122.292C482.32 122.292 481.791 121.775 481.791 121.123V115.986C481.791 115.345 482.308 114.817 482.96 114.817C483.601 114.817 484.129 115.334 484.129 115.986V121.123C484.118 121.775 483.601 122.292 482.96 122.292Z" fill="#1FC2F5"/>
<path d="M490.165 115.233H485.557C484.916 115.233 484.388 114.716 484.388 114.064C484.388 113.423 484.905 112.895 485.557 112.895H490.165C490.806 112.895 491.334 113.412 491.334 114.064C491.323 114.716 490.806 115.233 490.165 115.233Z" fill="#1FC2F5"/>
<path d="M480.364 115.233H475.755C475.115 115.233 474.587 114.716 474.587 114.064C474.587 113.423 475.104 112.895 475.755 112.895H480.364C481.005 112.895 481.533 113.412 481.533 114.064C481.522 114.716 481.005 115.233 480.364 115.233Z" fill="#1FC2F5"/>
<path d="M441.968 84.5365C441.327 84.5365 440.799 84.0195 440.799 83.3675V78.2308C440.799 77.5902 441.316 77.0619 441.968 77.0619C442.609 77.0619 443.137 77.5789 443.137 78.2308V83.3675C443.137 84.0195 442.62 84.5365 441.968 84.5365Z" fill="#43AADD"/>
<path d="M441.968 93.5285C441.327 93.5285 440.799 93.0115 440.799 92.3595V87.2228C440.799 86.5822 441.316 86.0539 441.968 86.0539C442.609 86.0539 443.137 86.5709 443.137 87.2228V92.3595C443.137 93.0002 442.62 93.5285 441.968 93.5285Z" fill="#43AADD"/>
<path d="M449.184 86.4698H444.576C443.935 86.4698 443.407 85.9527 443.407 85.3008C443.407 84.6601 443.924 84.1318 444.576 84.1318H449.184C449.825 84.1318 450.353 84.6489 450.353 85.3008C450.342 85.9415 449.825 86.4698 449.184 86.4698Z" fill="#43AADD"/>
<path d="M439.383 86.4698H434.774C434.134 86.4698 433.605 85.9527 433.605 85.3008C433.605 84.6601 434.123 84.1318 434.774 84.1318H439.383C440.024 84.1318 440.552 84.6489 440.552 85.3008C440.541 85.9415 440.024 86.4698 439.383 86.4698Z" fill="#43AADD"/>
<path d="M102.621 29.0783C102.621 24.987 105.948 21.6599 110.04 21.6599C114.131 21.6599 117.458 24.987 117.458 29.0783C117.458 33.1697 114.131 36.4967 110.04 36.4967C105.948 36.4967 102.621 33.1697 102.621 29.0783ZM104.948 29.0783C104.948 31.8883 107.23 34.17 110.04 34.17C112.85 34.17 115.131 31.8883 115.131 29.0783C115.131 26.2683 112.85 23.9866 110.04 23.9866C107.23 23.9866 104.948 26.2683 104.948 29.0783Z" fill="#1FC2F5"/>
<path d="M72.8127 57.3694C72.8127 53.2781 76.1398 49.951 80.2311 49.951C84.3225 49.951 87.6496 53.2781 87.6496 57.3694C87.6496 61.4608 84.3225 64.7878 80.2311 64.7878C76.1398 64.7878 72.8127 61.4608 72.8127 57.3694ZM75.1394 57.3694C75.1394 60.1794 77.4211 62.4612 80.2311 62.4612C83.0411 62.4612 85.3229 60.1794 85.3229 57.3694C85.3229 54.5594 83.0411 52.2777 80.2311 52.2777C77.4211 52.2777 75.1394 54.5594 75.1394 57.3694Z" fill="#D8EFFA"/>
<path d="M57.3802 67.7776C58.0209 67.7776 58.5492 67.2606 58.5492 66.6087V61.472C58.5492 60.8313 58.0321 60.303 57.3802 60.303C56.7395 60.303 56.2112 60.8201 56.2112 61.472V66.6087C56.2112 67.2606 56.7395 67.7776 57.3802 67.7776Z" fill="#1FC2F5"/>
<path d="M57.3802 76.7697C58.0209 76.7697 58.5492 76.2526 58.5492 75.6007V70.464C58.5492 69.8233 58.0321 69.295 57.3802 69.295C56.7395 69.295 56.2112 69.8121 56.2112 70.464V75.6007C56.2112 76.2414 56.7395 76.7697 57.3802 76.7697Z" fill="#1FC2F5"/>
<path d="M50.1754 69.7109H54.7838C55.4245 69.7109 55.9527 69.1939 55.9527 68.5419C55.9527 67.9013 55.4357 67.373 54.7838 67.373H50.1754C49.5347 67.373 49.0064 67.89 49.0064 68.5419C49.0064 69.1826 49.5347 69.7109 50.1754 69.7109Z" fill="#1FC2F5"/>
<path d="M59.9766 69.7109H64.585C65.2257 69.7109 65.754 69.1939 65.754 68.5419C65.754 67.9013 65.237 67.373 64.585 67.373H59.9766C59.336 67.373 58.8077 67.89 58.8077 68.5419C58.8077 69.1826 59.336 69.7109 59.9766 69.7109Z" fill="#1FC2F5"/>
<path d="M84.2101 28.314C84.8508 28.314 85.3791 27.797 85.3791 27.1451V22.0084C85.3791 21.3677 84.862 20.8394 84.2101 20.8394C83.5694 20.8394 83.0411 21.3565 83.0411 22.0084V27.1451C83.0411 27.797 83.5582 28.314 84.2101 28.314Z" fill="#43AADD"/>
<path d="M84.2101 37.2948C84.8508 37.2948 85.3791 36.7778 85.3791 36.1258V30.9891C85.3791 30.3485 84.862 29.8202 84.2101 29.8202C83.5694 29.8202 83.0411 30.3372 83.0411 30.9891V36.1258C83.0411 36.7778 83.5582 37.2948 84.2101 37.2948Z" fill="#43AADD"/>
<path d="M76.994 30.2361H81.6024C82.2431 30.2361 82.7714 29.719 82.7714 29.0671C82.7714 28.4152 82.2544 27.8981 81.6024 27.8981H76.994C76.3534 27.8981 75.8251 28.4152 75.8251 29.0671C75.8251 29.719 76.3534 30.2361 76.994 30.2361Z" fill="#43AADD"/>
<path d="M86.7953 30.2361H91.4037C92.0444 30.2361 92.5727 29.719 92.5727 29.0671C92.5727 28.4152 92.0556 27.8981 91.4037 27.8981H86.7953C86.1546 27.8981 85.6263 28.4152 85.6263 29.0671C85.6263 29.719 86.1546 30.2361 86.7953 30.2361Z" fill="#43AADD"/>
<path d="M388.938 36.9576V59.5612C388.938 62.551 386.51 64.9677 383.531 64.9677H342.494L330.108 69.4075C328.837 69.8683 327.612 68.6094 328.107 67.3505L332.794 55.245V36.9576C332.794 33.9677 335.222 31.5511 338.212 31.5511H383.543C386.51 31.5399 388.938 33.9677 388.938 36.9576Z" fill="#43AADD"/>
<g opacity="0.5">
<path d="M380.283 43.3531H342.64C341.82 43.3531 341.145 42.69 341.145 41.8582C341.145 41.0377 341.808 40.3633 342.64 40.3633H380.283C381.103 40.3633 381.778 41.0264 381.778 41.8582C381.778 42.6787 381.115 43.3531 380.283 43.3531Z" fill="#E0D5F8"/>
<path d="M380.283 49.3666H342.64C341.82 49.3666 341.145 48.7034 341.145 47.8716C341.145 47.0511 341.808 46.3767 342.64 46.3767H380.283C381.103 46.3767 381.778 47.0399 381.778 47.8716C381.778 48.6922 381.115 49.3666 380.283 49.3666Z" fill="#E0D5F8"/>
<path d="M380.283 55.3799H342.64C341.82 55.3799 341.145 54.7168 341.145 53.885C341.145 53.0645 341.808 52.3901 342.64 52.3901H380.283C381.103 52.3901 381.778 53.0532 381.778 53.885C381.778 54.7055 381.115 55.3799 380.283 55.3799Z" fill="#E0D5F8"/>
</g>
<path d="M509.981 376.462V377.271C509.981 381.924 506.205 385.712 501.54 385.712H63.8207C59.1561 385.712 55.3795 381.936 55.3795 377.271V376.462C55.3795 371.808 59.1561 368.021 63.8207 368.021H501.54C506.205 368.021 509.981 371.808 509.981 376.462Z" fill="#43AADD"/>
<path d="M509.981 376.462V376.866H55.3795V376.462C55.3795 371.808 59.1561 368.021 63.8207 368.021H501.54C506.205 368.021 509.981 371.808 509.981 376.462Z" fill="#43AADD"/>
</g>
<defs>
<clipPath id="clip0_28_2">
<rect width="562" height="372" fill="white"/>
</clipPath>
</defs>
</svg>
