<svg width="1271" height="422" viewBox="0 0 1271 422" fill="none" xmlns="http://www.w3.org/2000/svg">
<path d="M269.561 37.5279C249.231 43.7072 237.484 63.9029 237.334 92.5386C237.334 118.461 245.616 136.396 261.579 144.083C269.109 147.851 271.97 148.454 282.361 148.303C295.312 148.303 305.703 144.987 305.703 141.069C305.703 137.904 300.884 128.107 299.378 128.107C298.625 128.107 295.011 128.861 291.396 129.765C282.511 132.026 275.132 130.368 268.808 124.942C261.127 118.16 258.567 108.665 259.32 89.2229C259.772 75.5079 260.374 72.0414 263.537 66.465C268.808 57.1207 274.229 53.5036 282.813 53.5036C286.728 53.5036 291.999 54.1064 294.709 54.7093C299.227 55.915 299.679 55.6136 302.691 49.7357C305.1 45.0636 305.402 42.9536 304.197 41.4464C300.583 37.0757 279.048 34.6643 269.561 37.5279Z" fill="#1FC2F5"/>
<path d="M340.188 38.1307C330.701 41.7479 325.581 46.5707 320.912 56.2164C315.19 67.8214 312.63 84.2493 313.684 100.225C316.093 133.231 328.593 148.454 353.139 148.454C372.415 148.303 383.86 139.561 389.582 120.722C393.347 108.665 393.197 76.2614 389.582 64.5057C386.269 53.9557 380.095 45.2143 372.716 40.6929C365.789 36.3221 348.471 35.1164 340.188 38.1307ZM359.313 53.5036C367.596 56.97 370.909 66.0129 371.662 87.4143C372.566 110.172 370.307 121.024 363.681 127.655C354.645 136.698 341.544 132.629 337.628 119.516C333.11 104.144 334.164 70.685 339.586 60.2857C341.845 55.915 348.17 51.3936 352.085 51.2429C353.139 51.2429 356.302 52.2979 359.313 53.5036Z" fill="#1FC2F5"/>
<path d="M519.845 40.09C506.894 46.5707 500.87 60.4364 504.485 75.2065C506.743 84.8522 514.123 91.6343 529.031 98.5672C541.681 104.294 548.156 110.926 548.156 118.16C548.156 129.162 536.109 133.382 517.887 128.861C511.713 127.354 506.593 126.901 505.84 127.655C505.087 128.409 504.033 132.176 503.581 136.095C502.677 142.726 502.828 143.179 506.894 144.686C509.304 145.741 516.381 147.097 522.556 148.001C548.608 151.769 565.625 141.521 568.486 120.421C570.745 104.445 563.065 92.9907 543.187 82.8929C526.923 74.4529 524.062 71.74 524.062 64.6564C524.062 53.9557 534.452 50.0372 550.114 54.86C558.246 57.2714 559.3 56.5179 560.957 47.1736L562.011 40.8436L554.029 38.5829C541.681 34.815 529.182 35.4179 519.845 40.09Z" fill="#1FC2F5"/>
<path d="M990.898 37.5279C971.773 43.8579 959.274 65.2593 959.274 92.0864C959.274 126.751 972.375 145.439 998.729 148.604C1007.31 149.659 1024.33 147.399 1030.81 144.384L1034.57 142.726V113.488V84.2493L1016.95 84.7014L999.181 85.1536V92.6893V100.225L1006.41 100.677L1013.64 101.129L1013.19 115.749L1012.73 130.368H1004.9C994.964 130.217 989.995 126.751 984.874 116.653C981.561 110.021 981.11 107.459 981.11 92.6893C981.26 78.07 981.712 75.0557 985.176 67.52C987.284 62.8479 990.898 57.8743 993.006 56.5179C999.181 52.4486 1008.52 52.1471 1019.21 55.4629L1028.7 58.4771L1031.71 53.805C1036.23 46.2693 1035.47 43.8579 1027.49 40.3914C1019.81 36.925 997.675 35.2671 990.898 37.5279Z" fill="#1FC2F5"/>
<path d="M410.364 39.6378C409.913 40.5421 409.762 65.2593 409.913 94.1964L410.364 146.946H419.4H428.436V109.268C428.436 88.4693 427.984 69.0271 427.381 65.8621C426.177 59.5321 428.737 58.025 429.941 64.355C432.351 75.96 435.212 84.7014 446.507 114.543L458.705 146.946H472.258H485.661V92.6893V38.4321H476.625H467.59V80.18C467.59 103.089 467.288 121.626 466.686 121.325C466.234 121.024 465.029 116.804 463.975 111.981C462.921 107.158 459.759 97.06 457.048 89.675C454.187 82.1393 449.217 68.2736 445.754 58.9293C442.441 49.4343 438.826 40.6928 437.923 39.6378C435.815 36.925 411.268 36.925 410.364 39.6378Z" fill="#1FC2F5"/>
<path d="M585.804 78.6729C585.804 101.581 586.557 122.229 587.31 125.244C589.72 133.985 594.991 140.466 603.123 144.535C609.447 147.851 612.61 148.454 623.453 148.454C640.168 148.454 649.053 144.384 655.83 133.382L660.348 126.148L660.799 81.8379L661.251 37.6786H650.71H640.018V79.125C640.018 124.339 639.566 127.354 631.735 130.82C623.754 134.437 612.008 131.724 608.996 125.545C608.243 124.038 607.339 103.842 606.887 80.6321L606.134 38.4321L596.045 37.98L585.804 37.5278V78.6729Z" fill="#1FC2F5"/>
<path d="M683.991 92.2371L684.442 146.946H713.055H741.668V138.657V130.368L723.295 129.916L704.772 129.464L704.471 83.9479L704.019 38.4321L693.779 37.98L683.689 37.5278L683.991 92.2371Z" fill="#1FC2F5"/>
<path d="M733.686 46.2693L734.138 55.0107L746.487 55.4629L758.986 55.915L759.287 101.431L759.739 146.946H769.527H779.316L779.767 101.431L780.069 55.915L792.568 55.4629L804.916 55.0107L805.368 46.2693L805.82 37.6786H769.527H733.234L733.686 46.2693Z" fill="#1FC2F5"/>
<path d="M821.03 92.2371L821.481 146.946H831.27H841.058V92.6893V38.4321L830.818 37.98L820.729 37.5278L821.03 92.2371Z" fill="#1FC2F5"/>
<path d="M867.714 92.2372L868.165 146.946H877.201H886.236V113.789C886.236 95.5529 885.785 75.5079 885.182 69.3286C884.128 58.7786 884.128 58.3264 886.236 62.5464C887.441 64.9579 888.345 68.575 888.495 70.5343C888.495 74.4529 913.494 142.726 916.054 145.891C917.108 147.248 921.174 147.7 929.758 147.399L941.956 146.946L942.407 92.2372L942.709 37.6786H933.673H924.487L924.939 79.8786C925.39 119.516 924.637 129.765 922.228 116.351C921.324 110.775 898.585 45.365 895.874 40.3914C894.67 38.1307 892.26 37.6786 880.966 37.6786H867.412L867.714 92.2372Z" fill="#1FC2F5"/>
<path d="M71.9831 100.526C72.8866 100.828 74.6937 100.828 75.7479 100.526C76.6514 100.074 75.8985 99.7729 73.7902 99.7729C71.6819 99.7729 70.9289 100.074 71.9831 100.526Z" fill="black"/>
<path d="M84.0304 100.526C84.934 100.828 86.7411 100.828 87.7952 100.526C88.6988 100.074 87.9458 99.7729 85.8375 99.7729C83.7292 99.7729 82.9763 100.074 84.0304 100.526Z" fill="black"/>
<path d="M96.078 100.526C96.9816 100.828 98.7887 100.828 99.8429 100.526C100.746 100.074 99.9934 99.7729 97.8851 99.7729C95.7769 99.7729 95.0239 100.074 96.078 100.526Z" fill="black"/>
<path d="M108.125 100.526C109.179 100.979 110.535 100.828 110.986 100.376C111.589 99.9235 110.685 99.4714 109.029 99.6221C107.372 99.6221 106.92 100.074 108.125 100.526Z" fill="black"/>
<path d="M120.173 100.526C121.227 100.979 122.582 100.828 123.034 100.376C123.636 99.9235 122.733 99.4714 121.076 99.6221C119.42 99.6221 118.968 100.074 120.173 100.526Z" fill="black"/>
<path d="M132.22 100.526C133.274 100.979 134.63 100.828 135.081 100.376C135.684 99.9235 134.78 99.4714 133.124 99.6221C131.467 99.6221 131.015 100.074 132.22 100.526Z" fill="black"/>
<path d="M142.762 100.526C143.665 100.828 145.472 100.828 146.526 100.526C147.43 100.074 146.677 99.7729 144.569 99.7729C142.46 99.7729 141.707 100.074 142.762 100.526Z" fill="black"/>
<path d="M154.809 100.526C155.713 100.828 157.52 100.828 158.574 100.526C159.477 100.074 158.724 99.7729 156.616 99.7729C154.508 99.7729 153.755 100.074 154.809 100.526Z" fill="black"/>
<path d="M166.856 100.526C167.76 100.828 169.567 100.828 170.621 100.526C171.525 100.074 170.772 99.7729 168.663 99.7729C166.555 99.7729 165.802 100.074 166.856 100.526Z" fill="black"/>
<path d="M178.904 100.526C179.807 100.828 181.614 100.828 182.669 100.526C183.572 100.074 182.819 99.7729 180.711 99.7729C178.603 99.7729 177.85 100.074 178.904 100.526Z" fill="black"/>
<path d="M190.951 100.526C191.855 100.828 193.662 100.828 194.716 100.526C195.619 100.074 194.866 99.7729 192.758 99.7729C190.65 99.7729 189.897 100.074 190.951 100.526Z" fill="black"/>
<path d="M202.998 100.526C203.902 100.828 205.709 100.828 206.763 100.526C207.667 100.074 206.914 99.7729 204.806 99.7729C202.697 99.7729 201.944 100.074 202.998 100.526Z" fill="black"/>
<path d="M215.046 100.526C216.1 100.979 217.455 100.828 217.907 100.376C218.51 99.9235 217.606 99.4714 215.949 99.6221C214.293 99.6221 213.841 100.074 215.046 100.526Z" fill="black"/>
<path d="M1058.36 100.526C1059.42 100.979 1060.77 100.828 1061.22 100.376C1061.83 99.9235 1060.92 99.4714 1059.27 99.6221C1057.61 99.6221 1057.16 100.074 1058.36 100.526Z" fill="black"/>
<path d="M1070.41 100.526C1071.47 100.979 1072.82 100.828 1073.27 100.376C1073.87 99.9235 1072.97 99.4714 1071.31 99.6221C1069.66 99.6221 1069.21 100.074 1070.41 100.526Z" fill="black"/>
<path d="M1080.95 100.526C1081.86 100.828 1083.66 100.828 1084.72 100.526C1085.62 100.074 1084.87 99.7729 1082.76 99.7729C1080.65 99.7729 1079.9 100.074 1080.95 100.526Z" fill="black"/>
<path d="M1093 100.526C1093.9 100.828 1095.71 100.828 1096.76 100.526C1097.67 100.074 1096.92 99.7729 1094.81 99.7729C1092.7 99.7729 1091.95 100.074 1093 100.526Z" fill="black"/>
<path d="M1105.05 100.526C1105.95 100.828 1107.76 100.828 1108.81 100.526C1109.72 100.074 1108.96 99.7729 1106.85 99.7729C1104.75 99.7729 1103.99 100.074 1105.05 100.526Z" fill="black"/>
<path d="M1117.09 100.526C1118 100.828 1119.81 100.828 1120.86 100.526C1121.76 100.074 1121.01 99.7729 1118.9 99.7729C1116.79 99.7729 1116.04 100.074 1117.09 100.526Z" fill="black"/>
<path d="M1129.14 100.526C1130.05 100.828 1131.85 100.828 1132.91 100.526C1133.81 100.074 1133.06 99.7729 1130.95 99.7729C1128.84 99.7729 1128.09 100.074 1129.14 100.526Z" fill="black"/>
<path d="M1141.19 100.526C1142.09 100.828 1143.9 100.828 1144.95 100.526C1145.86 100.074 1145.1 99.7729 1143 99.7729C1140.89 99.7729 1140.14 100.074 1141.19 100.526Z" fill="black"/>
<path d="M1153.24 100.526C1154.14 100.828 1155.95 100.828 1157 100.526C1157.91 100.074 1157.15 99.7729 1155.04 99.7729C1152.94 99.7729 1152.18 100.074 1153.24 100.526Z" fill="black"/>
<path d="M1165.28 100.526C1166.34 100.979 1167.69 100.828 1168.15 100.376C1168.75 99.9235 1167.84 99.4714 1166.19 99.6221C1164.53 99.6221 1164.08 100.074 1165.28 100.526Z" fill="black"/>
<path d="M1177.33 100.526C1178.39 100.979 1179.74 100.828 1180.19 100.376C1180.8 99.9235 1179.89 99.4714 1178.24 99.6221C1176.58 99.6221 1176.13 100.074 1177.33 100.526Z" fill="black"/>
<path d="M1189.38 100.526C1190.43 100.979 1191.79 100.828 1192.24 100.376C1192.84 99.9235 1191.94 99.4714 1190.28 99.6221C1188.63 99.6221 1188.17 100.074 1189.38 100.526Z" fill="black"/>
<path d="M1199.92 100.526C1200.82 100.828 1202.63 100.828 1203.69 100.526C1204.59 100.074 1203.84 99.7729 1201.73 99.7729C1199.62 99.7729 1198.87 100.074 1199.92 100.526Z" fill="black"/>
<path d="M64.9053 107.911C64.9053 109.569 65.357 110.021 65.8088 108.816C66.2606 107.761 66.11 106.404 65.6582 105.952C65.2065 105.349 64.7547 106.254 64.9053 107.911Z" fill="black"/>
<path d="M1210.91 107.911C1210.91 109.569 1211.37 110.021 1211.82 108.816C1212.27 107.761 1212.12 106.404 1211.67 105.952C1211.21 105.349 1210.76 106.254 1210.91 107.911Z" fill="black"/>
<path d="M65.0559 119.064C65.0559 121.174 65.3571 121.928 65.8089 120.873C66.1101 119.969 66.1101 118.16 65.8089 117.105C65.3571 116.201 65.0559 116.954 65.0559 119.064Z" fill="black"/>
<path d="M1210.91 119.969C1210.91 121.626 1211.37 122.079 1211.82 120.873C1212.27 119.818 1212.12 118.461 1211.67 118.009C1211.21 117.406 1210.76 118.311 1210.91 119.969Z" fill="black"/>
<path d="M65.0559 131.121C65.0559 133.231 65.3571 133.985 65.8089 132.93C66.1101 132.026 66.1101 130.217 65.8089 129.162C65.3571 128.258 65.0559 129.011 65.0559 131.121Z" fill="black"/>
<path d="M1211.06 131.121C1211.06 133.231 1211.37 133.985 1211.82 132.93C1212.12 132.026 1212.12 130.217 1211.82 129.162C1211.37 128.258 1211.06 129.011 1211.06 131.121Z" fill="black"/>
<path d="M65.0559 143.179C65.0559 145.289 65.3571 146.042 65.8089 144.987C66.1101 144.083 66.1101 142.274 65.8089 141.219C65.3571 140.315 65.0559 141.069 65.0559 143.179Z" fill="black"/>
<path d="M1211.06 143.179C1211.06 145.289 1211.37 146.042 1211.82 144.987C1212.12 144.083 1212.12 142.274 1211.82 141.219C1211.37 140.315 1211.06 141.069 1211.06 143.179Z" fill="black"/>
<path d="M65.0559 155.236C65.0559 157.346 65.3571 158.099 65.8089 157.044C66.1101 156.14 66.1101 154.331 65.8089 153.276C65.3571 152.372 65.0559 153.126 65.0559 155.236Z" fill="black"/>
<path d="M1211.06 155.236C1211.06 157.346 1211.37 158.099 1211.82 157.044C1212.12 156.14 1212.12 154.331 1211.82 153.276C1211.37 152.372 1211.06 153.126 1211.06 155.236Z" fill="black"/>
<path d="M65.0559 167.293C65.0559 169.403 65.3571 170.156 65.8089 169.101C66.1101 168.197 66.1101 166.389 65.8089 165.334C65.3571 164.429 65.0559 165.183 65.0559 167.293Z" fill="black"/>
<path d="M1211.06 167.293C1211.06 169.403 1211.37 170.156 1211.82 169.101C1212.12 168.197 1212.12 166.389 1211.82 165.334C1211.37 164.429 1211.06 165.183 1211.06 167.293Z" fill="black"/>
<path d="M227.846 169.554C227.846 170.759 228.449 171.814 229.202 171.814C229.804 171.814 230.406 170.759 230.406 169.554C230.406 168.348 229.804 167.293 229.202 167.293C228.449 167.293 227.846 168.348 227.846 169.554Z" fill="black"/>
<path d="M367.596 169.704C367.596 171.362 368.048 171.814 368.5 170.609C368.952 169.554 368.801 168.197 368.349 167.745C367.897 167.142 367.446 168.046 367.596 169.704Z" fill="black"/>
<path d="M519.845 170.307C519.845 172.417 520.146 173.171 520.598 172.116C520.899 171.211 520.899 169.403 520.598 168.348C520.146 167.444 519.845 168.197 519.845 170.307Z" fill="black"/>
<path d="M676.461 170.307C676.461 172.417 676.762 173.171 677.214 172.116C677.515 171.211 677.515 169.403 677.214 168.348C676.762 167.444 676.461 168.197 676.461 170.307Z" fill="black"/>
<path d="M843.619 170.307C843.619 172.417 843.92 173.171 844.372 172.116C844.673 171.211 844.673 169.403 844.372 168.348C843.92 167.444 843.619 168.197 843.619 170.307Z" fill="black"/>
<path d="M992.404 169.554C992.404 170.759 993.157 171.814 993.91 171.814C994.814 171.814 995.416 170.759 995.416 169.554C995.416 168.348 994.814 167.293 993.91 167.293C993.157 167.293 992.404 168.348 992.404 169.554Z" fill="black"/>
<path d="M65.0559 179.35C65.0559 181.46 65.3571 182.214 65.8089 181.159C66.1101 180.254 66.1101 178.446 65.8089 177.391C65.3571 176.486 65.0559 177.24 65.0559 179.35Z" fill="black"/>
<path d="M1211.06 179.35C1211.06 181.46 1211.37 182.214 1211.82 181.159C1212.12 180.254 1212.12 178.446 1211.82 177.391C1211.37 176.486 1211.06 177.24 1211.06 179.35Z" fill="black"/>
<path d="M227.846 181.611C227.846 182.816 228.449 183.871 229.202 183.871C229.804 183.871 230.406 182.816 230.406 181.611C230.406 180.405 229.804 179.35 229.202 179.35C228.449 179.35 227.846 180.405 227.846 181.611Z" fill="black"/>
<path d="M367.596 181.761C367.596 183.419 368.048 183.871 368.5 182.666C368.952 181.611 368.801 180.254 368.349 179.802C367.897 179.199 367.446 180.104 367.596 181.761Z" fill="black"/>
<path d="M519.694 181.761C519.694 183.419 520.146 183.871 520.598 182.666C521.05 181.611 520.899 180.254 520.447 179.802C519.996 179.199 519.544 180.104 519.694 181.761Z" fill="black"/>
<path d="M676.311 181.761C676.311 183.419 676.762 183.871 677.214 182.666C677.666 181.611 677.515 180.254 677.064 179.802C676.612 179.199 676.16 180.104 676.311 181.761Z" fill="black"/>
<path d="M843.468 181.761C843.468 183.419 843.92 183.871 844.372 182.666C844.823 181.611 844.673 180.254 844.221 179.802C843.769 179.199 843.317 180.104 843.468 181.761Z" fill="black"/>
<path d="M992.856 181.611C992.856 182.816 993.458 183.871 994.211 183.871C994.813 183.871 995.416 182.816 995.416 181.611C995.416 180.405 994.813 179.35 994.211 179.35C993.458 179.35 992.856 180.405 992.856 181.611Z" fill="black"/>
<path d="M64.9053 190.804C64.9053 192.462 65.357 192.914 65.8088 191.709C66.2606 190.654 66.11 189.297 65.6582 188.845C65.2065 188.242 64.7547 189.146 64.9053 190.804Z" fill="black"/>
<path d="M1210.91 190.804C1210.91 192.462 1211.37 192.914 1211.82 191.709C1212.27 190.654 1212.12 189.297 1211.67 188.845C1211.21 188.242 1210.76 189.146 1210.91 190.804Z" fill="black"/>
<path d="M227.846 193.668C227.846 194.874 228.449 195.929 229.202 195.929C229.804 195.929 230.406 194.874 230.406 193.668C230.406 192.462 229.804 191.407 229.202 191.407C228.449 191.407 227.846 192.462 227.846 193.668Z" fill="black"/>
<path d="M367.446 193.668C367.446 194.874 367.747 195.929 368.048 195.929C368.349 195.929 368.951 194.874 369.554 193.668C370.006 192.462 369.704 191.407 368.951 191.407C368.048 191.407 367.446 192.462 367.446 193.668Z" fill="black"/>
<path d="M519.694 193.819C519.694 195.476 520.146 195.929 520.598 194.723C521.05 193.668 520.899 192.311 520.447 191.859C519.996 191.256 519.544 192.161 519.694 193.819Z" fill="black"/>
<path d="M676.311 193.819C676.311 195.476 676.762 195.929 677.214 194.723C677.666 193.668 677.515 192.311 677.064 191.859C676.612 191.256 676.16 192.161 676.311 193.819Z" fill="black"/>
<path d="M843.468 193.819C843.468 195.476 843.92 195.929 844.372 194.723C844.823 193.668 844.673 192.311 844.221 191.859C843.769 191.256 843.317 192.161 843.468 193.819Z" fill="black"/>
<path d="M992.856 193.668C992.856 194.874 993.458 195.929 994.211 195.929C994.813 195.929 995.416 194.874 995.416 193.668C995.416 192.462 994.813 191.407 994.211 191.407C993.458 191.407 992.856 192.462 992.856 193.668Z" fill="black"/>
<path d="M64.9053 202.861C64.9053 204.519 65.357 204.971 65.8088 203.766C66.2606 202.711 66.11 201.354 65.6582 200.902C65.2065 200.299 64.7547 201.204 64.9053 202.861Z" fill="black"/>
<path d="M1210.91 202.861C1210.91 204.519 1211.37 204.971 1211.82 203.766C1212.27 202.711 1212.12 201.354 1211.67 200.902C1211.21 200.299 1210.76 201.204 1210.91 202.861Z" fill="black"/>
<path d="M367.596 204.067C367.596 205.574 365.789 208.438 363.681 210.397C361.573 212.356 359.916 215.521 359.916 217.481C359.916 225.469 371.21 229.086 375.578 222.756C379.041 217.782 378.589 214.768 373.62 210.548C371.21 208.589 368.952 205.574 368.5 204.067C367.747 201.354 367.747 201.354 367.596 204.067ZM374.674 216.426C375.276 222.153 371.963 225.318 366.693 223.961C364.434 223.359 362.627 221.55 362.024 219.289C360.669 214.014 363.831 210.699 369.554 211.301C373.62 211.754 374.222 212.356 374.674 216.426Z" fill="black"/>
<path d="M519.694 204.369C519.694 206.177 517.887 208.739 515.93 210.096C510.96 213.261 509.755 217.933 512.617 222.304C515.478 226.674 522.556 227.428 526.17 223.66C529.935 220.043 529.182 212.959 524.965 210.096C522.857 208.89 520.899 206.328 520.598 204.519L519.996 201.204L519.694 204.369ZM525.567 213.261C530.236 218.988 521.501 227.729 515.779 223.057C513.068 220.796 512.767 215.371 515.327 212.809C517.887 210.246 523.309 210.548 525.567 213.261Z" fill="black"/>
<path d="M676.311 204.369C676.311 206.177 674.503 208.739 672.395 210.096C669.835 211.754 668.63 214.014 668.63 217.029C668.63 227.88 682.786 229.538 685.948 218.837C686.701 216.275 685.948 214.466 682.485 211.301C680.075 209.041 677.666 205.725 677.214 204.218C676.612 201.505 676.461 201.505 676.311 204.369ZM682.184 213.11C686.852 218.837 680.828 226.524 674.052 223.359C667.275 220.344 669.534 211 677.064 211C678.871 211 681.13 212.055 682.184 213.11Z" fill="black"/>
<path d="M843.468 204.369C843.468 206.177 841.661 208.739 839.703 210.096C834.734 213.261 833.529 217.933 836.39 222.304C839.251 226.674 846.329 227.428 849.944 223.66C853.708 220.043 852.955 212.959 848.739 210.096C846.63 208.89 844.673 206.328 844.372 204.519L843.769 201.204L843.468 204.369ZM849.341 213.261C854.01 218.988 845.275 227.729 839.553 223.057C836.842 220.796 836.541 215.371 839.101 212.809C841.661 210.246 847.082 210.548 849.341 213.261Z" fill="black"/>
<path d="M227.997 205.725C228.449 206.931 228.148 207.986 227.395 207.986C224.533 207.986 219.865 214.014 219.865 217.481C219.865 225.016 230.406 228.935 235.376 223.359C238.99 219.44 238.538 214.466 234.171 210.397C232.063 208.438 230.406 206.177 230.406 205.122C230.406 204.218 229.653 203.464 228.75 203.464C227.846 203.464 227.395 204.519 227.997 205.725ZM235.225 214.768C236.581 217.933 236.43 218.988 234.171 221.55C230.557 225.619 226.491 225.318 223.63 220.947C220.166 215.823 222.877 211 229.051 211C232.364 211 233.87 211.904 235.225 214.768Z" fill="black"/>
<path d="M993.007 205.725C993.458 206.931 993.157 207.986 992.404 207.986C989.543 207.986 984.875 214.014 984.875 217.481C984.875 225.016 995.416 228.935 1000.39 223.359C1004 219.44 1003.55 214.466 999.181 210.397C997.072 208.438 995.416 206.177 995.416 205.122C995.416 204.218 994.663 203.464 993.759 203.464C992.856 203.464 992.404 204.519 993.007 205.725ZM999.934 213.864C1002.04 217.933 1001.89 219.44 999.03 222.153C995.567 225.619 991.35 225.167 988.639 220.947C986.682 218.084 986.531 216.576 987.886 214.165C989.995 209.945 997.675 209.794 999.934 213.864Z" fill="black"/>
<path d="M61.4417 217.029C56.4721 221.55 56.0204 227.428 59.9358 231.045C67.3148 237.827 77.7057 229.839 73.4891 220.796C72.5855 218.686 71.2302 217.029 70.6278 217.029C70.0255 217.029 68.5195 216.124 67.4654 215.069C65.9595 213.562 64.7547 214.014 61.4417 217.029ZM69.4231 218.536C73.3385 220.796 73.3385 228.483 69.2725 230.593C62.0441 234.511 55.5686 226.071 60.9899 220.043C64.1524 216.576 65.3571 216.426 69.4231 218.536Z" fill="black"/>
<path d="M1206.4 218.084C1202.78 221.851 1201.88 223.961 1202.48 226.524C1204.59 233.456 1212.72 235.868 1217.24 230.894C1221.15 226.674 1220.4 221.249 1215.43 216.878L1211.06 213.11L1206.4 218.084ZM1215.88 219.44C1217.24 220.646 1218.29 223.057 1218.29 224.564C1218.29 227.579 1214.53 232.1 1212.12 232.1C1208.05 232.1 1204.74 228.784 1204.74 224.564C1204.74 217.933 1211.37 214.768 1215.88 219.44Z" fill="black"/>
<path d="M95.6262 233.004C88.8496 236.471 85.6871 239.786 82.6753 246.418C78.0069 256.516 78.9105 260.434 92.9156 291.029C100.144 306.704 106.318 319.514 106.77 319.514C108.427 319.364 132.823 266.161 133.576 261.188C135.533 249.734 128.606 237.074 117.914 232.703C111.438 229.839 101.198 230.141 95.6262 233.004ZM113.396 241.746C123.486 245.966 127.401 255.913 122.883 265.559C117.613 276.711 103.457 278.972 94.5721 270.08C85.8377 261.339 88.5484 246.719 99.8428 241.896C106.017 239.184 107.372 239.184 113.396 241.746Z" fill="#1FC2F5"/>
<path d="M114.149 248.829C112.643 249.583 109.33 253.351 106.77 257.119C103.306 262.243 101.65 263.599 100.746 262.092C99.8428 260.434 99.0898 260.434 97.7345 261.791C96.2285 263.298 96.2285 264.504 97.5839 267.518C98.4874 269.628 99.9933 271.286 100.746 271.286C101.65 271.286 104.662 267.669 107.523 263.298C110.384 259.078 114.3 253.652 115.956 251.241C119.269 247.021 118.667 246.116 114.149 248.829Z" fill="black"/>
<path d="M207.818 235.868C204.053 237.074 199.384 239.485 197.427 241.294C192.457 245.966 186.735 258.927 186.735 265.559C186.735 273.546 192.005 289.221 196.373 293.742C200.288 297.811 206.312 311.526 206.312 316.349C206.312 318.761 208.571 319.364 223.329 320.871C249.682 323.433 248.628 323.584 247.574 316.5C246.67 310.622 246.67 310.471 252.393 308.211C262.483 304.292 262.784 303.84 262.332 296.756C262.031 293.139 261.127 289.673 260.073 289.07C258.718 288.166 258.718 287.563 260.374 286.508C261.579 285.754 262.031 284.096 261.579 282.74C260.826 281.082 261.73 279.726 264.29 278.52C269.711 276.109 268.958 272.793 261.278 265.257C257.513 261.64 254.501 257.269 254.501 255.461C254.351 250.035 245.767 238.129 240.195 235.717C233.719 233.004 216.853 233.155 207.818 235.868ZM225.889 248.076C225.889 251.693 226.491 253.2 228.298 253.2C229.503 253.2 232.665 255.159 235.075 257.571C240.948 263.599 241.249 273.546 235.677 278.821C232.816 281.534 231.912 283.946 231.912 288.919C231.912 294.496 231.31 295.701 228.148 297.209C225.437 298.414 222.877 298.565 220.166 297.51C216.703 296.304 216.1 295.099 215.648 289.371C215.347 285.151 213.841 281.233 211.432 278.369C204.956 270.532 207.516 259.078 216.853 254.255C219.714 252.748 221.973 250.789 221.672 249.884C220.919 246.87 222.877 240.992 224.383 241.896C225.286 242.349 225.889 245.212 225.889 248.076ZM208.119 251.241C210.829 253.652 211.884 257.721 209.775 257.721C207.968 257.721 203.3 252.748 203.3 250.638C203.3 248.076 204.806 248.076 208.119 251.241ZM243.809 254.104C242.002 256.064 239.894 257.269 239.141 256.817C238.388 256.214 239.141 254.255 241.098 252.296C242.906 250.336 245.014 249.131 245.767 249.583C246.52 250.186 245.767 252.145 243.809 254.104ZM206.312 269.779C206.312 270.532 203.902 271.286 201.041 271.286C198.18 271.286 195.77 270.532 195.77 269.779C195.77 268.874 198.18 268.271 201.041 268.271C203.902 268.271 206.312 268.874 206.312 269.779ZM251.038 270.08C250.285 272.642 243.659 272.642 242.755 270.08C242.454 268.874 243.809 268.271 246.972 268.271C250.134 268.271 251.489 268.874 251.038 270.08ZM230.105 304.744C229.804 308.964 228.9 309.869 225.437 310.17C220.166 310.773 216.853 308.211 216.853 303.539C216.853 300.223 217.455 299.921 223.78 299.921C230.557 299.921 230.557 299.921 230.105 304.744Z" fill="#1FC2F5"/>
<path d="M219.865 257.42C216.552 258.475 212.034 263.599 213.088 265.106C213.54 265.86 213.239 266.915 212.335 267.518C210.679 268.573 212.938 272.944 217.154 277.465C220.618 281.233 229.503 280.178 233.268 275.656C240.496 266.614 231.009 253.652 219.865 257.42ZM229.653 263.75C233.268 267.819 231.611 273.999 226.34 275.204C221.22 276.561 217.757 274.3 217.154 268.874C216.251 261.489 224.533 258.023 229.653 263.75Z" fill="black"/>
<path d="M545.145 237.978C545.145 251.994 550.114 256.666 551.771 244.157C552.975 235.566 552.222 233.607 548.006 233.607C545.897 233.607 545.145 234.662 545.145 237.978Z" fill="black"/>
<path d="M479.637 238.581C479.034 240.54 478.884 245.815 479.185 250.336L479.637 258.475L492.889 258.927L506.141 259.379L505.087 264.202C504.033 269.326 504.334 269.326 512.767 262.092C514.424 260.585 517.887 259.229 520.297 258.927C524.664 258.475 524.815 258.174 525.266 250.336C526.17 234.511 527.224 235.114 502.226 235.114C480.691 235.114 480.39 235.114 479.637 238.581Z" fill="#1FC2F5"/>
<path d="M826.15 236.32C825.698 237.074 826.301 240.691 827.505 244.006C830.216 251.994 831.12 253.501 832.776 252.446C834.131 251.693 830.367 238.581 828.258 236.169C827.656 235.416 826.752 235.566 826.15 236.32Z" fill="#1FC2F5"/>
<path d="M858.678 242.499C857.624 245.664 856.871 249.432 856.871 250.789C856.871 255.31 859.431 253.2 861.238 247.021C862.292 243.554 863.497 239.937 863.949 238.731C864.4 237.526 863.798 236.621 862.593 236.621C861.238 236.621 859.582 239.184 858.678 242.499Z" fill="#1FC2F5"/>
<path d="M709.29 240.088C706.58 241.444 705.375 243.404 705.074 247.171C704.17 257.42 713.657 262.544 720.434 255.611C725.404 250.789 725.404 246.569 720.585 241.896C716.519 237.676 714.712 237.375 709.29 240.088Z" fill="black"/>
<path d="M984.874 240.389C983.218 242.349 983.82 242.65 989.242 242.65C992.555 242.65 995.416 243.253 995.416 243.856C995.416 244.459 992.404 248.076 988.639 251.693C984.121 256.064 982.314 258.776 983.368 259.831C984.423 260.886 987.434 258.927 992.404 253.954L999.934 246.569V253.803C999.934 260.133 1000.23 260.886 1002.19 259.229C1003.7 257.872 1004.45 254.406 1004.45 247.774V238.129H995.566C989.543 238.129 986.079 238.882 984.874 240.389Z" fill="#1FC2F5"/>
<path d="M349.826 244.76C350.278 245.966 351.483 249.583 352.537 253.049C354.344 259.229 356.904 261.339 356.904 256.817C356.904 251.542 353.29 242.65 351.182 242.65C349.977 242.65 349.374 243.554 349.826 244.76Z" fill="black"/>
<path d="M383.107 247.925C382.053 250.789 380.999 254.556 380.999 256.214C380.999 261.489 383.86 259.53 385.517 253.049C386.42 249.734 387.625 245.966 388.077 244.76C389.884 240.088 385.215 242.951 383.107 247.925Z" fill="black"/>
<path d="M1105.35 247.171C1105.35 251.09 1104.6 251.844 1100.83 252.597C1098.42 253.2 1096.31 253.954 1096.31 254.556C1096.46 255.009 1099.63 257.872 1103.54 261.037C1108.66 264.956 1111.82 266.312 1114.38 265.709C1117.4 265.257 1120.56 267.066 1129.14 274.451C1135.92 280.329 1140.74 283.192 1141.49 282.439C1142.39 281.534 1138.78 277.314 1131.7 271.436C1122.82 263.901 1120.41 261.188 1120.41 257.872C1120.41 255.009 1118.6 252.296 1113.78 248.226C1110.02 245.212 1106.7 242.65 1106.25 242.65C1105.8 242.65 1105.35 244.76 1105.35 247.171Z" fill="#1FC2F5"/>
<path d="M1014.99 284.096V324.036H1023.28H1031.56V284.096V244.157H1023.28H1014.99V284.096Z" fill="black"/>
<path d="M1132.45 246.116C1124.17 248.98 1121.76 250.939 1122.67 253.501C1123.57 255.762 1124.32 255.611 1130.5 252.899C1145.56 246.267 1163.48 251.693 1172.66 265.408C1178.39 273.999 1179.29 289.07 1174.77 297.962C1165.43 316.5 1143 322.83 1125.83 311.979C1113.48 304.141 1107.91 288.618 1111.82 273.546C1112.88 269.628 1112.58 268.874 1110.02 268.724C1107.91 268.573 1106.7 269.779 1106.1 272.944C1100.23 299.771 1117.85 322.529 1144.65 322.529C1168.15 322.529 1185.31 303.689 1183.2 280.479C1182 266.312 1174.17 254.707 1161.82 248.377C1154.59 244.609 1139.83 243.404 1132.45 246.116Z" fill="black"/>
<path d="M545.145 256.064C545.145 258.475 546.048 259.229 549.06 259.229C554.029 259.229 553.578 254.255 548.458 253.501C545.897 253.049 545.145 253.803 545.145 256.064Z" fill="black"/>
<path d="M791.363 259.078C790.008 261.339 804.163 270.381 805.97 268.573C807.326 267.216 804.766 265.106 794.074 258.776C793.17 258.174 791.965 258.324 791.363 259.078Z" fill="#1FC2F5"/>
<path d="M885.785 262.394C882.321 264.956 879.761 267.669 880.363 268.422C881.417 270.231 893.615 262.996 894.218 259.982C894.971 256.666 893.164 257.269 885.785 262.394Z" fill="#1FC2F5"/>
<path d="M1139.23 259.229C1131.55 260.886 1127.49 263.599 1129.44 266.011C1130.8 267.669 1132 267.518 1136.97 265.709C1145.1 262.394 1152.18 264.051 1157.91 270.532C1163.93 277.465 1165.13 282.439 1162.42 289.974C1159.71 297.962 1152.33 302.936 1143.45 302.936C1138.18 302.936 1135.92 302.031 1131.25 297.811C1125.98 292.838 1125.68 292.084 1125.53 283.041C1125.38 275.656 1124.93 273.396 1122.97 273.094C1121.31 272.793 1120.26 274.149 1119.5 278.068C1114.69 303.689 1146.31 319.816 1163.03 300.072C1171.01 290.426 1171.46 277.164 1163.93 267.669C1158.51 260.886 1148.42 257.269 1139.23 259.229Z" fill="black"/>
<path d="M638.964 262.695C640.319 264.956 641.524 267.367 641.524 268.121C641.524 268.874 635.048 273.999 627.217 279.575C619.387 285.001 612.911 290.125 612.911 290.728C612.911 291.632 627.217 312.581 630.229 316.199C630.53 316.5 636.855 312.28 644.536 306.704C652.065 301.278 659.143 296.455 660.197 296.003C661.251 295.551 663.36 297.058 664.715 299.168C666.221 301.429 667.727 302.936 668.028 302.484C668.48 302.031 671.19 293.139 673.901 282.589C677.515 269.025 678.419 263.449 677.214 262.996C676.16 262.695 670.287 262.092 664.113 261.64C657.938 261.037 649.053 260.284 644.536 259.681L636.404 258.776L638.964 262.695Z" fill="#1FC2F5"/>
<path d="M681.129 263.147C679.774 266.764 682.334 268.271 693.327 270.08L703.568 271.738L702.664 277.917C700.405 292.989 697.243 317.555 697.243 320.569C697.243 323.734 697.996 324.036 704.02 324.036H710.796V311.979C710.796 302.333 711.248 299.921 713.055 299.921C714.862 299.921 715.314 302.333 715.314 311.979V324.036H722.994C730.524 324.036 730.674 324.036 729.771 319.816C729.47 317.555 728.566 308.964 728.114 300.675C727.663 292.386 726.759 283.192 726.307 280.329C725.404 275.656 725.705 275.204 727.813 277.013C729.168 278.219 730.674 282.137 731.277 285.754C732.18 292.084 736.096 296.756 738.505 294.345C740.312 292.536 739.108 281.082 736.547 273.546C732.933 263.449 726.91 259.681 719.079 262.394C714.862 263.901 712.754 263.901 708.838 262.544C701.158 259.831 682.334 260.133 681.129 263.147Z" fill="black"/>
<path d="M989.392 294.194V324.036H997.675H1005.96L1005.66 294.496L1005.2 264.956L997.223 264.654L989.392 264.504V294.194Z" fill="black"/>
<path d="M314.738 266.011C314.738 267.066 326.936 275.807 328.593 275.807C331.604 275.807 329.346 271.738 324.527 268.573C319.708 265.559 314.738 264.202 314.738 266.011Z" fill="black"/>
<path d="M351.934 267.669C341.694 270.834 332.056 280.781 330.099 289.824C329.346 293.591 329.044 298.565 329.496 300.675C330.4 305.799 336.574 310.471 342.598 310.471C345.459 310.471 348.471 311.677 350.127 313.486C351.633 315.144 354.193 316.5 355.699 316.5C357.205 316.5 360.669 318.007 363.078 319.816C367.144 322.83 369.554 323.282 381.752 323.282C393.649 323.282 396.51 322.83 400.124 320.117C408.858 313.636 412.171 300.374 407.202 290.125C403.588 282.439 394.853 272.944 388.077 269.628C379.945 265.408 361.874 264.353 351.934 267.669ZM362.627 269.326C359.916 275.204 355.699 280.329 353.742 280.329C352.537 280.329 350.127 281.384 348.471 282.74C345.61 285.001 345.61 285.151 348.621 283.946C350.278 283.192 354.645 282.589 358.41 282.589C362.175 282.439 366.843 281.534 368.801 280.479C370.909 279.274 374.825 278.821 378.138 279.274C381.451 279.726 383.709 279.424 383.107 278.671C382.655 277.917 380.396 277.314 377.836 277.314C372.716 277.314 372.264 275.807 376.481 272.039C379.342 269.477 379.643 269.477 385.517 272.039C392.444 275.204 392.745 275.807 388.378 278.52C386.571 279.575 385.517 280.931 385.968 281.233C386.42 281.685 388.378 280.931 390.486 279.575C394.1 277.314 394.402 277.314 398.317 282.137C414.129 300.976 406.148 321.021 382.806 321.021C373.62 321.021 365.94 319.514 365.94 317.856C365.94 317.103 369.403 316.5 373.62 316.5C378.288 316.5 380.848 315.897 380.246 314.993C379.794 314.089 373.77 313.486 366.843 313.486C353.892 313.486 350.88 312.28 350.88 306.704C350.88 300.976 353.742 299.921 368.349 299.921C376.029 299.921 382.806 299.168 383.258 298.414C383.709 297.51 382.655 296.907 380.698 296.907C377.987 296.907 378.74 296.154 383.709 293.742C391.54 289.824 391.239 288.467 383.258 291.783C380.095 292.989 376.029 293.742 374.072 293.29C369.554 292.084 369.403 293.591 373.921 295.4C376.33 296.304 373.921 296.756 365.036 296.756C352.386 296.907 349.826 298.113 347.417 304.744C346.212 308.211 339.285 308.361 335.52 304.895C333.562 303.237 332.809 300.374 332.809 295.099V287.864L338.532 287.714C343.05 287.412 343.351 287.261 340.038 286.809C337.628 286.508 335.821 285.302 335.821 284.247C335.821 281.082 341.393 277.013 344.405 277.917C345.911 278.369 348.17 278.068 349.374 277.314C351.182 276.109 350.88 275.807 348.17 275.807C342.899 275.807 345.61 273.094 353.591 270.683C362.024 268.121 363.379 267.819 362.627 269.326ZM375.276 269.176C376.782 270.532 365.94 280.329 362.928 280.329C357.205 280.329 359.615 274.3 366.693 270.683C371.511 268.121 373.921 267.669 375.276 269.176Z" fill="#0B9AFF"/>
<path d="M368.951 285.604C366.994 287.714 366.09 289.371 366.994 289.371C367.747 289.371 370.006 287.714 371.963 285.604C373.921 283.494 374.825 281.836 373.921 281.836C373.168 281.836 370.909 283.494 368.951 285.604Z" fill="black"/>
<path d="M385.517 284.85C385.517 285.604 386.721 286.357 388.378 286.357C392.745 286.357 398.769 291.934 399.823 297.058C400.576 300.675 400.124 302.785 397.715 306.101C395.907 308.512 395.155 310.471 395.907 310.471C398.468 310.471 402.082 303.991 402.082 299.168C402.082 293.139 398.317 288.015 392.143 285.453C386.119 282.891 385.517 282.891 385.517 284.85Z" fill="black"/>
<path d="M346.362 289.522C340.791 291.783 337.327 295.4 337.327 299.017C337.477 301.881 337.628 301.73 339.736 298.113C340.941 295.852 343.2 293.29 344.857 292.386C348.471 290.426 356.302 290.426 360.066 292.386C361.723 293.29 362.928 293.441 362.928 292.536C362.928 291.18 354.796 287.714 351.784 288.015C350.88 288.015 348.471 288.769 346.362 289.522Z" fill="black"/>
<path d="M392.293 299.921C393.799 301.579 395.305 302.634 395.757 302.182C396.811 301.278 393.046 296.907 391.088 296.907C390.335 296.907 390.787 298.264 392.293 299.921Z" fill="black"/>
<path d="M380.999 304.292C380.999 305.046 382.806 306.101 384.914 306.553C387.022 307.156 389.884 309.567 391.239 311.979C394.552 317.856 396.811 317.856 393.799 311.979C391.088 306.704 380.999 300.524 380.999 304.292Z" fill="black"/>
<path d="M362.175 308.211C359.163 310.622 359.314 310.622 362.928 309.567C367.747 308.06 370.156 308.06 375.728 309.567C379.192 310.471 379.794 310.321 378.589 308.964C375.578 305.95 365.488 305.498 362.175 308.211Z" fill="black"/>
<path d="M409.31 269.326C403.738 273.094 402.082 275.807 405.094 275.807C407.352 275.807 418.647 268.121 418.647 266.614C418.647 264.202 415.033 265.257 409.31 269.326Z" fill="black"/>
<path d="M479.938 267.819C476.173 272.19 476.023 278.821 479.788 282.439C485.209 288.015 496.955 283.041 496.955 275.355C496.955 267.367 485.058 262.243 479.938 267.819Z" fill="black"/>
<path d="M542.133 267.97C535.055 273.697 539.723 284.85 549.06 284.85C557.644 284.85 561.86 274.451 555.686 268.271C551.921 264.504 546.5 264.353 542.133 267.97Z" fill="black"/>
<path d="M824.042 274.3C817.717 278.821 810.639 280.178 807.778 277.314C806.874 276.41 801.302 275.807 794.977 276.109L783.833 276.561V293.893V311.225L796.333 311.677C806.724 311.979 808.681 311.677 808.681 309.718C808.681 307.608 809.133 307.608 813.199 309.718C815.759 311.074 817.566 312.581 817.114 313.184C816.813 313.787 818.169 314.39 820.427 314.239C822.686 314.239 824.493 314.993 824.493 316.048C824.493 316.952 825.096 318.309 825.849 319.062C826.602 319.816 826.752 319.514 826.15 318.309C824.644 315.897 828.108 316.048 831.12 318.61C834.433 321.474 842.715 323.131 844.07 321.172C844.673 319.966 845.878 319.966 848.136 321.172C851.148 322.83 852.654 322.378 861.69 317.856C863.196 317.103 865.455 316.5 866.659 316.5C868.015 316.5 869.671 314.842 870.424 312.732C871.779 309.115 877.954 307.156 877.954 310.471C877.954 311.376 882.923 311.979 890.001 311.979H902.049V293.893V275.807H890.001C880.363 275.807 877.954 276.259 877.954 278.068C877.954 281.233 869.972 279.424 860.485 274.149C853.859 270.381 851.148 269.779 841.51 269.779C831.421 269.779 829.614 270.231 824.042 274.3ZM825.999 278.821C821.482 283.494 820.578 285.302 821.933 286.659C823.289 288.015 825.096 288.015 829.463 286.659C832.776 285.604 838.499 284.85 842.263 284.85C849.191 284.85 849.341 284.85 859.13 297.209C868.768 309.567 870.274 312.431 867.563 314.239C866.057 315.144 864.25 313.636 857.774 305.95C855.515 303.237 853.407 301.278 853.106 301.73C852.654 302.031 854.461 304.895 857.021 307.909C861.389 313.184 861.991 318.007 858.527 318.007C857.774 318.007 854.913 315.294 852.353 311.979C849.793 308.663 846.932 305.95 846.028 305.95C845.275 305.95 846.631 308.361 849.191 311.376C851.901 314.39 853.708 317.555 853.407 318.459C852.353 321.926 849.492 320.871 844.823 314.993C842.263 311.677 839.252 308.964 838.348 308.964C837.444 308.964 838.348 310.622 840.306 312.581C842.263 314.691 843.318 317.404 842.866 318.61C842.113 320.569 839.402 319.816 827.204 314.089C819.072 310.321 811.543 306.854 810.639 306.402C809.284 305.799 808.681 301.881 808.681 293.742V281.836H812.898C815.157 281.836 819.674 279.726 822.837 277.314C831.27 270.984 832.927 271.738 825.999 278.821ZM862.443 277.314C867.111 279.726 872.532 281.836 874.49 281.836C877.954 281.836 878.104 281.986 877.653 294.194C877.201 306.402 877.05 306.704 873.285 307.156C870.123 307.608 867.864 305.649 859.431 294.646L849.341 281.836L840.607 282.74C835.938 283.192 830.216 284.096 827.957 284.85C821.783 286.809 821.632 284.85 827.806 278.52C833.228 272.944 833.68 272.793 843.619 272.793C852.202 272.793 855.365 273.546 862.443 277.314ZM805.669 293.893V310.471H795.881H786.092V293.893V277.314H795.881H805.669V293.893ZM900.543 293.139V308.964H890.001H879.46V293.139V277.314H890.001H900.543V293.139Z" fill="black"/>
<path d="M790.008 303.388C790.46 304.895 791.363 305.649 791.815 305.196C792.267 304.744 791.815 303.539 790.761 302.484C789.255 301.127 789.104 301.278 790.008 303.388Z" fill="black"/>
<path d="M1141.49 275.656C1141.49 276.41 1142.54 277.766 1143.75 278.821C1146.61 281.233 1144.05 286.357 1139.98 286.357C1136.22 286.357 1136.07 288.769 1139.83 290.879C1144.5 293.29 1148.72 292.687 1151.13 289.07C1154.44 284.398 1154.14 280.931 1150.22 277.314C1146.91 274.3 1141.49 273.245 1141.49 275.656Z" fill="black"/>
<path d="M962.888 278.671C962.587 278.972 962.286 289.371 962.286 301.73V324.036H970.568H978.851V300.976V278.068H971.171C966.954 278.068 963.189 278.369 962.888 278.671Z" fill="black"/>
<path d="M470.3 289.673C466.084 291.783 461.114 303.237 460.512 312.732C460.06 319.514 460.361 320.268 463.222 320.72C466.535 321.172 468.192 318.007 468.342 311.225C468.342 309.567 469.547 306.854 470.752 305.196C473.011 302.333 473.161 302.936 472.408 313.034L471.806 324.036H486.715H501.623L500.569 313.034C499.515 300.524 501.774 300.374 504.936 312.883C506.292 318.761 507.496 320.419 510.207 320.72C513.068 321.172 513.52 320.569 513.52 316.199C513.52 313.335 512.165 306.854 510.358 301.73C506.292 289.824 501.473 286.659 491.835 289.371C487.317 290.577 484.456 290.577 481.444 289.522C476.324 287.563 474.667 287.563 470.3 289.673Z" fill="black"/>
<path d="M531.441 290.125C527.375 292.386 522.556 304.895 522.104 314.993C521.803 319.665 522.255 320.268 525.568 320.268C528.73 320.268 529.332 319.514 529.784 314.993C530.236 309.718 532.796 302.936 534.453 302.936C535.055 302.936 535.055 307.608 534.603 313.486L533.85 324.036H548.759H563.668L562.613 313.034C561.71 303.991 561.86 302.484 563.517 304.141C564.571 305.196 566.228 309.266 566.981 313.184C568.185 318.911 569.089 320.419 572.101 320.72C575.564 321.323 575.715 321.021 574.811 313.184C572.854 294.194 565.625 285.905 553.578 289.371C549.06 290.577 546.199 290.577 543.187 289.522C537.766 287.412 536.26 287.563 531.441 290.125Z" fill="black"/>
<path d="M74.0915 341.669C68.5196 343.779 68.5196 357.344 73.9409 360.358C79.0611 363.071 82.8259 360.659 82.8259 354.781C82.8259 350.712 82.2235 349.657 79.814 349.657C76.501 349.657 75.748 352.069 78.6093 352.973C79.6634 353.425 79.9646 354.781 79.3622 356.289C77.5551 361.111 73.4891 356.138 74.0915 349.808C74.5433 345.136 75.1457 344.382 78.7599 343.93C81.0188 343.629 82.5247 342.724 82.0729 341.971C81.0188 340.464 77.254 340.313 74.0915 341.669Z" fill="black"/>
<path d="M88.699 343.026C85.5365 346.794 86.1389 357.042 89.6025 359.604C93.3673 362.317 94.2709 362.317 97.8851 358.7C101.499 355.083 101.8 348.602 98.4875 343.93C95.7768 340.011 91.5602 339.559 88.699 343.026ZM95.6262 351.315C95.6262 356.138 95.0238 357.946 93.3673 357.946C90.9578 357.946 89.4519 349.808 90.9578 345.588C92.7649 341.066 95.6262 344.684 95.6262 351.315Z" fill="black"/>
<path d="M104.662 350.411C101.951 360.358 102.252 364.578 105.415 358.851C107.523 354.781 110.535 354.781 113.396 359.001C117.161 364.729 117.914 360.961 114.902 350.863C110.987 337.751 108.125 337.6 104.662 350.411ZM111.438 349.808C111.438 351.315 110.535 352.671 109.33 352.671C107.975 352.671 107.523 351.466 108.125 348.904C108.878 344.684 111.438 345.286 111.438 349.808Z" fill="black"/>
<path d="M120.775 350.712C121.227 360.659 121.378 360.81 125.444 360.81C130.413 360.81 131.618 358.097 126.949 357.494C123.787 357.042 123.486 356.138 123.486 348.753C123.486 344.081 122.883 340.614 121.98 340.614C120.926 340.614 120.474 344.382 120.775 350.712Z" fill="black"/>
<path d="M134.328 342.423C131.317 345.437 132.22 349.657 136.286 351.466C140.954 353.576 140.653 358.097 135.834 357.645C131.768 357.193 131.467 359.604 135.383 360.961C139.298 362.166 142.762 360.509 143.966 356.741C144.719 354.48 143.816 352.671 140.202 349.808C135.232 345.739 135.383 343.629 140.352 343.629C142.009 343.629 142.762 342.875 142.31 342.121C141.105 340.011 136.587 340.162 134.328 342.423Z" fill="black"/>
<path d="M183.723 351.164V361.714H188.993C192.457 361.714 194.264 360.961 194.264 359.604C194.264 358.399 192.758 357.645 190.951 357.796C188.391 357.946 187.487 357.042 187.487 354.932C187.487 353.274 188.542 351.767 189.746 351.767C194.565 351.315 194.866 350.863 191.252 349.808C186.584 348.451 186.283 344.533 190.951 343.93C196.222 343.176 194.866 340.614 188.993 340.614H183.723V351.164Z" fill="black"/>
<path d="M197.276 341.368C197.276 341.971 198.33 344.231 199.535 346.643C201.643 350.712 201.643 351.616 199.535 355.686C196.975 360.659 196.824 361.714 198.481 361.714C199.234 361.714 200.589 359.906 201.643 357.645L203.601 353.425L205.709 357.645C207.818 361.564 210.829 363.221 210.829 360.358C210.829 359.604 209.625 356.891 208.269 354.48C205.86 350.26 205.86 349.808 208.42 345.889C211.733 340.916 210.076 338.655 206.613 343.327C204.053 346.643 204.053 346.643 202.095 343.629C200.439 340.916 197.276 339.409 197.276 341.368Z" fill="black"/>
<path d="M214.443 342.724C213.992 343.779 213.841 348.451 214.142 352.822C214.594 361.262 217.305 363.975 218.058 356.741C218.359 353.877 219.413 352.671 221.371 352.671C223.027 352.671 224.985 351.315 225.888 349.808C227.846 346.04 227.846 345.739 224.985 343.026C222.124 340.011 215.498 339.861 214.443 342.724ZM222.575 347.095C222.877 348.602 222.124 349.657 220.768 349.657C219.262 349.657 218.359 348.301 218.359 346.492C218.359 342.875 221.823 343.327 222.575 347.095Z" fill="black"/>
<path d="M229.503 342.724C229.051 343.779 228.9 348.451 229.202 352.822C229.653 360.961 229.653 360.961 234.623 360.961C237.183 360.961 239.442 360.358 239.442 359.454C239.442 358.7 238.237 357.946 236.731 357.946C235.225 357.946 234.171 356.741 234.171 354.932C234.171 353.274 234.924 351.918 235.978 351.918C236.882 351.918 238.237 351.466 238.84 350.712C239.442 350.109 238.538 349.657 236.731 349.657C234.472 349.657 233.418 348.753 233.418 346.643C233.418 344.382 234.472 343.629 237.334 343.629C239.442 343.629 240.797 343.026 240.195 342.121C238.84 339.861 230.406 340.313 229.503 342.724Z" fill="black"/>
<path d="M245.014 341.519C243.508 343.176 243.658 359.906 245.315 360.961C246.068 361.413 246.971 359.906 247.273 357.645C247.875 352.219 250.134 352.219 252.694 357.494C255.103 362.619 258.115 363.221 256.76 358.248C256.158 356.439 255.103 354.329 254.501 353.576C253.748 352.822 254.049 351.014 254.953 349.506C256.308 347.396 256.308 345.889 255.103 343.93C253.447 341.217 246.971 339.71 245.014 341.519ZM252.393 345.286C253.899 347.849 250.435 350.712 248.327 348.602C246.52 346.794 247.724 343.629 249.983 343.629C250.736 343.629 251.79 344.382 252.393 345.286Z" fill="black"/>
<path d="M258.266 342.121C257.362 343.629 257.513 343.93 260.977 344.231C262.181 344.382 262.934 347.547 263.235 352.973C263.838 364.126 266.549 364.427 266.549 353.425C266.549 347.396 267.151 344.834 268.807 344.231C270.012 343.629 271.066 342.724 271.066 341.971C271.066 340.162 259.471 340.313 258.266 342.121Z" fill="black"/>
<path d="M300.281 342.724C298.926 346.04 300.281 360.961 301.938 360.961C302.691 360.961 303.745 358.851 304.197 356.439L305.1 351.918L307.66 356.741C310.371 361.865 314.437 363.824 312.479 359.001C308.112 348.602 308.112 348.301 310.672 345.437C313.684 342.121 313.985 340.614 311.274 340.614C310.22 340.614 308.263 342.423 306.907 344.684L304.347 348.904L304.197 344.684C304.197 340.464 301.636 339.107 300.281 342.724Z" fill="black"/>
<path d="M316.244 350.26C316.244 360.81 318.804 363.975 319.557 354.48L320.16 348.904L322.87 355.384C324.376 359.001 326.484 361.564 327.388 361.262C329.496 360.509 330.55 340.614 328.292 340.614C327.539 340.614 326.786 343.478 326.786 346.944C326.786 353.726 325.43 353.576 322.87 346.191C321.967 343.478 320.16 341.217 318.804 340.916C316.545 340.464 316.244 341.82 316.244 350.26Z" fill="black"/>
<path d="M335.219 343.93C331.906 348.602 332.207 355.083 335.821 358.7C339.435 362.317 340.339 362.317 344.104 359.604C346.212 358.097 346.965 355.836 346.965 351.315C346.664 341.066 340.038 336.997 335.219 343.93ZM342.598 351.315C342.598 356.138 341.995 357.946 340.339 357.946C337.929 357.946 336.423 349.808 337.929 345.588C339.736 341.066 342.598 344.684 342.598 351.315Z" fill="black"/>
<path d="M350.127 347.698C351.784 359.906 352.537 361.865 355.248 361.413C356.603 361.111 357.808 359.303 358.109 357.193C358.259 355.083 358.862 351.767 359.464 349.657C360.217 346.492 360.669 346.944 362.175 353.425C364.584 364.276 367.747 363.372 370.006 351.164C370.909 345.739 371.512 341.066 371.21 340.765C369.554 339.107 367.446 343.176 367.446 348.301C367.446 351.466 366.843 354.179 365.94 354.179C365.187 354.179 364.434 352.671 364.434 350.712C364.283 341.368 359.314 336.545 357.657 344.382C357.205 346.492 356.452 349.959 355.85 352.219L354.796 356.439L354.344 351.918C353.441 343.93 352.386 340.614 350.73 340.614C349.525 340.614 349.375 343.026 350.127 347.698Z" fill="black"/>
<path d="M375.276 350.712C375.728 360.81 375.879 360.961 379.945 360.961C384.914 360.961 386.119 358.097 381.451 357.494C378.288 357.042 377.987 356.138 377.987 348.753C377.987 344.081 377.385 340.614 376.481 340.614C375.427 340.614 374.975 344.382 375.276 350.712Z" fill="black"/>
<path d="M387.625 342.724C387.173 343.779 387.023 348.451 387.324 352.822C387.775 360.81 387.926 360.961 392.293 360.961C397.715 360.81 399.823 358.097 395.004 357.494C392.745 357.193 391.54 355.987 391.54 354.179C391.54 352.521 392.896 351.164 395.004 350.712L398.317 350.109L395.004 349.808C390.486 349.657 390.034 343.629 394.552 343.629C396.209 343.629 397.564 342.875 397.564 342.121C397.564 339.861 388.528 340.313 387.625 342.724Z" fill="black"/>
<path d="M402.383 350.712L402.835 360.961L407.352 360.509C412.623 359.906 415.635 356.59 415.635 351.164C415.635 345.136 411.72 340.614 406.449 340.614H401.931L402.383 350.712ZM410.816 350.26C411.117 353.877 410.515 356.59 409.461 357.344C406.298 359.303 405.094 357.344 405.094 350.26C405.094 344.533 405.545 343.478 407.804 343.93C409.611 344.231 410.515 346.191 410.816 350.26Z" fill="black"/>
<path d="M419.55 343.93C416.237 348.602 416.539 355.083 420.153 358.7C423.315 361.865 424.52 362.166 428.285 360.81C429.791 360.207 430.694 358.097 430.694 354.781C430.694 350.712 430.092 349.657 427.682 349.657C424.369 349.657 423.616 352.069 426.478 352.973C427.381 353.274 427.833 354.781 427.231 356.138C426.177 359.152 422.261 358.097 421.358 354.48C420.002 349.054 422.412 344.382 426.628 343.93C431.598 343.327 430.544 340.614 425.424 340.614C423.466 340.614 420.755 342.121 419.55 343.93Z" fill="black"/>
<path d="M435.212 351.315C435.212 361.714 435.363 362.016 438.676 361.111C440.483 360.659 442.892 360.207 443.947 360.207C444.85 360.207 445.754 359.454 445.754 358.7C445.754 357.796 444.097 357.193 441.989 357.193C437.32 357.193 436.869 353.124 441.537 351.315L444.85 350.109L441.537 349.356C436.869 348.15 437.17 343.629 441.989 343.629C444.097 343.629 445.754 342.875 445.754 342.121C445.754 341.217 443.344 340.614 440.483 340.614H435.212V351.315Z" fill="black"/>
<path d="M479.637 342.423C476.474 352.671 474.968 360.358 476.023 360.961C476.625 361.413 477.98 360.358 478.884 358.7C480.992 354.781 484.004 354.932 486.715 359.001C490.329 364.427 490.781 360.056 487.769 349.959C485.811 343.93 484.004 340.614 482.498 340.614C481.293 340.614 480.089 341.519 479.637 342.423ZM484.757 351.466C484.908 352.219 483.853 352.671 482.498 352.671C480.842 352.671 480.39 351.918 480.992 350.26C481.444 348.904 481.896 347.095 482.046 346.191C482.046 344.382 484.606 349.205 484.757 351.466Z" fill="black"/>
<path d="M493.943 351.164V361.714L498.16 360.81C505.84 359.152 505.991 359.001 505.991 351.315C505.991 343.327 503.732 340.614 497.106 340.614C494.244 340.614 493.943 341.519 493.943 351.164ZM502.075 346.04C503.581 350.109 503.129 355.234 501.021 357.042C498.009 359.454 496.955 357.645 496.955 350.109C496.955 345.588 497.557 343.629 499.063 343.629C500.268 343.629 501.623 344.684 502.075 346.04Z" fill="black"/>
<path d="M507.948 342.423C508.249 343.478 509.755 348.301 511.111 353.124C512.617 358.549 514.424 361.714 515.478 361.262C517.285 360.659 522.254 347.999 522.405 343.176C522.706 337.6 519.694 341.066 518.038 348.301C515.93 356.59 514.725 356.138 512.918 346.191C512.165 342.574 511.111 340.614 509.454 340.614C508.249 340.614 507.496 341.519 507.948 342.423Z" fill="black"/>
<path d="M526.17 342.724C524.814 346.191 526.17 360.961 527.826 360.659C529.935 360.056 530.688 340.614 528.579 340.614C527.676 340.614 526.622 341.519 526.17 342.724Z" fill="black"/>
<path d="M537.013 343.026C535.657 344.382 534.603 347.849 534.603 351.164C534.603 355.836 535.356 357.645 538.217 359.604C540.777 361.262 542.735 361.564 544.542 360.509C546.199 359.604 546.5 358.851 545.295 358.097C544.392 357.494 543.639 357.344 543.639 357.946C543.639 358.399 542.283 358.097 540.627 357.193C534.904 354.179 537.464 343.629 544.09 343.629C545.596 343.629 546.349 342.875 545.897 342.121C544.542 339.861 539.573 340.313 537.013 343.026Z" fill="black"/>
<path d="M549.662 351.315C549.662 360.509 549.964 361.865 552.072 361.111C553.427 360.659 555.686 360.207 557.343 360.207C558.848 360.207 560.204 359.454 560.204 358.7C560.204 357.796 558.397 357.193 556.288 357.193C551.168 357.193 551.921 352.219 557.192 351.315L560.957 350.712L557.192 349.808C551.921 348.451 551.168 343.629 556.288 343.629C558.397 343.629 560.204 342.875 560.204 342.121C560.204 341.217 557.794 340.614 554.933 340.614H549.662V351.315Z" fill="black"/>
<path d="M604.177 350.712L604.629 360.81L609.146 360.961C614.267 360.961 616.074 358.248 611.405 357.494C607.189 356.741 607.49 351.616 611.857 350.712L615.17 350.109L611.857 349.808C607.339 349.657 606.888 343.629 611.405 343.629C613.062 343.629 614.417 342.875 614.417 342.121C614.417 341.217 612.008 340.614 609.146 340.614H603.725L604.177 350.712Z" fill="black"/>
<path d="M619.838 345.588C622.097 350.26 622.097 351.014 619.838 355.384C616.977 360.81 616.826 361.714 618.935 361.714C619.688 361.714 621.194 359.906 622.398 357.796L624.507 353.877L627.067 357.796C630.681 363.372 632.94 361.111 629.476 355.384C626.916 351.014 626.766 350.26 628.874 346.191C631.886 340.614 630.079 338.806 626.615 343.478L623.754 347.095L622.85 343.93C622.248 342.121 620.742 340.614 619.537 340.614C617.881 340.614 617.881 341.368 619.838 345.588Z" fill="black"/>
<path d="M635.5 351.164C635.5 357.946 636.102 361.564 637.006 360.961C637.909 360.509 638.512 358.399 638.512 356.439C638.512 354.028 639.415 352.671 641.674 352.37C650.107 351.164 648.903 341.82 640.168 340.916L635.5 340.464V351.164ZM643.481 345.739C644.536 348.15 643.331 349.657 640.47 349.657C639.415 349.657 638.512 348.301 638.512 346.643C638.512 343.176 642.277 342.574 643.481 345.739Z" fill="black"/>
<path d="M650.559 350.863C650.559 362.016 649.957 361.413 660.046 360.358C662.606 360.056 659.293 357.193 656.432 357.193C654.625 357.193 653.571 356.138 653.571 354.179C653.571 352.219 654.625 351.164 656.583 351.164C658.239 351.164 659.595 350.561 659.595 349.808C659.595 349.054 658.39 348.602 657.035 348.753C655.529 348.753 654.173 347.698 653.872 346.191C653.42 344.231 654.324 343.629 657.336 343.629C659.595 343.629 660.95 343.026 660.348 342.121C659.896 341.217 657.486 340.614 654.926 340.614H650.559V350.863Z" fill="black"/>
<path d="M664.715 342.724C664.263 343.779 664.113 348.451 664.414 352.822C664.866 361.262 667.576 363.975 668.329 356.741C668.932 351.315 671.341 351.616 673.299 357.193C675.407 362.92 678.419 363.221 676.762 357.494C676.16 355.234 675.708 351.164 675.859 348.301C676.009 345.437 675.407 342.574 674.353 341.82C671.341 340.011 665.619 340.464 664.715 342.724ZM672.395 346.643C672.395 347.698 671.492 348.904 670.588 349.205C669.383 349.657 668.63 348.602 668.63 346.643C668.63 344.684 669.383 343.629 670.588 343.93C671.492 344.382 672.395 345.588 672.395 346.643Z" fill="black"/>
<path d="M682.184 351.315C682.184 357.946 682.786 361.564 683.69 360.961C684.593 360.509 685.195 355.686 685.195 350.26C685.195 344.834 684.593 340.614 683.69 340.614C682.786 340.614 682.184 345.136 682.184 351.315Z" fill="black"/>
<path d="M690.014 350.712C690.466 360.207 690.617 360.81 694.231 360.961C696.339 361.111 698.899 360.961 699.803 360.659C702.815 359.454 700.405 357.193 696.339 357.193C691.219 357.193 691.972 352.219 697.243 351.315L701.008 350.712L697.243 349.808C692.574 348.602 692.273 344.533 696.942 343.93C702.212 343.176 700.706 340.614 694.984 340.614H689.562L690.014 350.712Z" fill="black"/>
<path d="M704.772 351.315C704.772 357.946 705.375 361.564 706.278 360.961C707.182 360.509 707.784 357.645 707.784 354.631C707.784 348.451 709.29 349.054 711.7 356.138C714.561 364.729 717.573 362.166 718.025 350.712C718.326 344.382 717.874 340.614 716.82 340.614C716.067 340.614 715.314 343.327 715.314 346.643C715.314 349.959 714.712 352.671 713.808 352.671C713.055 352.671 712.302 351.616 712.302 350.411C712.302 346.643 708.838 340.614 706.73 340.614C705.224 340.614 704.772 343.327 704.772 351.315Z" fill="black"/>
<path d="M723.747 343.93C722.392 345.739 721.338 349.205 721.338 351.466C721.338 359.001 730.976 365.03 733.084 358.851C733.536 357.344 733.084 357.042 731.427 357.645C728.566 358.7 724.349 355.083 724.349 351.767C724.349 347.698 727.361 343.629 730.524 343.629C732.18 343.629 733.084 342.875 732.632 342.121C730.976 339.559 726.157 340.464 723.747 343.93Z" fill="black"/>
<path d="M736.698 350.712L737.15 360.659L742.119 360.81C744.981 360.961 746.938 360.207 746.938 359.001C746.938 358.097 745.131 357.193 743.023 357.193C737.903 357.193 738.656 352.219 743.927 351.315L747.691 350.712L743.927 349.808C739.258 348.602 738.957 344.533 743.625 343.93C748.896 343.176 747.39 340.614 741.668 340.614H736.246L736.698 350.712Z" fill="black"/>
<path d="M790.46 343.93C788.954 346.794 789.255 347.698 793.773 351.466C797.839 354.932 798.441 356.138 796.785 357.042C795.58 357.796 793.773 358.097 792.719 357.645C791.815 357.344 790.46 357.645 790.008 358.549C788.502 360.81 794.676 362.166 798.14 360.207C802.356 357.946 802.055 352.069 797.387 349.657C792.869 347.246 792.417 343.629 796.634 343.629C798.29 343.629 799.646 342.875 799.646 342.121C799.646 339.107 792.267 340.614 790.46 343.93Z" fill="black"/>
<path d="M804.164 348.753C804.164 359.755 807.928 363.824 814.856 360.207C817.115 358.851 817.717 356.891 817.717 349.657C817.717 344.684 817.115 340.614 816.211 340.614C815.458 340.614 814.705 343.779 814.705 347.698C814.705 356.891 812.898 360.056 809.585 357.344C807.928 355.987 807.175 352.822 807.175 347.999C807.175 343.93 806.573 340.614 805.669 340.614C804.917 340.614 804.164 344.231 804.164 348.753Z" fill="black"/>
<path d="M822.235 351.014C822.235 357.193 822.837 361.714 823.741 361.714C824.644 361.714 825.246 359.755 825.246 357.344C825.246 353.877 825.999 352.822 828.409 352.37C836.842 351.164 835.637 341.82 826.903 340.916L822.235 340.464V351.014ZM830.517 346.794C830.517 347.849 829.312 349.054 827.957 349.356C825.246 349.808 824.192 346.643 826.301 344.533C827.807 343.026 830.517 344.382 830.517 346.794Z" fill="black"/>
<path d="M837.595 350.712C838.047 360.659 840.607 364.276 841.51 356.59C841.812 354.028 843.016 352.671 845.275 352.37C847.384 352.069 848.739 350.712 849.04 348.451C849.793 343.629 846.781 340.614 841.51 340.614H837.143L837.595 350.712ZM845.576 346.643C845.576 347.698 844.673 348.904 843.769 349.205C842.565 349.657 841.812 348.602 841.812 346.643C841.812 344.684 842.565 343.629 843.769 343.93C844.673 344.382 845.576 345.588 845.576 346.643Z" fill="black"/>
<path d="M854.16 342.423C849.642 346.944 853.257 361.714 858.979 361.714C865.003 361.714 868.466 347.849 863.497 343.026C860.786 340.162 856.72 339.861 854.16 342.423ZM861.991 346.04C863.648 350.26 862.895 355.234 860.485 357.344C858.527 358.851 857.925 358.851 856.72 357.042C855.214 354.631 854.913 346.04 856.419 344.684C858.076 342.875 861.087 343.629 861.991 346.04Z" fill="black"/>
<path d="M869.521 342.724C869.069 343.779 868.918 348.451 869.219 352.822C869.671 361.262 872.382 363.975 873.135 356.741C873.737 351.315 876.147 351.616 878.255 357.344C879.159 360.056 880.363 361.413 881.267 360.509C882.02 359.755 882.02 357.645 881.116 355.535C880.363 353.425 880.062 349.808 880.514 347.547C881.116 344.834 880.664 342.875 879.309 341.971C876.147 340.011 870.424 340.313 869.521 342.724ZM877.201 346.643C877.201 347.698 876.297 348.904 875.394 349.205C874.189 349.657 873.436 348.602 873.436 346.643C873.436 344.684 874.189 343.629 875.394 343.93C876.297 344.382 877.201 345.588 877.201 346.643Z" fill="black"/>
<path d="M883.978 342.121C883.978 342.875 885.032 343.629 886.236 343.629C887.893 343.629 888.495 345.588 888.495 351.767C888.495 356.289 889.248 360.509 890.001 360.961C890.905 361.564 891.507 358.7 891.507 353.425C891.507 346.191 891.959 344.684 894.519 344.081C896.176 343.629 897.079 342.724 896.627 341.971C895.573 340.162 883.978 340.313 883.978 342.121Z" fill="black"/>
<path d="M933.673 351.014C933.673 357.193 934.275 361.714 935.179 361.714C936.082 361.714 936.685 359.755 936.685 357.344C936.685 353.877 937.438 352.822 939.847 352.37C948.28 351.164 947.076 341.82 938.341 340.916L933.673 340.464V351.014ZM941.955 346.643C941.955 347.849 940.751 349.054 939.395 349.356C937.438 349.657 936.685 348.904 936.685 346.643C936.685 344.382 937.438 343.629 939.395 343.93C940.751 344.231 941.955 345.437 941.955 346.643Z" fill="black"/>
<path d="M949.636 343.93C946.323 348.602 946.624 355.083 950.238 358.7C953.852 362.317 954.756 362.317 958.521 359.604C960.629 358.097 961.532 355.686 961.532 351.466C961.532 341.368 954.455 336.997 949.636 343.93ZM957.015 351.315C957.015 356.138 956.412 357.946 954.756 357.946C952.346 357.946 950.84 349.808 952.346 345.588C954.153 341.066 957.015 344.684 957.015 351.315Z" fill="black"/>
<path d="M963.038 342.121C962.587 342.875 963.189 343.629 964.394 343.629C966.05 343.629 966.803 345.739 967.104 351.918C967.406 356.439 968.309 360.207 969.062 360.207C969.966 360.207 970.719 356.439 971.02 351.918C971.321 345.889 972.074 343.629 973.58 343.629C974.785 343.629 975.839 342.875 975.839 342.121C975.839 341.217 973.128 340.614 969.966 340.614C966.653 340.614 963.49 341.217 963.038 342.121Z" fill="black"/>
<path d="M978.851 351.164V361.714L983.067 361.262C988.187 360.659 989.693 358.097 985.326 357.494C983.067 357.193 981.862 355.987 981.862 354.028C981.862 352.069 982.917 351.164 985.326 351.014H988.639L985.326 349.657C980.507 347.698 980.808 343.629 985.778 343.629C987.886 343.629 989.241 343.026 988.639 342.121C988.187 341.217 985.778 340.614 983.218 340.614H978.851V351.164Z" fill="black"/>
<path d="M993.006 342.724C991.651 346.191 993.006 360.961 994.663 360.509C995.567 360.358 996.018 357.344 995.717 354.028C995.265 347.246 997.524 347.095 999.181 353.726C1000.23 358.399 1002.64 361.714 1004.6 361.714C1005.36 361.714 1005.96 356.891 1005.96 351.164C1005.96 345.136 1005.36 340.614 1004.45 340.614C1003.7 340.614 1002.95 343.478 1002.79 346.944V353.425L999.934 346.944C997.072 340.464 994.512 338.956 993.006 342.724Z" fill="black"/>
<path d="M1008.97 342.121C1008.97 342.875 1010.02 343.629 1011.23 343.629C1012.88 343.629 1013.49 345.588 1013.49 351.767C1013.49 356.289 1014.24 360.509 1014.99 360.961C1015.9 361.564 1016.5 358.7 1016.5 353.425C1016.5 346.191 1016.95 344.684 1019.51 344.081C1021.17 343.629 1022.07 342.724 1021.62 341.971C1020.56 340.162 1008.97 340.313 1008.97 342.121Z" fill="black"/>
<path d="M1025.53 351.164C1025.53 357.193 1026.14 361.714 1027.04 361.714C1027.94 361.714 1028.55 357.193 1028.55 351.164C1028.55 345.136 1027.94 340.614 1027.04 340.614C1026.14 340.614 1025.53 345.136 1025.53 351.164Z" fill="black"/>
<path d="M1034.72 349.959C1031.71 360.056 1032.16 364.427 1035.77 359.001C1036.98 357.193 1038.79 355.686 1039.84 355.686C1040.89 355.686 1042.7 357.193 1043.91 359.001C1047.52 364.427 1047.97 360.056 1044.96 349.959C1043.15 344.231 1041.2 340.614 1039.84 340.614C1038.49 340.614 1036.53 344.231 1034.72 349.959ZM1040.74 353.124C1038.79 355.083 1037.28 351.767 1038.49 347.849L1039.54 344.382L1040.89 347.999C1041.65 350.26 1041.65 352.219 1040.74 353.124Z" fill="black"/>
<path d="M1051.14 351.315V361.865L1055.65 361.413C1061.07 360.81 1062.28 358.097 1057.61 357.494C1054.45 357.042 1054.15 356.138 1054.15 348.753C1054.15 344.231 1053.54 340.614 1052.64 340.614C1051.74 340.614 1051.14 345.136 1051.14 351.315Z" fill="black"/>
<path d="M1095.11 342.423C1092.25 345.286 1093 347.698 1098.27 351.767C1102.04 354.781 1102.64 355.987 1100.98 357.042C1099.93 357.796 1097.67 357.946 1096.16 357.645C1092.4 356.59 1092.4 359.755 1096.31 360.961C1100.23 362.166 1105.35 359.303 1105.35 355.686C1105.35 354.179 1103.24 351.466 1100.83 349.657C1096.01 346.191 1096.01 343.629 1100.98 343.629C1102.49 343.629 1103.84 342.875 1103.84 342.121C1103.84 340.011 1097.37 340.162 1095.11 342.423Z" fill="black"/>
<path d="M1108.36 349.657C1108.36 357.796 1108.81 359.001 1111.97 360.358C1114.53 361.564 1116.34 361.564 1118.75 360.358C1121.46 358.851 1121.91 357.193 1121.91 349.657C1121.91 344.684 1121.31 340.614 1120.41 340.614C1119.65 340.614 1118.9 343.93 1118.9 347.849C1118.9 355.836 1116.64 359.604 1113.33 357.042C1112.28 355.987 1111.37 352.219 1111.37 347.999C1111.37 343.93 1110.77 340.614 1109.87 340.614C1108.96 340.614 1108.36 344.684 1108.36 349.657Z" fill="black"/>
<path d="M1127.49 343.327C1124.02 347.246 1124.32 355.083 1128.09 358.851C1131.4 362.166 1135.62 362.166 1136.67 358.851C1137.12 357.344 1136.67 357.042 1135.02 357.645C1132.15 358.7 1127.94 355.083 1127.94 351.767C1127.94 347.698 1130.95 343.629 1134.11 343.629C1135.77 343.629 1136.67 342.875 1136.22 342.121C1134.71 339.71 1130.2 340.313 1127.49 343.327Z" fill="black"/>
<path d="M1140.89 343.93C1139.53 345.739 1138.48 349.205 1138.48 351.466C1138.48 356.289 1143.6 362.166 1147.06 361.413C1150.07 360.81 1151.73 356.891 1148.87 357.344C1144.65 357.796 1143.3 357.193 1142.54 354.028C1141.34 349.205 1143.9 343.629 1147.51 343.629C1149.17 343.629 1150.53 342.875 1150.53 342.121C1150.53 339.258 1143.15 340.614 1140.89 343.93Z" fill="black"/>
<path d="M1153.84 350.712L1154.29 360.961H1159.26C1164.98 360.961 1165.89 358.097 1160.31 357.494C1155.19 356.891 1155.8 352.219 1161.07 351.315L1164.83 350.712L1161.07 349.808C1156.4 348.602 1156.1 344.533 1160.77 343.93C1166.04 343.176 1164.53 340.614 1158.81 340.614H1153.39L1153.84 350.712Z" fill="black"/>
<path d="M1168.6 342.875C1166.19 345.889 1167.99 350.411 1172.51 352.521C1175.83 354.028 1176.13 354.631 1174.62 356.439C1173.42 357.796 1171.46 358.399 1169.95 357.946C1168.3 357.344 1167.09 357.645 1167.09 358.549C1167.09 360.961 1172.81 362.016 1176.13 360.207C1180.49 357.946 1179.89 353.425 1174.62 349.657C1169.8 346.191 1169.8 343.629 1174.77 343.629C1176.43 343.629 1177.33 342.875 1176.88 342.121C1175.52 339.861 1170.71 340.313 1168.6 342.875Z" fill="black"/>
<path d="M1182 343.93C1180.49 346.794 1180.8 347.698 1185.31 351.466C1189.53 355.083 1189.98 355.987 1188.17 357.193C1186.97 357.946 1184.71 358.248 1183.36 357.796C1181.85 357.344 1180.64 357.645 1180.64 358.549C1180.64 360.961 1186.37 362.016 1189.68 360.207C1193.75 357.946 1193.44 353.576 1188.93 349.959C1184.41 346.341 1184.11 343.629 1188.17 343.629C1189.83 343.629 1191.19 342.875 1191.19 342.121C1191.19 339.107 1183.81 340.614 1182 343.93Z" fill="black"/>
</svg>
