<svg xmlns="http://www.w3.org/2000/svg" data-name="Layer 1" viewBox="0 0 3287.07 1764.66" id="business-team-doing-creative-brainstorming"><path fill="#56b1da" d="M3295.59 1884a607.22 607.22 0 0 0 27.88-182.41c0-277.33-185.83-511.24-439.75-584a369.43 369.43 0 0 0 27.93-141.33c0-204.66-165.91-370.57-370.57-370.57a370.82 370.82 0 0 0-101.45 14.06c-137-220.43-381.33-367.22-660-367.22-360.32 0-663.29 245.43-751 578.22-417.6 12.88-752.19 355.41-752.19 776.13a774.63 774.63 0 0 0 51 277.17Z" transform="translate(-182.4 -119.34)"></path><path fill="#3d7e9c" d="M1090.65 1371.07c-155.45 0-286.54 104.26-327.18 246.66h654.37c-40.65-142.41-171.74-246.66-327.19-246.66ZM1983.26 1371.07c-155.45 0-286.54 104.26-327.18 246.66h654.37c-40.65-142.41-171.74-246.66-327.19-246.66Z" transform="translate(-182.4 -119.34)"></path><path fill="#3d7e9c" d="M1558 1265.4c-222 0-409.29 148.92-467.35 352.33h934.69C1967.29 1414.32 1780 1265.4 1558 1265.4Z" transform="translate(-182.4 -119.34)"></path><path fill="#3ac5c9" d="M3051.17 1475.66c-118.35 70.59-261.53 48.61-261.53 48.61l428.57-255.63s-48.69 136.43-167.04 207.02Z" transform="translate(-182.4 -119.34)"></path><path fill="#49e1e6" d="m3218.22 1268.64-428.57 255.63s48.69-136.43 167-207 261.57-48.63 261.57-48.63Z" transform="translate(-182.4 -119.34)"></path><path fill="#3ac5c9" d="M2957.3 1313.37c-41.64 131.36-163.31 210-163.31 210l150.79-475.7s54.16 134.33 12.52 265.7Z" transform="translate(-182.4 -119.34)"></path><path fill="#49e1e6" d="M2944.78 1047.66 2794 1523.35s-54.16-134.36-12.52-265.72 163.3-209.97 163.3-209.97Z" transform="translate(-182.4 -119.34)"></path><path fill="#bcf0f2" d="M2558.95 1495.81a152.51 152.51 0 0 0-146.6 110.52h293.21a152.51 152.51 0 0 0-146.61-110.52ZM2958.91 1495.81a152.51 152.51 0 0 0-146.6 110.52h293.21a152.51 152.51 0 0 0-146.61-110.52Z" transform="translate(-182.4 -119.34)"></path><path fill="#bcf0f2" d="M2768.36 1448.46c-99.49 0-183.4 66.73-209.41 157.87h418.82c-26.02-91.14-109.92-157.87-209.41-157.87Z" transform="translate(-182.4 -119.34)"></path><path fill="#458fb0" d="M2638.1 1709.86H961.9a56.09 56.09 0 0 1 0-112.18h1676.2a56.09 56.09 0 0 1 0 112.18Z" transform="translate(-182.4 -119.34)"></path><path fill="#d0f1f2" d="M409.94 205.19c-108.11 0-199.27 72.5-227.54 171.54h455.08C609.22 277.7 518 205.19 409.94 205.19ZM1030.7 205.19c-108.11 0-199.27 72.5-227.54 171.54h455.08C1230 277.7 1138.81 205.19 1030.7 205.19Z" transform="translate(-182.4 -119.34)"></path><path fill="#d0f1f2" d="M735 131.71c-154.42 0-284.64 103.57-325 245h650c-40.4-141.44-170.63-245-325-245Z" transform="translate(-182.4 -119.34)"></path><path fill="#fff" d="M446.45 352.12a146.22 146.22 0 0 0-140.56 106H587a146.22 146.22 0 0 0-140.55-106ZM829.91 352.12a146.22 146.22 0 0 0-140.56 106h281.11a146.22 146.22 0 0 0-140.55-106Z" transform="translate(-182.4 -119.34)"></path><path fill="#fff" d="M647.22 306.72c-95.39 0-175.83 64-200.77 151.36H848c-25-87.38-105.39-151.36-200.78-151.36Z" transform="translate(-182.4 -119.34)"></path><path fill="#d0f1f2" d="M3042 472.65a119.27 119.27 0 0 0-114.65 86.44h229.31A119.27 119.27 0 0 0 3042 472.65ZM3354.82 472.65a119.27 119.27 0 0 0-114.65 86.44h229.31a119.27 119.27 0 0 0-114.66-86.44Z" transform="translate(-182.4 -119.34)"></path><path fill="#d0f1f2" d="M3205.8 435.62A170.36 170.36 0 0 0 3042 559.09h327.54a170.36 170.36 0 0 0-163.74-123.47Z" transform="translate(-182.4 -119.34)"></path><path fill="#fff" d="M1339.26 1012.81s-98.33-33.44-107.21-58 88.31-3.37 128.92 44.52Z" transform="translate(-182.4 -119.34)"></path><path fill="#292b3b" d="M1314.19 1011.27c-11.64-13.78 23.43-26.75 34.73-41.41 247.71 258.74-148.66 474.67-194.79 99-7.06-57.47-4-39.12 33.7-50 3.87-5.38 2.75-5.14 0 0 37.68-10.92 46.51 3.37 46.46 40.18-.29 240.54 251.8 155.74 79.9-47.77ZM1391 1653.77h-191.21c-7-51.18-17.34-107.13-31-168.24 55.35-14.22 105.66-51.21 161.67-62.67 28.87 77.61 54.4 158.28 60.54 230.91Z" transform="translate(-182.4 -119.34)"></path><path fill="#feb0af" d="M1145.75 1515.66c26.06-11.45 54.12-18.94 120.67-24.28l1.35-.11c49.08-3.85 79.58-55.17 58.91-99.85-83.92-181.36-101.12-280.79-94.32-341.23 4-35.25-11.05-69.9-40-90.38l-11.27-8c-52.4-37.21-125.9-6.49-135.76 57.06a521.63 521.63 0 0 0-6 72.73c-1.77 129.49 30.47 265.4 106.42 434.06Z" transform="translate(-182.4 -119.34)"></path><path fill="#fff" d="M1084.83 853.42c24.87 55.13 83.43 82.5 117.12 67.3s29.75-67.21 4.88-122.34-64.84-70.87-98.53-55.67-48.3 55.58-23.47 110.71Z" transform="translate(-182.4 -119.34)"></path><path fill="#fff" d="m1094.65 855 62.94-8.52c1.17 8.62 10.86 90.74 8.81 121.9-2 9.65-17.55 14.62-34.82 11.11-15.52-3.16-27-12.1-27.77-20.88h-.07c1.26-18.67-5.02-73.46-9.09-103.61Z" transform="translate(-182.4 -119.34)"></path><path fill="#1a1c2e" d="M1212.85 860.85c-6.37-.61-13.33-1.07-18.61 2.54-1.88 1.29-3.43 3-5.4 4.18-1.37.79-2.9 1.27-4.29 2-3.09 1.64-5.34 4.45-7.51 7.19-3.07 3.88-10.38 14.85-1.19 16.31a10.26 10.26 0 0 0 6.17-1.22c6.31-3.21 9.92-10.24 16.1-13.7a34.23 34.23 0 0 1 3.47-1.61c3.79-1.6 7.59-3.19 11.52-4.41a17.75 17.75 0 0 0 5.1-2.09 5.09 5.09 0 0 0 2.38-4.68c-.52-3.19-4.53-4.21-7.74-4.51ZM1091.48 867.74s18.2-2.75 9.1-21.23-11.87-39.16-5.93-39.16 19.17 7.45 23.3-6.62 10.75-3.31 22.34-8.27 57.94-12.61 62.06-38.57-3.15-39.19-16.06-35.06-7.67-6.09-21.46-3.87-14.74 8.93-34.16 12.14-71.28 20.23-64.77 48.56c0 0-22.4 11.83-13.3 35s27.4 70.92 38.88 57.08Z" transform="translate(-182.4 -119.34)"></path><path fill="#fff" d="M1068.41 879.51c5.79 12.83 25.93 23.5 35.23 19.31s6.92-15.64 1.14-28.48-18.74-21.44-28-17.25-14.16 13.59-8.37 26.42Z" transform="translate(-182.4 -119.34)"></path><path fill="#1a1c2e" d="M1109 880.65s-7.91-1.76-1.51 8.95 46.73 45.72 86.13 41.69 38.74-41.66 37.51-49.18-5-11.16-9.57 6.23-21.21 31.19-39.4 30.18-50.16-17-59.31-24.21a81.11 81.11 0 0 1-13.85-13.66Z" transform="translate(-182.4 -119.34)"></path><path fill="#292b3b" d="M1022.61 1078.45c.41-27.27-4-41.88-.69-63.12 7.81-50.32 30.46-81.14 76-72.88-2 97.84 212.46 648.76 211.08 648.87-66.55 5.33-104.4 16.89-130.47 28.34-75.96-168.66-157.78-411.66-155.92-541.21ZM1167.56 936.43a86.11 86.11 0 0 1 34.73 14.57l11.27 8c28.9 20.48 43.91 55.13 40 90.38-8 70.67-14.7 156.49 76 348.08-63.28-17.91-163.97-363.19-162-461.03Z" transform="translate(-182.4 -119.34)"></path><path fill="#fff" d="M1047.85 1365.6s98.66-32.47 120.56-18.16-68.5 55.84-129.75 42Z" transform="translate(-182.4 -119.34)"></path><path fill="#292b3b" d="M1064.52 1351.17c-3.84 15.34-7.72 32.05-11.52 47.51-268.73-83-310.85-297.44-30.25-415.59 57.87-24.37 73 58.26 27.33 73.79-265.29 90.12-159.08 210.77 14.44 294.29Z" transform="translate(-182.4 -119.34)"></path><circle cx="970.84" cy="925.53" r="6.26" fill="#292b3b"></circle><circle cx="984.29" cy="978.79" r="6.26" fill="#292b3b"></circle><circle cx="998.33" cy="1028.69" r="6.26" fill="#292b3b"></circle><path fill="none" stroke="#3b3e54" stroke-linecap="round" stroke-linejoin="round" stroke-width="9" d="M524.38 1503.82v-246.93M524.38 1438.25l29.16-29.16M524.38 1409.16l-30.23-30.23M524.38 1329.19l-18.75-18.75"></path><path fill="#2f7d80" d="M706.78 1287.11v134.07s28-30 28-67-28-67.07-28-67.07Z" transform="translate(-182.4 -119.34)"></path><path fill="#369094" d="M678.81 1354.14c0 37 28 67 28 67v-134.03s-28 30.01-28 67.03Z" transform="translate(-182.4 -119.34)"></path><path fill="#2f7d80" d="m682.92 1504.64-94.34-94.34s1.44 40.8 27.49 66.85 66.85 27.49 66.85 27.49Z" transform="translate(-182.4 -119.34)"></path><path fill="#369094" d="M655.43 1437.79c-26.05-26.05-66.85-27.49-66.85-27.49l94.34 94.34s-1.44-40.8-27.49-66.85Z" transform="translate(-182.4 -119.34)"></path><path fill="none" stroke="#3b3e54" stroke-linecap="round" stroke-linejoin="round" stroke-width="9" d="m524.38 1357.3 14.46-14.46"></path><path fill="#2f7d80" d="m813.62 1369.81-94.34 94.34s40.8-1.44 66.85-27.49 27.49-66.85 27.49-66.85Z" transform="translate(-182.4 -119.34)"></path><path fill="#369094" d="M746.76 1397.3c-26.05 26.05-27.49 66.85-27.49 66.85l94.34-94.34s-40.79 1.44-66.85 27.49Z" transform="translate(-182.4 -119.34)"></path><path fill="#fff" d="M2067.48 978a29.93 29.93 0 0 0 29.93-29.93 29.93 29.93 0 0 0 29.93 29.93 29.93 29.93 0 0 0-29.93 29.93 29.93 29.93 0 0 0-29.93-29.93ZM684.08 1167.24a29.93 29.93 0 0 0 29.92-29.93 29.93 29.93 0 0 0 29.93 29.93 29.93 29.93 0 0 0-29.93 29.93 29.93 29.93 0 0 0-29.92-29.93Z" transform="translate(-182.4 -119.34)"></path><circle cx="1617.6" cy="409.99" r="343.37" fill="#3d7e9c"></circle><path fill="#fff" d="M2293.89 817.55s43.77-86.54 33.62-108.76-61.13 55.44-56.94 113.91Z" transform="translate(-182.4 -119.34)"></path><path fill="#ffc4c2" d="M2309.39 824c6.66-15-29.41-14.85-43-23-130.2 281.24 57.6 431 295.2 230 36.34-30.75 18.82-35.77-2.95-55.66 3.45-6.39 3.68-6.26 0 0-21.77-19.89-28.73-26.09-60.26 5.32-206.16 205.34-260.56 4.95-188.99-156.66Z" transform="translate(-182.4 -119.34)"></path><path fill="#292b3b" d="M2530.53 1476.71c-29.49 55.08-52 114.6-68.67 177.06h-128.28c6.27-96.15 21.9-181.83 51.15-247q73.12 34.51 145.8 69.94Z" transform="translate(-182.4 -119.34)"></path><path fill="#3b3e54" d="M2566.8 1653.77h-128.25c-11.67-75.42-17.79-158.7-18.9-252.51q81.58 10.84 162.9 23.76c-11.1 83.85-16.55 159.48-15.75 228.75Z" transform="translate(-182.4 -119.34)"></path><path fill="#ff9f9c" d="M2580.11 1508.06c-26-10.26-63.46-20.2-128.86-23-44.44-1.88-79.31-.32-106.61 3.33 114.4-245.51 134.23-367.87 123.86-436.81-5.16-34.39 8.28-68.89 35.84-90l10.75-8.27c50-38.37 123.11-11 135.09 50.94a511.41 511.41 0 0 1 8.49 71c6.56 126.85-10.31 264.75-78.56 432.81Z" transform="translate(-182.4 -119.34)"></path><path fill="#fff" d="M2305.22 1325.55s-89.58-48.42-113.19-38.41 56.43 65.75 117.93 63Z" transform="translate(-182.4 -119.34)"></path><path fill="#ffc4c2" d="M2292.23 1315.74c-7 17.42-14 34.48-21.9 50.71 317.92 22.2 399.43-43.19 378-336.89-3.27-44.93-13.24-49.7-51.75-39.34-29 7.8-28.1 24-24.48 64 23.67 261.78 9.82 246.33-279.87 261.52Z" transform="translate(-182.4 -119.34)"></path><path fill="#fff" d="M2601.17 847.55c-21.45 52.7-75.55 80.49-107.75 67.38s-30.33-62.14-8.88-114.84 58.47-68.9 90.68-55.79 47.4 50.54 25.95 103.25Z" transform="translate(-182.4 -119.34)"></path><path fill="#1a1c2e" d="M2622.48 817.09s2.6-38.29-18.84-61.24-73.2-41.56-103.22.68c0 0-18.57 32 21.87 51.1s40.19-5.54 54 22 37.43 18.08 39.73 24.13Z" transform="translate(-182.4 -119.34)"></path><path fill="#186587" d="M2608.14 860.59s-7.48-97.08-107.72-104c0 0 .11-21 27.27-31.39s78.23-14.8 138.91 34.78c0 0 15.67 22.08-5.12 26.58s-19.3 8.2-20 17.82-.65 69-33.34 56.21Z" transform="translate(-182.4 -119.34)"></path><path fill="#fff" d="m2592 849.41-59.47-5.81c-.8 8.14-7 85.69-4 114.91 2.18 9 17 13.13 33.12 9.22 14.48-3.51 25-12.32 25.38-20.6h.07c-1.83-17.53 2.13-69.27 4.9-97.72Z" transform="translate(-182.4 -119.34)"></path><path fill="#fff" d="M2617.53 875.34c-5 12.27-23.56 23-32.44 19.38S2578 880.26 2583 868s16.86-20.81 25.75-17.2 13.77 12.27 8.78 24.54Z" transform="translate(-182.4 -119.34)"></path><path fill="#1a1a1a" d="M2575.72 869.08c-10.4-7.66-16.89 2.29-35.37 17.92s-56.1 19.75-68-28.24c-7.59-30.58-15.27 23.28-15.29 23.33 1.38 26 11.18 40 30.3 47.8 26.38 10.73 63.37 1.37 92.71-24.81 2.93-13.45 2.76-30.79-4.35-36Z" transform="translate(-182.4 -119.34)"></path><path fill="#3d7e9c" d="m1885.81 490.4 147.01 130.23-147.01-49.15V490.4zM1349.38 490.4l-147.01 130.23 147.01-49.15V490.4z"></path><path fill="none" stroke="#ff9f9c" stroke-miterlimit="10" stroke-width="9" d="M1684 576.71v343.63a41.86 41.86 0 0 1-41.86 41.86 41.86 41.86 0 0 1-41.86-41.86V732.15a38.84 38.84 0 0 0-38.84-38.84 38.84 38.84 0 0 0-38.84 38.84v240.33a44.23 44.23 0 0 1-44.23 44.23 44.23 44.23 0 0 1-44.23-44.23V578.14a66 66 0 0 0-66-66 66 66 0 0 0-66 66v176" transform="translate(-182.4 -119.34)"></path><path fill="#fff" d="M1856.78 292.12a172.79 172.79 0 0 0-181-172.59c-89.18 4.11-161.27 77-164.48 166.21a172.29 172.29 0 0 0 58.32 135.85c22.79 20.13 35.31 49.46 35.31 79.87v4.58a23.19 23.19 0 0 0 23.19 23.19h111.68a23.19 23.19 0 0 0 23.2-23.18v-4.61a108.08 108.08 0 0 1 36.11-80.56 172.24 172.24 0 0 0 57.67-128.76Z" transform="translate(-182.4 -119.34)"></path><path fill="#9fa2c4" d="M1702.11 645.46h-36.22a17.94 17.94 0 0 1-17.89-17.94v-98.13a1.24 1.24 0 0 1 1.24-1.24h69.61a1.24 1.24 0 0 1 1.24 1.24v98.13a17.94 17.94 0 0 1-17.98 17.94Z" transform="translate(-182.4 -119.34)"></path><path fill="#c5c8e6" d="M1724.79 626.61h-81.58a21.62 21.62 0 0 1-21.62-21.61v-75.35a1.5 1.5 0 0 1 1.5-1.5h121.83a1.5 1.5 0 0 1 1.5 1.5V605a21.62 21.62 0 0 1-21.63 21.61Z" transform="translate(-182.4 -119.34)"></path><rect width="147.15" height="18.35" x="1428.02" y="472.05" fill="#9fa2c4" rx="5.36" ry="5.36"></rect><rect width="147.15" height="18.35" x="1428.02" y="445.56" fill="#9fa2c4" rx="5.36" ry="5.36"></rect><rect width="147.15" height="18.35" x="1428.02" y="419.07" fill="#9fa2c4" rx="5.36" ry="5.36"></rect><path fill="#ff9f9c" d="M1677.49 206.7a39.6 39.6 0 1 0-79.21 0v.64a30.16 30.16 0 0 0-33.12 43.15 38.57 38.57 0 0 0-7 64.17 28.1 28.1 0 0 0 22.59 44.8c.64 0 1.28 0 1.91-.07v.07a25.38 25.38 0 0 0 42.47 18.76 27.14 27.14 0 0 0 52.37-10V206.71Z" transform="translate(-182.4 -119.34)"></path><path fill="#ffc0bd" d="M1651.92 328.1h2.4v-5.88h-2.4a22.77 22.77 0 0 1-22.75-22.75v-40.2h-5.88v70.41a12.39 12.39 0 0 0-9.44 12h5.88a6.5 6.5 0 0 1 13 0h5.88a12.39 12.39 0 0 0-9.44-12v-12.85a28.59 28.59 0 0 0 22.75 11.27Z" transform="translate(-182.4 -119.34)"></path><path fill="#ffc0bd" d="M1680.61 265.37a17.91 17.91 0 0 0-.19-2.56v-56.1h-5.88a34.31 34.31 0 0 1-34.26 34.29v5.88a40.16 40.16 0 0 0 34.27-19.25V252a17.83 17.83 0 0 0-29.63 13.39h5.88a12 12 0 0 1 23.75-2v85.15a30.06 30.06 0 0 0-24.2-12.24v5.88a24.23 24.23 0 0 1 24.2 24.2v1.88a24.2 24.2 0 0 1-48.4 0h-5.88a30 30 0 0 0 1.38 9 22.44 22.44 0 0 1-32.51-29.95 12.35 12.35 0 0 0 14.95-2l-4.16-4.16a6.5 6.5 0 0 1-9.19-9.19l-4.16-4.16a12.39 12.39 0 0 0-1.73 15.31 28.19 28.19 0 0 0-5 13.38 25.15 25.15 0 0 1 .87-50.29h2.94a12 12 0 0 1 23.93 0h5.88a17.84 17.84 0 0 0-32-10.84 19.45 19.45 0 0 0-17.74-11.53v5.88a13.57 13.57 0 0 1 13.27 10.86 31 31 0 0 0-19.17 9.88 35.61 35.61 0 0 1 22.17-61.09 17.87 17.87 0 0 0 17.58 14.8v-5.88a12 12 0 0 1 0-23.93v-5.88a17.87 17.87 0 0 0-17.62 15 41.2 41.2 0 0 0-13.22 3.09 34.38 34.38 0 0 1-1.85-9.68 27.22 27.22 0 0 1 54.32-2.54 12.39 12.39 0 0 0-9.32 12h5.88a6.5 6.5 0 0 1 13 0h5.88a12.39 12.39 0 0 0-9.55-12 33.17 33.17 0 0 0-23.82-29.2 36.66 36.66 0 0 1 73.28 1.64h5.88a42.54 42.54 0 0 0-85-2.77 33.11 33.11 0 0 0-36.46 33 39.46 39.46 0 0 0 2.44 12.32 41.48 41.48 0 0 0-7.14 66 31 31 0 0 0 25.6 47.22 28.32 28.32 0 0 0 44.12 20.2 30.08 30.08 0 0 0 56.41-14.54V265.37Z" transform="translate(-182.4 -119.34)"></path><path fill="#ff9f9c" d="M1690.51 206.7a39.6 39.6 0 1 1 79.21 0v.64a30.16 30.16 0 0 1 33.12 43.15 38.57 38.57 0 0 1 7 64.17 28.1 28.1 0 0 1-22.59 44.8c-.64 0-1.28 0-1.91-.07v.07a25.38 25.38 0 0 1-42.47 18.76 27.14 27.14 0 0 1-52.37-10V206.71Z" transform="translate(-182.4 -119.34)"></path><path fill="#ffc0bd" d="M1716.08 328.1h-2.4v-5.88h2.4a22.77 22.77 0 0 0 22.75-22.75v-40.2h5.88v70.41a12.39 12.39 0 0 1 9.44 12h-5.88a6.5 6.5 0 1 0-13 0h-5.88a12.39 12.39 0 0 1 9.44-12v-12.85a28.59 28.59 0 0 1-22.75 11.27Z" transform="translate(-182.4 -119.34)"></path><path fill="#ffc0bd" d="M1687.38 265.37a17.91 17.91 0 0 1 .19-2.56v-56.1h5.88a34.31 34.31 0 0 0 34.27 34.29v5.88a40.16 40.16 0 0 1-34.27-19.25V252a17.83 17.83 0 0 1 29.63 13.39h-5.88a12 12 0 0 0-23.75-2v85.15a30.06 30.06 0 0 1 24.2-12.24v5.88a24.23 24.23 0 0 0-24.2 24.2v1.88a24.2 24.2 0 0 0 48.4 0h5.88a30 30 0 0 1-1.38 9 22.44 22.44 0 0 0 32.51-29.95 12.35 12.35 0 0 1-14.95-2l4.16-4.16a6.5 6.5 0 0 0 9.19-9.19l4.16-4.16a12.39 12.39 0 0 1 1.73 15.31 28.19 28.19 0 0 1 5 13.38 25.15 25.15 0 0 0-.87-50.29h-2.94a12 12 0 0 0-23.93 0h-5.88a17.84 17.84 0 0 1 32-10.84 19.45 19.45 0 0 1 17.74-11.53v5.88a13.57 13.57 0 0 0-13.27 10.86 31 31 0 0 1 19.17 9.88 35.61 35.61 0 0 0-22.17-61.09 17.87 17.87 0 0 1-17.58 14.8v-5.88a12 12 0 0 0 0-23.93v-5.88a17.87 17.87 0 0 1 17.62 15 41.2 41.2 0 0 1 13.22 3.09 34.38 34.38 0 0 0 1.85-9.68 27.22 27.22 0 0 0-54.32-2.54 12.39 12.39 0 0 1 9.32 12h-5.88a6.5 6.5 0 0 0-13 0h-5.88a12.39 12.39 0 0 1 9.55-12 33.17 33.17 0 0 1 23.82-29.2 36.66 36.66 0 0 0-73.28 1.64h-5.88a42.54 42.54 0 0 1 85-2.77 33.11 33.11 0 0 1 36.46 33 39.46 39.46 0 0 1-2.44 12.32 41.48 41.48 0 0 1 7.14 66 31 31 0 0 1-25.6 47.22 28.32 28.32 0 0 1-44.12 20.2 30.08 30.08 0 0 1-56.41-14.54V265.37Z" transform="translate(-182.4 -119.34)"></path><path fill="#bcf0f2" d="M1323 780.43a6.79 6.79 0 0 1 6.79 6.79v53.6a6.79 6.79 0 0 1-6.79 6.79 6.79 6.79 0 0 1-6.79-6.79v-53.6a6.79 6.79 0 0 1 6.79-6.79ZM1281.09 780.43a6.79 6.79 0 0 1 6.79 6.79v53.6a6.79 6.79 0 0 1-6.79 6.79 6.79 6.79 0 0 1-6.79-6.79v-53.6a6.79 6.79 0 0 1 6.79-6.79Z" transform="translate(-182.4 -119.34)"></path><path fill="#80839e" d="M1263.53 714.64h77.07v52.24a38.53 38.53 0 0 1-38.53 38.53 38.53 38.53 0 0 1-38.53-38.53v-52.24h-.01Z" transform="rotate(-180 1210.86 700.36)"></path><rect width="106.22" height="21.31" x="1248.95" y="783.7" fill="#8f92b0" rx="3.05" ry="3.05" transform="rotate(180 1210.86 734.69)"></rect><circle cx="1119.66" cy="622.26" r="5.32" fill="#ff9f9c"></circle><path fill="#ff9f9c" d="M1962.65 325.81c0-7.6-7.35-11.52-16.43-11.52-10.54 0-20.35 6.37-25.49 16.67l-43.63-21.82c12.5-23.53 37.26-39.71 76.48-39.71 38.49 0 67.17 16.18 67.17 46.82 0 37.5-39.22 44.12-39.22 63H1931c0-29.66 31.65-38.49 31.65-53.44ZM1923.92 418c0-16.42 13.24-28.93 32.36-28.93s32.36 12.5 32.36 28.93c0 16.18-13.24 29.42-32.36 29.42s-32.36-13.26-32.36-29.42Z" transform="translate(-182.4 -119.34)"></path><path fill="#2a6682" d="M1826.16 651V650.71q-.07-.38-.15-.76v-.18c-.06-.26-.11-.51-.17-.76v-.38l-.12-.47V648l-.12-.46-.06-.2v-.18c-.07-.25-.14-.5-.22-.75l-.05-.18-.24-.74-.06-.18v-.1l3.87-2.81 2.9-2.1a28.44 28.44 0 0 0-3.66-7.45l-3.44 1-4.59 1.35-.11-.16-.44-.64-.11-.15-.46-.64-.1-.13-.21-.28-.21-.28-.1-.13-.49-.62-.12-.15-.5-.6-.12-.14 2.55-4 1.92-3a28.52 28.52 0 0 0-6.16-5.56l-2.82 2.22-3.75 3-.08-.06-.16-.11-.65-.43-.16-.1-.66-.42-.16-.1-.17-.11-.41-.25H1806.22l-.41-.24-.18-.1-.16-.09-.69-.38-.17-.09-.69-.36-.17-.09h-.09l.75-4.73.56-3.54a28.58 28.58 0 0 0-7.85-2.68l-1.72 3.14-2.29 4.2h-.24l-.77-.14h-.18l-.78-.13h-.16l-.34-.05h-.51l-.78-.09h-.18l-.78-.07h-.24l-1.05-4.66-.79-3.5a28.52 28.52 0 0 0-8.29.43l-.43 3.57-.57 4.74h-.28l-.77.15h-.18l-.77.17h-.38l-.47.12h-.16l-.46.12-.2.06h-.18l-.75.22-.18.05-.74.24-.18.06h-.09l-2.81-3.88-2.1-2.9a28.42 28.42 0 0 0-7.45 3.66l1 3.44 1.35 4.59-.15.11-.65.44-.15.11-.64.46-.13.09-.28.21-.28.21-.12.1-.62.49-.14.11-.61.5-.14.12-4-2.55-3-1.92a28.51 28.51 0 0 0-5.56 6.16l2.22 2.82 3 3.75-.06.09-.1.15-.43.65-.1.15-.42.67-.09.15-.11.18-.25.41V637.41l-.24.41-.1.18-.09.16-.37.69-.09.16-.36.69-.08.17v.09l-4.72-.75-3.54-.56a28.38 28.38 0 0 0-2.68 7.85l3.14 1.72 4.2 2.29v.24c-.05.26-.1.52-.14.77v.18c0 .26-.09.52-.13.78v.16l-.05.34v.51c0 .26-.06.52-.09.79v.18c0 .26-.05.52-.08.78v.24l-4.66 1.05-3.5.79a28.52 28.52 0 0 0 .43 8.29l3.57.43 4.74.57V666.9c0 .25.1.51.15.76v.19c.05.25.11.51.17.76v.39l.12.46V669.63l.12.46.06.2v.17c.07.25.14.51.22.76l.05.18.24.75.06.17v.1l-3.88 2.81-2.9 2.1a28.5 28.5 0 0 0 3.66 7.45l3.44-1 4.59-1.35.11.16.44.64.11.15.46.64.09.13.21.28.21.28.1.12.49.62.11.14.5.61.12.14-2.55 4-1.92 3a28.53 28.53 0 0 0 6.16 5.56l2.82-2.22 3.75-3 .09.06.15.1.65.43.16.1.66.42.16.1.18.11.41.25h.14l.42.24.18.1.15.09.69.38.16.08.7.36.16.08h.09l-.75 4.72-.56 3.54a28.39 28.39 0 0 0 7.85 2.68l1.72-3.14 2.29-4.2H1776.81l.77.14h.18l.78.13h.16l.35.05h.5l.79.09h.18l.79.08h.24l1.05 4.66.79 3.5a28.52 28.52 0 0 0 8.29-.43l.43-3.57.57-4.74H1792.97l.76-.15h.19l.76-.17h.19l.21-.05.46-.12H1795.71l.46-.12.2-.06h.17l.76-.22.17-.05.75-.24.17-.06h.1l2.81 3.87 2.1 2.9a28.64 28.64 0 0 0 7.45-3.66l-1-3.44-1.35-4.59.16-.11.64-.44.16-.11.63-.46.13-.1.28-.21.28-.21.13-.1.62-.49.14-.11.6-.5.14-.12 4 2.55 3 1.92a28.52 28.52 0 0 0 5.56-6.16l-2.22-2.82-3-3.75.06-.08.11-.16.43-.64.11-.16.41-.66.1-.16.11-.18.24-.41v-.16l.24-.42.1-.18.09-.16.38-.69.09-.16.36-.7.08-.17v-.09l4.72.75 3.54.56a28.59 28.59 0 0 0 2.68-7.85l-3.14-1.72-4.2-2.29v.02-.19c0-.25.1-.51.14-.77v-.19c0-.26.08-.51.12-.77v-.16c0-.12 0-.23.05-.34v-.5c0-.26.06-.52.09-.78v-.18c0-.26.05-.52.07-.78v-.24l4.66-1.05 3.5-.79a28.51 28.51 0 0 0-.43-8.29l-3.57-.43Zm-18.77 6.55a23.06 23.06 0 1 1-24.22-21.83 23.06 23.06 0 0 1 24.21 21.79ZM2010.47 707.49v-.19c0-.13 0-.26-.07-.38q-.15-.77-.31-1.54l-.09-.38c-.11-.52-.23-1-.35-1.54l-.09-.37c0-.14-.07-.27-.1-.41-.08-.32-.16-.63-.24-.94v-.34l-.25-.93c0-.14-.08-.27-.11-.41l-.1-.35c-.14-.51-.29-1-.45-1.52l-.1-.36q-.23-.75-.48-1.5l-.12-.36-.06-.2 7.82-5.67 5.86-4.24a57.38 57.38 0 0 0-7.38-15l-6.94 2-9.27 2.72-.06-.09-.21-.32c-.3-.43-.59-.87-.9-1.3l-.22-.31-.93-1.28-.2-.26-.42-.56-.43-.56-.2-.26-1-1.24-.24-.29-1-1.22-.24-.29-.07-.08 5.15-8.15 3.87-6.13A57.56 57.56 0 0 0 1988 642l-5.7 4.48-7.57 6-.17-.12-.32-.21-1.31-.87-.32-.21-1.33-.84-.32-.2-.35-.22-.84-.5-.15-.09-.16-.09-.83-.48-.37-.21-.33-.18-1.39-.76-.34-.18-1.39-.72-.34-.17-.18-.09 1.52-9.54 1.14-7.14a57.69 57.69 0 0 0-15.85-5.41l-3.47 6.35-4.63 8.4h-.1l-.38-.07-1.55-.28-.37-.06-1.57-.25h-.32l-.69-.1-.7-.09h-.32l-1.58-.19h-.37l-1.57-.15h-.49l-2.13-9.4-1.6-7.07a57.55 57.55 0 0 0-16.73.87l-.86 7.2-1.14 9.57h-.19l-.37.07-1.55.31-.36.08-1.55.35-.36.09-.41.1-.94.24h-.34l-.94.25-.41.12-.36.1-1.52.45-.36.11-1.49.48-.37.12-.19.06-5.67-7.82-4.24-5.85a57.37 57.37 0 0 0-15 7.38l2 6.94 2.72 9.26-.09.06-.31.21c-.44.29-.87.59-1.3.9l-.31.21-1.29.93-.26.19-.56.42-.56.43-.25.19-1.26 1-.29.23-1.23 1-.28.23-.08.07-8.15-5.15-6.13-3.87a57.55 57.55 0 0 0-11.28 12.38l4.48 5.7 6 7.57-.12.17-.21.31c-.29.43-.59.87-.87 1.31l-.2.31-.85 1.34-.19.31-.22.36-.5.83-.08.14-.09.15-.48.84-.21.37-.18.32-.76 1.39-.17.33c-.25.46-.49.93-.72 1.4l-.17.34-.1.18-9.53-1.52-7.14-1.14a57.28 57.28 0 0 0-5.41 15.85l6.34 3.47 8.48 4.63v.11l-.07.36c-.1.52-.2 1-.29 1.56l-.06.36c-.09.52-.18 1-.25 1.58v.32c0 .11-.07.46-.1.7l-.09.7v.31c-.07.53-.13 1.06-.19 1.59v.36c-.06.53-.11 1.05-.15 1.58v.48l-9.4 2.13-7.07 1.6a57.56 57.56 0 0 0 .87 16.73l7.2.86 9.57 1.14v.19c0 .13 0 .26.07.38.1.51.2 1 .31 1.53 0 .12.05.25.08.37.11.51.23 1 .35 1.53 0 .12.06.25.09.37l.1.42c.08.31.16.62.24.94V744.75l.25.94.11.4.1.35c.14.51.29 1 .45 1.52l.1.35.48 1.5.12.35c0 .07 0 .13.06.2l-7.82 5.67-5.85 4.24a57.5 57.5 0 0 0 7.38 15l6.94-2 9.26-2.72.06.09.21.31c.3.44.59.87.9 1.3l.22.31.93 1.29.19.26.42.57.43.56.19.25c.32.42.66.84 1 1.26l.23.28c.33.41.68.82 1 1.23l.23.28.07.08-5.15 8.15-3.87 6.13a57.57 57.57 0 0 0 12.44 11.21l5.7-4.48 7.57-6 .17.12.31.21 1.31.87.32.2 1.34.85.32.19.36.22.83.5.15.08.15.09.84.48.36.21.31.18 1.4.77.32.17 1.41.73.33.16.19.1-1.52 9.53-1.14 7.14a57.29 57.29 0 0 0 15.85 5.41l3.47-6.34 4.63-8.48h.11l.37.07 1.56.29.36.06 1.58.25h.32l.7.1.69.09h.31l1.59.19h.36l1.58.15h.48l2.13 9.4 1.6 7.07a57.56 57.56 0 0 0 16.73-.87l.86-7.2 1.14-9.57h.2l.38-.07 1.53-.31.38-.08 1.53-.35.37-.09.42-.1.94-.24H1947.93l.93-.25.41-.11.34-.1 1.53-.45.34-.1 1.51-.48.35-.12.2-.06 5.67 7.82 4.24 5.86a57.8 57.8 0 0 0 15-7.38l-2-6.94-2.72-9.26.09-.06.32-.22 1.29-.89.31-.22 1.28-.92.26-.2.56-.42.56-.43.25-.2 1.25-1 .29-.23 1.22-1 .29-.25.08-.07 8.15 5.15 6.13 3.87a57.55 57.55 0 0 0 11.2-12.15l-4.48-5.7-6-7.57.11-.16.22-.33.86-1.3.21-.33.83-1.32.2-.33.23-.37.49-.82.09-.15.09-.15.48-.84.21-.36.18-.32c.26-.46.51-.93.76-1.39l.17-.33.72-1.4.17-.33.09-.19 9.53 1.52 7.15 1.14a57.69 57.69 0 0 0 5.41-15.85l-6.35-3.47-8.48-4.63a.76.76 0 0 0 0-.1l.08-.38c.1-.51.2-1 .28-1.55l.07-.38c.09-.52.17-1 .25-1.56v-.33c0-.11.07-.46.1-.7l.09-.69v-.32c.07-.53.13-1.06.19-1.58v-.37l.15-1.57V730l9.4-2.13 7.07-1.6a57.54 57.54 0 0 0-.87-16.73l-7.2-.86Zm-37.88 13.22a46.53 46.53 0 1 1-48.87-44.06 46.53 46.53 0 0 1 48.87 44.07Z" transform="translate(-182.4 -119.34)"></path><path fill="#1a1c2e" d="M1806.85 766.43s-43.62 13.37-35.4 41 50.3-15.94 50.3-15.94 4.82-34.49-14.9-25.06Z" transform="translate(-182.4 -119.34)"></path><path fill="#ff9f9c" d="M1856.94 1476.62c-20.16 57.84-38.58 117-55.86 177.15H1659c10.89-73.62 25.2-147.75 46.14-223.65q76.22 22.18 151.8 46.5Z" transform="translate(-182.4 -119.34)"></path><path fill="#ff9f9c" d="M1941 1653.77h-142c-17.28-60.15-35.7-119.31-55.86-177.15q75.42-24.48 151.77-46.5c20.86 75.88 35.17 150.03 46.09 223.65Z" transform="translate(-182.4 -119.34)"></path><path fill="#292b3b" d="M1937.13 1608.14c-45.34-2.75-118.9-29-164.83-19.63-3.53.78-7.36 1.37-11.48 1.86v-98.22l-12.76 99.39c-29.93 2.06-68.36-.27-82.49-5 24.93-137.3 67.87-382.95 74.84-515 2.75-52.9 20.12-81 38.86-95.39a73.77 73.77 0 0 1 13.73-8.25c31.7-16.19 63.1-17.27 87.54-3.83 20 10.8 35.43 31.21 42.79 60.85 5.5 22 4 39.45 1.77 68.8-10.4 139.55-6.62 352.2 12.03 514.42Z" transform="translate(-182.4 -119.34)"></path><path fill="#fff" d="m1779.28 976.19 2.68 89.08 3.29 111.85 46.49-104 48.83-109.08c-24.5-13.42-55.84-12.38-87.52 3.81a71.06 71.06 0 0 0-13.77 8.34ZM1873.8 877.85c-30.61 47.06-88.21 63.89-117 45.18s-17.8-65.87 12.85-112.93 69.5-55.85 98.26-37.14 36.5 57.82 5.89 104.89Z" transform="translate(-182.4 -119.34)"></path><path fill="#fff" d="m1867 870.05-58.68-5.73c-.79 8-6.94 84.55-4 113.38 2.15 8.88 16.79 13 32.68 9.1 14.29-3.47 24.64-12.16 25-20.33h.07c-1.72-17.3 2.18-68.34 4.93-96.42Z" transform="translate(-182.4 -119.34)"></path><path fill="#1a1c2e" d="M1845.13 894c-8.65-9.36-16.79-.93-37.61 10.76s-58 8.67-60.63-40.05c-1.09-20.62-9.18-5.16-14.49 7.56-3.9 9.33-6.18 19.4-5.37 29.48 1.25 15.59 8.33 26.34 21.13 34.66 19.16 12.46 47.61 13.35 75.48 2.54 14.81-5.74 25.54-19.79 24.65-35.65-.22-3.93-1.19-7.21-3.16-9.3Z" transform="translate(-182.4 -119.34)"></path><path fill="#1a1c2e" d="m1745.3 862.85 2 1.06c10.25 5.55 56.75 31.65 61.46 50.88 5.3 21.63-25-8.36-34.17-22.22s-20.26-12-30.22-14.92-14.51-15.36.93-14.8ZM1900.13 852.32s9.66-36.62-6.83-62.85-63.17-53.92-100.13-18.59c0 0-24 27.5 11.66 53.59s40 2.13 48.24 31.38 32.89 24.5 34 30.79Z" transform="translate(-182.4 -119.34)"></path><path fill="#ffb0ad" d="m1599.56 945.93 3.29 111.85 46.49-103.97-1.82-67.88H1627l-27.44 60z"></path><path fill="#fff" d="M1887.81 904.56c-7.13 11-27.11 17.89-35 12.73s-4.14-15.33 3-26.29 20.22-17 28.15-11.86 10.97 14.47 3.85 25.42ZM1987.18 1536.91s-68.8 73.22-94 71.19 32.38-79.12 90.8-95.72Z" transform="translate(-182.4 -119.34)"></path><path fill="#292b3b" d="M1992.42 1551.74c-11.86-11.58-24.85-23.08-37.61-35.2 187.12-175.75 248.61-350.13-61.14-443.07-47.38-14.22-49-26-26-58.35-6-6.16-6.1-6.07 0 0 23-32.3 34.94-25.41 78.32-3.17 283.61 145.36 283.78 342.76 46.43 539.79Z" transform="translate(-182.4 -119.34)"></path><path fill="#fff" d="M1600.28 1513.11s56.64 83 81.87 84.88-19.74-83.18-74.89-108.62Z" transform="translate(-182.4 -119.34)"></path><path fill="#292b3b" d="m1772 989.58-6.38 80c-.39.1-.88.1-1.28.2-320.43 43.87-286.67 225.62-129 428.28-14.53 9.91-29.15 19.33-42.59 29-204-231.41-173.32-426.42 129.45-526.13 23.73-7.93 38.55-13.02 49.8-11.35Z" transform="translate(-182.4 -119.34)"></path><path fill="#3b3e54" d="M1571.48 558.06h13.21v155.58h-13.21z" transform="rotate(-49.83 1358.51 772.512)"></path><path fill="#3ac5c9" d="M1586.81 595.7h21.17v112.9h-21.17z" transform="rotate(-49.83 1377.83 788.815)"></path><path fill="#3b3e54" d="M1394.73 481.09a83.33 83.33 0 1 0 117.43-9.93 83.33 83.33 0 0 0-117.43 9.93Zm121.62 102.66a75.82 75.82 0 1 1-9-106.85 75.82 75.82 0 0 1 9 106.84Z" transform="translate(-182.4 -119.34)"></path><circle cx="1458.41" cy="534.84" r="75.82" fill="#fff" opacity=".4" transform="rotate(-49.83 1238.836 671.5)"></circle><path fill="#ffd3d1" d="m1702.79 298.88-81.54 28.38 34.29 98.54 98.54-34.3-28.38-81.53-22.91-11.09z"></path><path fill="#ffb6b3" d="m1708.7 315.88 17-5.91-22.91-11.09 5.91 17z"></path><path fill="#fff" d="M1842.69 451.35h54.75v54.75h-54.75z" transform="rotate(-19.19 1425.99 958.58)"></path><path fill="none" stroke="#56b1da" stroke-linecap="round" stroke-linejoin="round" stroke-width="10" d="m1669.66 357.13 20.48 9.91M1700.38 346.44l-9.91 20.48"></path><path fill="#6be0e3" d="M1793.05 366.9h-86.34v104.34h104.34V384.9l-18-18z"></path><path fill="#3ac5c9" d="M1793.05 384.9h18l-18-18v18z"></path><path fill="#fff" d="M1731.51 391.7h54.75v54.75h-54.75z"></path><path fill="none" stroke="#ff7975" stroke-linecap="round" stroke-linejoin="round" stroke-width="10" d="m1748.23 408.42 21.3 21.3M1769.53 408.42l-21.3 21.3"></path><path fill="#c5c8e6" d="M1919.98 325.85h-86.33v104.33h104.33v-86.33l-18-18z"></path><path fill="#9fa2c4" d="M1919.98 343.85h18l-18-18v18zM1847.72 350.81h76.18v5.97h-76.18zM1847.72 361.46h76.18v5.97h-76.18zM1847.72 372.11h76.18v5.97h-76.18zM1847.72 382.75h76.18v5.97h-76.18zM1847.72 393.4h76.18v5.97h-76.18zM1847.72 404.05h56.96v5.97h-56.96z"></path><path fill="#fff" d="M2028.68 626.61a29.93 29.93 0 0 0 29.93-29.93 29.93 29.93 0 0 0 29.93 29.93 29.93 29.93 0 0 0-29.93 29.93 29.93 29.93 0 0 0-29.93-29.93ZM2011.67 398.29a16.7 16.7 0 0 0 16.7-16.7 16.7 16.7 0 0 0 16.7 16.7 16.7 16.7 0 0 0-16.7 16.7 16.7 16.7 0 0 0-16.7-16.7ZM1718.27 744.72A16.7 16.7 0 0 0 1735 728a16.7 16.7 0 0 0 16.7 16.7 16.7 16.7 0 0 0-16.7 16.7 16.7 16.7 0 0 0-16.73-16.68Z" transform="translate(-182.4 -119.34)"></path><path fill="#ffd3d1" d="M698.62 1590.61a174.64 174.64 0 0 0-167.87 126.56h335.74a174.64 174.64 0 0 0-167.87-126.56ZM1156.61 1590.61a174.64 174.64 0 0 0-167.88 126.56h335.75a174.64 174.64 0 0 0-167.87-126.56Z" transform="translate(-182.4 -119.34)"></path><path fill="#ffd3d1" d="M938.41 1536.4c-113.93 0-210 76.41-239.79 180.77h479.58c-29.79-104.37-125.86-180.77-239.79-180.77Z" transform="translate(-182.4 -119.34)"></path><path fill="#fff" d="M2148.26 1068.24a16.7 16.7 0 0 0 16.7-16.7 16.7 16.7 0 0 0 16.7 16.7 16.7 16.7 0 0 0-16.7 16.7 16.7 16.7 0 0 0-16.7-16.7ZM588.58 1112.68a16.7 16.7 0 0 0 16.7-16.7 16.7 16.7 0 0 0 16.7 16.7 16.7 16.7 0 0 0-16.7 16.7 16.7 16.7 0 0 0-16.7-16.7ZM2409.49 704.9a16.7 16.7 0 0 0 16.7-16.7 16.7 16.7 0 0 0 16.7 16.7 16.7 16.7 0 0 0-16.7 16.7 16.7 16.7 0 0 0-16.7-16.7ZM514 1560.26a16.7 16.7 0 0 0 16.7-16.7 16.7 16.7 0 0 0 16.7 16.7 16.7 16.7 0 0 0-16.7 16.7 16.7 16.7 0 0 0-16.7-16.7ZM3140 1504.64a16.7 16.7 0 0 0 16.7-16.7 16.7 16.7 0 0 0 16.7 16.7 16.7 16.7 0 0 0-16.7 16.7 16.7 16.7 0 0 0-16.7-16.7ZM1543.54 491.45a16.7 16.7 0 0 0 16.7-16.7 16.7 16.7 0 0 0 16.7 16.7 16.7 16.7 0 0 0-16.7 16.7 16.7 16.7 0 0 0-16.7-16.7Z" transform="translate(-182.4 -119.34)"></path><path fill="#7fc9eb" d="M2231.45 1650a117.22 117.22 0 0 0-112.68 85h225.37a117.22 117.22 0 0 0-112.69-85ZM2538.87 1650a117.22 117.22 0 0 0-112.68 85h225.37a117.22 117.22 0 0 0-112.69-85Z" transform="translate(-182.4 -119.34)"></path><path fill="#7fc9eb" d="M2392.41 1613.6a167.44 167.44 0 0 0-161 121.34h321.91a167.44 167.44 0 0 0-160.91-121.34Z" transform="translate(-182.4 -119.34)"></path></svg>