<svg width="520" height="365" viewBox="0 0 520 365" fill="none" xmlns="http://www.w3.org/2000/svg">
<path d="M220.275 70.1713C202.999 7.49708 125.151 -12.69 80.5278 34.1471C79.8871 34.8215 79.2464 35.5072 78.6057 36.204C14.6389 105.735 44.8632 277.077 178.35 320.509C311.836 363.94 450.684 284.63 458.484 213.74C466.285 142.849 404.701 120.571 309.127 140.399C255.13 151.594 231.031 109.185 220.275 70.1713Z" fill="#D8EFFA"/>
<path d="M331.315 80.8943C313.454 83.8054 308.509 99.6201 322.3 110.849C326.864 114.558 333.372 117.638 342.645 119.178C377.972 125.034 396.72 109.41 382.558 89.1444C373.813 76.6343 349.018 78.0056 331.315 80.8943Z" fill="#D8EFFA"/>
<path d="M54.9118 208.963C46.1446 193.137 29.5768 193.823 23.6646 210.593C21.7088 216.134 21.012 223.305 22.698 232.556C29.116 267.782 50.1573 280.146 64.4433 259.981C73.2667 247.527 63.6003 224.654 54.9118 208.963Z" fill="#D8EFFA"/>
<path d="M471.084 221.979C469.443 230.589 476.547 236.692 484.606 233.376C487.27 232.275 489.956 230.161 492.35 226.441C501.455 212.279 496.846 200.128 484.167 201.376C476.344 202.14 472.714 213.436 471.084 221.979Z" fill="#D8EFFA"/>
<path d="M425.933 131.081C434.52 132.868 440.736 125.865 437.555 117.75C436.499 115.064 434.43 112.344 430.755 109.893C416.75 100.553 404.521 104.948 405.555 117.649C406.184 125.483 417.424 129.305 425.933 131.081Z" fill="#D8EFFA"/>
<path d="M217.296 38.9129C224.096 44.4542 232.841 41.0935 233.751 32.4274C234.055 29.5612 233.47 26.1892 231.335 22.3227C223.197 7.57577 210.316 5.8673 205.393 17.6131C202.336 24.8629 210.552 33.4165 217.296 38.9129Z" fill="#D8EFFA"/>
<path d="M489.102 348.226C492.047 348.721 495.126 347.889 497.183 345.72C498.521 344.304 499.431 342.561 499.431 340.887C499.431 340.864 499.431 340.842 499.431 340.819C499.398 328.804 514.156 329.602 518.888 314.911C523.631 300.22 504.905 298.984 494.205 308.055C486.517 314.574 477.289 305.469 466.105 313.068C456.393 319.666 461.8 335.919 445.884 330.838C440.803 329.208 436.251 330.782 432.407 333.659C427.99 336.975 425.101 341.629 423.91 346.687L425.18 347.586C456.573 366.84 470.713 345.158 489.102 348.226Z" fill="#43AADD"/>
<path d="M457.989 347.586L499.622 320.868C500.184 320.509 500.342 319.767 499.982 319.216C499.622 318.654 498.881 318.497 498.33 318.856L453.561 347.597H457.989V347.586Z" fill="#1C98D6"/>
<path d="M455.741 268.085C453.988 241.896 453.696 214.426 455.64 196.217C458.192 172.422 463.947 155.865 472.759 146.997C473.343 146.412 474.299 146.401 474.883 146.986C475.468 147.57 475.479 148.525 474.894 149.11C459.484 164.621 453.943 206.254 458.832 269.614L455.741 268.085Z" fill="#0A4562"/>
<path d="M459.687 175.198C459.687 175.198 447.143 175.175 448.031 153.111C448.031 153.122 467.229 158.596 459.687 175.198Z" fill="#43AADD"/>
<path d="M458.63 186.55C458.63 186.55 457.956 174.018 480.031 173.692C480.031 173.692 475.625 193.159 458.63 186.55Z" fill="#43AADD"/>
<path d="M468.229 155.607C468.229 155.607 463.407 144.018 484.111 136.341C484.111 136.341 486.46 156.169 468.229 155.607Z" fill="#43AADD"/>
<path d="M455.809 209.322C455.809 209.322 443.996 213.549 437.375 192.485C437.375 192.474 457.304 191.136 455.809 209.322Z" fill="#43AADD"/>
<path d="M456.494 221.046C456.494 221.046 453.662 208.817 475.344 204.68C475.344 204.669 474.377 224.62 456.494 221.046Z" fill="#43AADD"/>
<path d="M455.831 237.186C455.831 237.186 444.097 241.637 437.083 220.697C437.083 220.697 456.967 218.989 455.831 237.186Z" fill="#43AADD"/>
<path d="M91.6778 326.466L88.2609 326.331L86.4512 326.263L81.3146 326.061C81.3146 326.061 33.8368 245.459 63.5778 219.18C72.7384 211.087 88.7442 217.797 85.2036 254.991C81.9215 289.452 91.6778 326.466 91.6778 326.466Z" fill="#43AADD"/>
<path d="M88.2608 326.331L86.4512 326.263C78.1673 306.74 73.9748 285.754 71.9066 271.03C69.4451 253.552 69.3214 240.851 69.3214 240.727C69.3214 240.277 69.6811 239.906 70.1307 239.906C70.5803 239.906 70.9512 240.266 70.9625 240.716C70.9625 240.839 71.0749 253.451 73.5364 270.828C75.6158 285.62 79.8421 306.773 88.2608 326.331Z" fill="#559BBE"/>
<path d="M101.108 342.606L96.4661 344.326L94.0045 345.237L87.0245 347.822C87.0245 347.822 -21.3179 266.579 3.7698 214.886C11.5029 198.993 36.6243 199.038 52.6188 250.697C67.4444 298.591 101.108 342.606 101.108 342.606Z" fill="#43AADD"/>
<path d="M96.4661 344.337L94.0045 345.248C72.0528 323.768 54.7657 298.074 43.7842 279.55C30.7458 257.565 23.5185 240.66 23.4511 240.491C23.1925 239.884 23.4735 239.187 24.0805 238.94C24.6875 238.681 25.3843 238.962 25.6429 239.569C25.7103 239.738 32.8927 256.519 45.8524 278.381C56.8901 296.983 74.3233 322.891 96.4661 344.337Z" fill="#559BBE"/>
<path d="M471.466 347.204C471.41 345.326 471.196 343.438 470.781 341.561C466.88 323.734 477.48 320.362 491.451 314.731C505.422 309.1 507.086 292.375 497.183 278.471C487.292 264.567 505.063 253.395 498.521 232.466C491.979 211.548 469.241 225.463 464.261 244.751C460.687 258.621 442.512 255.62 435.779 273.604C429.934 289.216 449.526 303.637 426.9 310.797C419.672 313.079 415.671 318.631 413.58 325.117C411.175 332.592 411.647 340.347 414.39 347.192H471.466V347.204Z" fill="#43AADD"/>
<path d="M443.782 347.204L481.054 255.182C481.402 254.305 480.987 253.316 480.11 252.967C479.233 252.619 478.244 253.035 477.896 253.912L440.107 347.215H443.782V347.204Z" fill="#1F98D5"/>
<path d="M133.187 68.9911C133.187 68.9911 133.974 52.4233 123.892 49.2424C108.201 44.2856 103.828 52.4233 101.412 57.8073C98.3094 64.6974 99.6357 78.2191 108.987 79.523C122.97 81.4675 132.322 73.622 133.187 68.9911Z" fill="#403657"/>
<path d="M143.292 124.393C151.452 124.393 158.488 118.683 160.163 110.691C161.366 104.948 162.546 99.8561 162.546 96.9899V96.9113C162.625 96.0121 162.658 95.1016 162.67 94.2137C162.782 81.1415 154.712 57.2678 126.364 61.0557C126.364 61.0557 102.839 63.742 100.164 86.7278C100.164 86.7278 99.0513 97.3271 98.3094 105.015C98.2982 105.15 98.287 105.285 98.2645 105.42C97.2304 115.57 105.211 124.382 115.417 124.382H143.292V124.393Z" fill="#403657"/>
<path d="M176.956 151.718C176.956 151.718 181.969 191.428 187.69 211.818C187.69 211.818 195.828 208.03 206.472 202.882C218.015 197.307 234.617 187.124 234.617 187.124L238.809 197.228C238.809 197.228 195.929 237.692 181.733 239.985C167.525 242.278 158.826 191.428 158.826 191.428L176.956 151.718Z" fill="#43AADD"/>
<path d="M233.74 188.315C233.74 188.315 232.56 182.672 235.089 178.851C237.618 175.029 241.462 167.881 245.969 166.397C249.746 165.149 244.171 171.522 244.013 175.569C244.013 175.569 249.633 174.861 253.68 173.546C257.243 172.388 264.29 170.949 267.561 170.297C268.46 170.117 269.034 171.253 268.348 171.848C267.235 172.815 264.897 174.029 260.087 175.187C260.087 175.187 271.832 172.961 273.046 174.759C274.26 176.558 259.536 179.064 259.536 179.064C259.536 179.064 270.967 178.39 271.271 180.177C271.45 181.267 259.603 183.774 259.603 183.774C259.603 183.774 270.416 184.066 267.797 185.775C267.033 186.269 246.115 188.63 238.832 197.228C238.809 197.239 233.909 192.17 233.74 188.315Z" fill="#FFA681"/>
<path d="M104.66 143.894C104.66 143.894 80.6738 150.964 60.0147 155.629C60.0147 155.629 59.4752 146.671 58.9357 134.857C58.3512 122.044 59.4078 102.61 59.4078 102.61L48.5274 103.723C48.5274 103.723 33.331 160.687 38.0743 174.265C42.8175 187.843 103.019 168.825 103.019 168.825L104.66 143.894Z" fill="#43AADD"/>
<path d="M58.7783 103.947C58.7783 103.947 64.2971 102.295 66.4552 98.26C68.6133 94.2248 74.5705 86.0983 70.895 83.086C69.5575 81.9845 68.5796 86.784 65.1064 88.8521C65.1064 88.8521 63.0495 83.5806 62.2852 79.3881C61.6108 75.7013 59.5201 68.8112 58.531 65.6303C58.2613 64.7536 56.9911 64.7873 56.8001 65.6753C56.4853 67.114 56.5191 69.7441 57.7892 74.5324C57.7892 74.5324 54.1587 63.1463 52.0006 62.9327C49.8425 62.7191 54.642 76.8703 54.642 76.8703C54.642 76.8703 49.7975 66.4958 48.0778 67.0803C47.0325 67.4399 50.4607 79.0508 50.4607 79.0508C50.4607 79.0508 45.0655 69.6767 44.807 72.7902C44.7283 73.7006 52.6188 93.2245 48.5162 103.723C48.5162 103.723 55.3051 105.633 58.7783 103.947Z" fill="#FFA681"/>
<path d="M176.056 305.582L176.248 306.425C157.567 319.07 87.7101 310.438 87.7101 310.438C87.8337 308.976 87.9911 307.436 88.1934 305.852C88.407 304.087 88.6767 302.255 88.9914 300.367C89.8344 295.286 90.9697 289.778 92.2398 284.125C92.6445 282.349 93.0603 280.539 93.4874 278.718C94.7463 273.312 96.0951 267.838 97.3652 262.51C97.8036 260.678 98.2307 258.868 98.6578 257.07C99.2423 254.575 99.7931 252.113 100.321 249.742C101.007 246.572 101.625 243.537 102.142 240.671C102.491 238.749 102.794 236.894 103.019 235.141C103.289 233.286 103.469 231.533 103.581 229.903C102.468 225.8 101.434 221.776 100.467 217.876C99.9842 215.887 99.5121 213.953 99.0512 212.031C97.6125 205.883 96.3537 200.038 95.2521 194.564C94.8587 192.575 94.4766 190.642 94.1281 188.753C92.903 182.29 91.9251 176.445 91.127 171.354C90.8236 169.319 90.5313 167.42 90.284 165.633C90.003 163.677 89.767 161.867 89.5534 160.215C88.6205 152.988 88.2946 148.885 88.2946 148.885C88.4632 148.75 88.6318 148.626 88.8116 148.503C90.936 146.997 94.2405 145.58 97.9272 144.322C101.816 142.984 106.11 141.826 109.898 140.916C110.471 140.781 111.033 140.646 111.584 140.511C116.563 139.342 120.284 138.668 120.284 138.668C137.222 142.22 142.055 139.938 142.055 139.938L150.665 142.478L151.677 142.838L157.949 145.041L158.207 145.131L169.459 149.087L176.967 151.717L174.033 165.161L172.763 171.028L168.93 188.72L167.671 194.564L163.85 212.189L162.591 217.977L159.433 232.578L160.062 235.366L161.298 240.783L163.254 249.393L165.03 257.182L166.255 262.578L169.942 278.808L171.167 284.17L174.82 300.22L176.056 305.582Z" fill="#43AADD"/>
<path d="M151.666 142.827C149.867 153.415 144.731 164.07 134.053 165.217C121.16 166.611 114.473 150.436 111.561 140.5C116.541 139.331 121.7 138.196 121.7 138.196C138.639 141.748 141.909 139.578 141.909 139.578L150.643 142.456L151.666 142.827Z" fill="#FFA681"/>
<path d="M132.737 156.326C119.227 156.326 115.99 139.634 115.956 139.466C115.889 139.106 116.125 138.758 116.496 138.69C116.855 138.623 117.204 138.859 117.271 139.219C117.395 139.893 120.463 155.64 133.524 154.966C144.955 154.393 145.63 141.703 145.652 141.163C145.664 140.792 145.978 140.511 146.349 140.522C146.72 140.534 147.001 140.848 146.99 141.219C146.979 141.365 146.248 155.663 133.603 156.303C133.3 156.315 133.018 156.326 132.737 156.326Z" fill="white"/>
<path d="M108.493 151.718C108.493 153.538 107.02 155.011 105.2 155.011C103.379 155.011 101.906 153.538 101.906 151.718C101.906 149.897 103.379 148.424 105.2 148.424C107.02 148.424 108.493 149.897 108.493 151.718Z" fill="#1B89BF"/>
<path d="M101.884 167.813C101.884 169.634 100.411 171.107 98.5904 171.107C96.7696 171.107 95.2971 169.634 95.2971 167.813C95.2971 165.992 96.7696 164.52 98.5904 164.52C100.411 164.52 101.884 165.992 101.884 167.813Z" fill="#1B89BF"/>
<path d="M122.947 175.423C122.947 177.244 121.475 178.716 119.654 178.716C117.833 178.716 116.361 177.244 116.361 175.423C116.361 173.602 117.833 172.129 119.654 172.129C121.475 172.129 122.947 173.602 122.947 175.423Z" fill="#1B89BF"/>
<path d="M108.257 184.426C108.931 186.123 108.111 188.034 106.413 188.708C104.716 189.383 102.805 188.562 102.131 186.865C101.457 185.168 102.277 183.257 103.974 182.583C105.66 181.908 107.582 182.729 108.257 184.426Z" fill="#1B89BF"/>
<path d="M136.851 190.518C136.851 192.339 135.379 193.811 133.558 193.811C131.737 193.811 130.265 192.339 130.265 190.518C130.265 188.697 131.737 187.225 133.558 187.225C135.379 187.213 136.851 188.697 136.851 190.518Z" fill="#1B89BF"/>
<path d="M157.893 197.318C157.893 199.139 156.42 200.612 154.599 200.612C152.778 200.612 151.306 199.139 151.306 197.318C151.306 195.497 152.778 194.025 154.599 194.025C156.42 194.014 157.893 195.497 157.893 197.318Z" fill="#1B89BF"/>
<path d="M162.13 155.022C162.13 156.843 160.658 158.315 158.837 158.315C157.016 158.315 155.543 156.843 155.543 155.022C155.543 153.201 157.016 151.729 158.837 151.729C160.646 151.718 162.13 153.201 162.13 155.022Z" fill="#1B89BF"/>
<path d="M138.189 211.582C138.189 213.403 136.716 214.875 134.896 214.875C133.075 214.875 131.602 213.403 131.602 211.582C131.602 209.761 133.075 208.288 134.896 208.288C136.716 208.288 138.189 209.761 138.189 211.582Z" fill="#1B89BF"/>
<path d="M117.867 221.81C117.867 223.631 116.395 225.103 114.574 225.103C112.753 225.103 111.28 223.631 111.28 221.81C111.28 219.989 112.753 218.517 114.574 218.517C116.395 218.517 117.867 219.989 117.867 221.81Z" fill="#1B89BF"/>
<path d="M115.495 203.185C115.495 205.006 114.023 206.479 112.202 206.479C110.381 206.479 108.909 205.006 108.909 203.185C108.909 201.365 110.381 199.892 112.202 199.892C114.023 199.881 115.495 201.365 115.495 203.185Z" fill="#1B89BF"/>
<path d="M148.001 176.288C148.001 178.109 146.529 179.581 144.697 179.581C142.876 179.581 141.404 178.109 141.404 176.288C141.404 174.467 142.876 172.995 144.697 172.995C146.518 172.995 148.001 174.467 148.001 176.288Z" fill="#1B89BF"/>
<path d="M166.233 172.129C166.233 173.95 164.76 175.423 162.939 175.423C161.119 175.423 159.646 173.95 159.646 172.129C159.646 170.309 161.119 168.836 162.939 168.836C164.76 168.836 166.233 170.309 166.233 172.129Z" fill="#1B89BF"/>
<path d="M154.599 217.044C154.599 218.865 153.127 220.338 151.306 220.338C149.485 220.338 148.013 218.865 148.013 217.044C148.013 215.224 149.485 213.74 151.306 213.74C153.116 213.74 154.599 215.224 154.599 217.044Z" fill="#1B89BF"/>
<path d="M155.476 243.144C155.476 244.965 154.004 246.437 152.183 246.437C150.362 246.437 148.889 244.965 148.889 243.144C148.889 241.323 150.362 239.85 152.183 239.85C154.004 239.839 155.476 241.323 155.476 243.144Z" fill="#1B89BF"/>
<path d="M138.695 232.252C139.369 233.949 138.549 235.86 136.851 236.535C135.154 237.209 133.243 236.388 132.569 234.691C131.895 232.994 132.715 231.083 134.412 230.409C136.098 229.734 138.02 230.555 138.695 232.252Z" fill="#1B89BF"/>
<path d="M116.237 241.919C116.912 243.616 116.091 245.527 114.394 246.201C112.697 246.875 110.786 246.055 110.111 244.358C109.437 242.66 110.258 240.75 111.955 240.075C113.641 239.401 115.563 240.221 116.237 241.919Z" fill="#1B89BF"/>
<path d="M183.048 347.181L182.362 343.079L179.698 327.129L178.788 321.666L176.248 306.436L171.628 306.638L110.381 309.415L87.6989 310.438L86.2489 322.296L85.5633 327.815L83.5513 344.18L83.1804 347.181H183.048Z" fill="#9C78ED"/>
<path d="M183.037 347.181L182.407 343.472L182.351 343.078L181.913 340.46L181.474 337.863L179.676 327.129L179.159 323.959L178.765 321.678L178.709 321.34L176.394 307.436L176.236 306.447L176.034 305.593L175.854 304.84L174.82 300.243L172.763 291.251L172.168 288.677L171.156 284.181L169.931 278.797L169.099 275.11L168.503 272.536L166.244 262.589L165.412 258.947L165.019 257.182L164.839 256.373L163.254 249.382C138.358 256.733 111.989 252.372 100.288 249.742C99.7707 252.102 99.1974 254.575 98.6242 257.07C98.4893 257.621 98.3657 258.16 98.2308 258.711C98.0285 259.565 97.8149 260.431 97.6126 261.285C97.5339 261.701 97.4327 262.094 97.3316 262.51C96.3649 266.59 95.3533 270.749 94.3642 274.874C94.1619 275.728 93.9708 276.594 93.7685 277.426C93.6673 277.864 93.5662 278.28 93.4538 278.729C93.0379 280.55 92.622 282.371 92.2061 284.136C91.6891 286.496 91.1945 288.812 90.7225 291.105C90.5426 291.959 90.3628 292.791 90.2054 293.622C89.7333 295.938 89.3175 298.197 88.9578 300.378C88.6431 302.277 88.3845 304.098 88.1822 305.885C88.1035 306.436 88.0473 306.976 87.9687 307.493C87.89 308.381 87.7888 309.235 87.7101 310.089C87.7101 310.224 87.6877 310.325 87.6877 310.449L86.2377 322.296L86.0017 324.139L85.6869 326.713L85.5521 327.803L83.9447 340.774L83.63 343.371L83.5289 344.202L83.1692 347.192H183.037V347.181Z" fill="#403657"/>
<path d="M152.913 98.5073C152.913 98.5073 156.96 93.3818 159.972 97.6193C162.984 101.857 158.725 114.389 151.351 111.332L152.913 98.5073Z" fill="#F97853"/>
<path d="M152.97 107.466C153.239 107.466 153.487 107.297 153.565 107.038C154.712 103.172 158.927 101.598 158.972 101.587C159.298 101.475 159.455 101.126 159.331 100.823C159.208 100.519 158.848 100.362 158.533 100.474C158.331 100.542 153.689 102.261 152.374 106.713C152.284 107.027 152.475 107.353 152.801 107.443C152.857 107.454 152.913 107.466 152.97 107.466Z" fill="#EA5143"/>
<path d="M157.23 105.51C157.342 105.51 157.466 105.476 157.567 105.42C157.859 105.24 157.938 104.88 157.758 104.599C157.724 104.554 156.982 103.475 155.42 102.812C155.105 102.677 154.734 102.812 154.599 103.116C154.453 103.419 154.599 103.768 154.914 103.902C156.117 104.419 156.712 105.251 156.712 105.251C156.825 105.42 157.016 105.51 157.23 105.51Z" fill="#EA5143"/>
<path d="M151.092 111.253C150.396 112.029 149.968 113.052 149.968 114.176C149.968 116.592 151.935 118.571 154.363 118.571C156.78 118.571 158.758 116.604 158.758 114.176C158.758 112.782 158.106 111.534 157.083 110.736C156.578 110.332 155.971 110.04 155.319 109.893C155.206 109.601 155.263 109.32 155.476 109.062C156.319 109.241 157.083 109.624 157.713 110.163C158.871 111.119 159.601 112.569 159.601 114.176C159.601 117.065 157.252 119.414 154.363 119.414C151.475 119.414 149.125 117.065 149.125 114.176C149.125 112.928 149.564 111.793 150.294 110.894C150.553 111.017 150.823 111.13 151.092 111.253Z" fill="white"/>
<path d="M121.7 124.719V140.095C121.7 140.095 128.848 145.603 134.412 146.086C139.976 146.57 141.909 140.005 141.909 140.005V125.697L121.7 124.719Z" fill="#FFA681"/>
<path d="M121.7 126.225V132.362C125.443 136.51 132.074 137.982 141.909 136.532V127.203L121.7 126.225Z" fill="#F97853"/>
<path d="M155.352 104.352C155.173 105.836 154.97 107.342 154.7 108.848C152.936 118.841 146.608 129.642 138.627 131.452C121.385 135.363 114.225 121.819 111.471 111.838C111.168 110.725 111.741 109.455 111.494 108.14C110.921 105.027 109.662 101.486 109.381 98.0016C109.178 95.585 109.044 93.2021 108.942 91.044C108.661 84.9744 112.18 79.3881 117.676 77.2076C125.6 74.0604 137.638 71.5651 149.036 78.2417C153.251 80.7145 155.892 85.2779 155.982 90.2909C156.049 94.1238 155.959 99.1143 155.352 104.352Z" fill="#FFA681"/>
<path d="M133.491 112.085C133.165 112.085 132.884 111.849 132.827 111.523C132.771 111.164 133.007 110.815 133.378 110.748L135.682 110.366L132.513 101.924C132.378 101.576 132.558 101.194 132.906 101.059C133.255 100.935 133.637 101.104 133.772 101.452L137.514 111.411L133.614 112.063C133.558 112.085 133.524 112.085 133.491 112.085Z" fill="#F97853"/>
<path d="M141.741 100.924C141.741 102.396 142.505 103.599 143.438 103.599C144.371 103.599 145.135 102.408 145.135 100.924C145.135 99.4515 144.371 98.2488 143.438 98.2488C142.494 98.2488 141.741 99.4515 141.741 100.924Z" fill="#403657"/>
<path d="M122.97 100.924C122.97 102.396 123.734 103.599 124.667 103.599C125.6 103.599 126.364 102.408 126.364 100.924C126.364 99.4515 125.6 98.2488 124.667 98.2488C123.734 98.2488 122.97 99.4515 122.97 100.924Z" fill="#403657"/>
<path d="M148.429 93.9214C147.068 93.6516 144.303 93.2133 141.359 93.3144C140.583 93.3369 139.965 93.9214 140.077 94.5396V94.5508C140.167 95.0454 140.684 95.3713 141.302 95.3264C143.303 95.1803 148.552 95.2028 150.991 95.9334C151.059 95.5849 150.823 95.2028 150.474 94.8768C149.957 94.3822 149.227 94.0675 148.429 93.9214Z" fill="#403657"/>
<path d="M121.127 94.2361C122.487 93.9551 125.24 93.4718 128.185 93.5392C128.961 93.5505 129.59 94.1349 129.489 94.7531V94.7644C129.41 95.2589 128.893 95.5961 128.264 95.5624C126.252 95.4388 121.014 95.5399 118.586 96.3043C118.519 95.9558 118.744 95.5736 119.081 95.2364C119.598 94.7306 120.328 94.4047 121.127 94.2361Z" fill="#403657"/>
<path d="M141.741 116.075C141.246 118.425 139.594 122.741 134.041 122.741C128.466 122.741 126.904 118.796 126.376 116.075H141.741Z" fill="white"/>
<path d="M134.109 126.776C135.716 126.776 137.132 125.91 137.189 125.877C137.492 125.686 137.593 125.281 137.402 124.978C137.211 124.674 136.806 124.573 136.503 124.764C136.492 124.775 135.334 125.472 134.109 125.472C132.782 125.472 131.602 124.775 131.591 124.764C131.276 124.573 130.872 124.674 130.692 124.989C130.501 125.303 130.602 125.697 130.917 125.888C130.973 125.91 132.412 126.776 134.109 126.776Z" fill="#F97853"/>
<path d="M156.049 102.779C155.892 102.913 155.735 102.868 155.588 102.599C153.307 98.586 155.454 90.5719 148.71 87.5034C143.573 85.1655 141.73 80.3547 141.73 80.3547C140.561 82.3667 137.503 84.2101 137.503 84.2101C137.503 84.2101 129.748 88.8072 121.7 91.9095C119.306 92.8311 117.597 93.7641 116.406 94.5733C116.496 94.5958 116.552 94.6183 116.552 94.6183C116.552 94.6183 114.326 98.2376 115.956 103.869C117.586 109.5 115.484 118.784 111.865 120.931C111.932 120.774 114.652 114.356 113.112 109.107C112.225 106.106 112.236 101.317 111.393 98.4624C110.46 97.8217 108.313 96.7427 107.594 96.3155C107.391 93.854 107.234 91.4261 107.133 89.2231C106.841 83.0299 110.55 77.3424 116.338 75.1169C124.69 71.9023 137.38 69.362 149.395 76.1735C153.835 78.6912 156.623 83.3446 156.724 88.4475C156.791 92.3478 156.69 97.4508 156.049 102.779Z" fill="#403657"/>
<path d="M111.393 98.4624C111.393 98.4624 106.683 92.7525 103.907 96.8663C101.131 100.991 105.233 113.614 112.033 110.647L111.393 98.4624Z" fill="#FFA681"/>
<path d="M111.584 110.86C112.067 111.782 112.236 112.872 111.966 113.962C111.381 116.311 108.987 117.739 106.638 117.154C104.289 116.57 102.862 114.176 103.446 111.827C103.783 110.478 104.716 109.433 105.896 108.893C106.492 108.623 107.144 108.488 107.818 108.5C107.931 108.252 107.998 107.971 107.863 107.657C107.009 107.634 106.166 107.814 105.424 108.174C104.075 108.826 103.008 110.051 102.626 111.613C101.929 114.412 103.637 117.256 106.436 117.964C109.235 118.661 112.078 116.952 112.786 114.153C113.09 112.951 112.933 111.737 112.449 110.691C112.157 110.748 111.865 110.804 111.584 110.86Z" fill="white"/>
<path d="M110.37 106.432C110.123 106.432 109.887 106.263 109.819 106.016C108.763 102.262 104.874 100.733 104.829 100.722C104.536 100.609 104.379 100.272 104.491 99.9798C104.604 99.6876 104.93 99.5303 105.233 99.6427C105.413 99.7101 109.707 101.374 110.921 105.701C111.011 106.004 110.831 106.319 110.527 106.409C110.471 106.42 110.426 106.432 110.37 106.432Z" fill="#F97853"/>
<path d="M106.447 104.532C106.346 104.532 106.234 104.498 106.132 104.442C105.863 104.273 105.784 103.914 105.964 103.644C105.998 103.599 106.683 102.554 108.122 101.902C108.414 101.767 108.751 101.902 108.886 102.194C109.021 102.486 108.886 102.824 108.594 102.958C107.481 103.453 106.942 104.262 106.93 104.273C106.818 104.442 106.627 104.532 106.447 104.532Z" fill="#F97853"/>
<path d="M360.786 222.518C349.827 230.386 332.686 235.782 332.686 235.782L329.179 223.159L326.436 213.313L324.503 206.366L304.856 206.355C305.923 210.042 307.014 213.796 308.126 217.505C309.543 222.282 310.959 226.958 312.296 231.274C314.196 237.344 315.938 242.683 317.354 246.505C317.68 247.392 318.063 248.359 318.501 249.393C321.131 256.486 323.244 264.185 333.27 259.352C342.094 255.103 354.064 249.213 360.044 245.302L360.786 222.518Z" fill="#FFA681"/>
<path d="M308.126 217.505C309.543 222.282 310.959 226.958 312.308 231.274C320.333 230.42 325.874 226.452 329.179 223.159L326.436 213.313L308.126 217.505Z" fill="#F97853"/>
<path d="M303.956 148.593C303.956 148.593 324.458 197.476 333.27 213.313C333.27 213.313 320.918 223.811 308.88 224.103C308.88 224.103 301.944 170.432 303.956 148.593Z" fill="#43AADD"/>
<path d="M255.973 347.215C256.175 343.798 256.377 340.538 256.546 337.515C257.277 325.173 257.738 316.754 257.738 316.754L252.904 316.541L250.184 316.417L217.33 314.956C217.33 314.956 216.734 324.375 216.026 338.212C215.88 341.044 215.734 344.056 215.588 347.215H255.973Z" fill="#7EDBF8"/>
<path d="M252.904 316.552L257.738 316.766C257.738 316.766 257.265 325.184 256.546 337.526C243.924 338.583 230.143 339.01 216.026 338.223C216.734 324.386 217.33 314.967 217.33 314.967L250.184 316.428L252.904 316.552Z" fill="#43AADD"/>
<path d="M251.185 347.215C251.949 334.03 252.567 322.745 252.916 316.541L250.195 316.417C249.858 322.644 249.229 333.985 248.464 347.215H251.185Z" fill="#43AADD"/>
<path d="M266.561 347.215H306.946C306.8 344.056 306.643 341.044 306.508 338.212C305.8 324.375 305.204 314.956 305.204 314.956L272.35 316.417L269.629 316.541L264.796 316.754C264.796 316.754 265.268 325.173 265.988 337.515C266.156 340.538 266.347 343.798 266.561 347.215Z" fill="#9C78ED"/>
<path d="M269.618 316.552L264.785 316.766C264.785 316.766 265.257 325.184 265.976 337.526C278.599 338.583 292.379 339.01 306.497 338.223C305.789 324.386 305.193 314.967 305.193 314.967L272.338 316.428L269.618 316.552Z" fill="#43AADD"/>
<path d="M274.069 347.215C273.305 333.985 272.676 322.644 272.338 316.417L269.618 316.541C269.955 322.745 270.585 334.03 271.349 347.215H274.069Z" fill="#43AADD"/>
<path d="M210.192 291.543C210.192 292.218 210.192 292.892 210.192 293.544C210.204 305.559 210.271 314.866 210.327 319.441C221.927 322.588 233.538 324.611 245.149 325.555C245.677 325.6 246.194 325.634 246.722 325.679C247.003 325.702 247.284 325.724 247.565 325.735C248.184 325.78 248.813 325.814 249.431 325.848C250.128 325.893 250.814 325.926 251.511 325.96C259.412 326.331 267.303 326.185 275.204 325.533C276.801 325.398 278.385 325.241 279.981 325.072C280.083 325.061 280.184 325.05 280.285 325.038C280.69 324.993 281.094 324.948 281.51 324.892C281.757 324.859 282.005 324.836 282.252 324.802C291.435 323.701 300.629 321.914 309.824 319.43C309.846 317.35 309.857 314.27 309.857 310.393C309.857 309.673 309.857 308.931 309.857 308.156C309.857 302.603 309.812 295.691 309.756 287.89C309.756 287.227 309.745 286.553 309.745 285.867C309.7 280.663 309.644 275.099 309.576 269.288C309.565 268.614 309.565 267.939 309.554 267.265C309.475 261.308 309.385 255.126 309.284 248.842C309.217 245.01 309.149 241.132 309.071 237.265C308.992 233.342 308.902 229.408 308.812 225.508C308.79 224.654 308.767 223.811 308.745 222.957C307.845 186.033 306.283 152.088 303.709 148.301C301.922 145.682 297.842 142.602 293.02 139.5C292.435 139.129 291.828 138.747 291.221 138.364C289.176 137.083 272.439 131.396 270.315 130.148L252.635 128.912C252.522 128.979 235.617 134.678 235.505 134.734C234.774 135.15 234.044 135.566 233.313 135.993C227.052 139.601 220.87 143.411 217.318 146.693C216.801 147.165 216.329 147.637 215.936 148.087C215.621 148.447 215.34 148.795 215.115 149.144C214.902 149.458 214.7 149.975 214.497 150.695C212.362 158.473 211.238 189.023 210.676 222.271C210.631 224.654 210.597 227.048 210.563 229.453C210.552 230.51 210.53 231.567 210.518 232.623C210.507 233.354 210.496 234.084 210.485 234.804C210.485 235.175 210.473 235.534 210.473 235.894C210.451 237.704 210.428 239.502 210.417 241.3C210.406 242.627 210.383 243.953 210.372 245.279C210.237 262.027 210.181 278.291 210.192 291.543Z" fill="#43AADD"/>
<path d="M178.574 339.021C178.136 343.742 183.891 341.179 182.261 331.614C180.642 322.049 185.251 313.394 187.229 313.663C189.219 313.944 185.588 324.105 187.353 327.77C189.117 331.434 191.399 324.319 193.67 320.003C196.03 315.518 195.884 305.739 194.816 298.759C193.748 291.779 206.393 249.371 206.461 237.085L208.001 231.881L213.643 212.807L222.478 182.942C222.478 182.942 217.184 160.339 208.259 162.283C208.259 162.283 203.538 178.03 198.48 195.79C197.626 198.802 196.761 201.882 195.906 204.939C192.31 217.809 188.926 230.521 187.353 238.063C183.205 257.981 182.879 299.366 182.879 299.366C182.879 299.366 175.551 314.574 175.382 321.34C175.213 328.557 179.001 334.3 178.574 339.021Z" fill="#FFA681"/>
<path d="M195.918 204.939L208.012 231.881L213.654 212.807L198.492 195.778C197.637 198.791 196.772 201.87 195.918 204.939Z" fill="#F97853"/>
<path d="M195.322 196.914C200.627 206.007 206.022 215.055 211.395 224.114C213.16 218.191 215.003 212.503 216.723 207.266C216.723 207.254 216.734 207.243 216.734 207.221C217.42 205.13 218.094 203.118 218.735 201.185C218.746 201.151 218.757 201.117 218.768 201.084C218.993 200.409 219.207 199.735 219.432 199.083C221.994 191.327 223.984 185.168 224.557 181.571C226.086 171.893 221.916 152.954 216.026 149.211C215.868 149.548 215.408 148.503 215.127 149.144C214.093 151.526 209.507 157.427 207.236 163.171C206.944 163.902 206.652 164.666 206.337 165.442C203.055 173.894 199.042 184.876 195.322 196.914Z" fill="#43AADD"/>
<path d="M260.705 146.603C268.359 146.603 273.766 139.612 273.991 139.32C274.316 138.893 274.249 138.274 273.856 137.926C273.462 137.578 272.878 137.645 272.552 138.072C272.484 138.162 267.46 144.625 260.705 144.625C254.028 144.625 249.959 137.308 249.926 137.24C249.667 136.768 249.105 136.611 248.667 136.881C248.228 137.15 248.071 137.757 248.33 138.23C248.509 138.567 252.961 146.603 260.705 146.603Z" fill="#1280B7"/>
<path d="M293.087 213.549C293.233 213.549 293.368 213.515 293.503 213.436C293.964 213.189 294.144 212.593 293.919 212.099L290.581 205.04C290.345 204.546 289.783 204.354 289.333 204.602C288.872 204.849 288.693 205.445 288.917 205.939L292.256 212.998C292.413 213.346 292.75 213.549 293.087 213.549Z" fill="#1280B7"/>
<path d="M300.045 207.76C300.169 207.839 300.303 207.895 300.45 207.906C300.967 207.951 301.416 207.547 301.461 206.996L302.113 199.117C302.158 198.566 301.776 198.083 301.27 198.038C300.753 197.993 300.303 198.397 300.258 198.937L299.607 206.816C299.573 207.221 299.753 207.569 300.045 207.76Z" fill="#1280B7"/>
<path d="M282.106 195.553C282.555 195.553 282.949 195.205 283.027 194.722L284.23 186.921C284.309 186.382 283.972 185.865 283.466 185.775C282.96 185.685 282.477 186.056 282.398 186.595L281.195 194.396C281.117 194.935 281.454 195.452 281.96 195.542C282.005 195.542 282.05 195.553 282.106 195.553Z" fill="#1280B7"/>
<path d="M252.106 198.453C252.264 198.453 252.432 198.408 252.578 198.319C253.017 198.038 253.163 197.431 252.904 196.959L249.139 190.147C248.88 189.675 248.307 189.518 247.858 189.799C247.419 190.08 247.273 190.687 247.532 191.159L251.297 197.97C251.477 198.274 251.78 198.453 252.106 198.453Z" fill="#1280B7"/>
<path d="M288.962 167.948C289.131 167.948 289.311 167.892 289.468 167.791L295.673 163.497C296.1 163.194 296.223 162.587 295.954 162.114C295.673 161.654 295.099 161.519 294.661 161.822L288.456 166.116C288.029 166.419 287.906 167.026 288.175 167.498C288.355 167.791 288.659 167.948 288.962 167.948Z" fill="#1280B7"/>
<path d="M261.289 231.353C261.435 231.353 261.57 231.319 261.705 231.24C262.166 230.993 262.346 230.397 262.121 229.903L258.783 222.844C258.547 222.35 257.996 222.159 257.535 222.406C257.074 222.653 256.895 223.249 257.119 223.743L260.458 230.802C260.626 231.162 260.952 231.353 261.289 231.353Z" fill="#1280B7"/>
<path d="M275.969 173.253C276.284 173.253 276.587 173.085 276.756 172.781C277.025 172.309 276.902 171.702 276.463 171.41L270.191 167.217C269.753 166.925 269.18 167.071 268.91 167.532C268.64 168.004 268.764 168.611 269.202 168.903L275.474 173.096C275.632 173.208 275.8 173.253 275.969 173.253Z" fill="#1280B7"/>
<path d="M290.873 143.906C290.862 144.097 290.896 144.288 290.974 144.445C291.12 144.737 291.401 144.94 291.727 144.973C292.244 145.018 292.683 144.603 292.716 144.052L293.009 139.511C292.424 139.14 291.828 138.758 291.21 138.376L290.873 143.906Z" fill="#1280B7"/>
<path d="M299.236 187.213C299.55 187.213 299.854 187.045 300.022 186.741C300.292 186.269 300.169 185.662 299.73 185.37L293.458 181.178C293.02 180.885 292.447 181.031 292.177 181.492C291.907 181.964 292.031 182.571 292.469 182.864L298.741 187.056C298.898 187.168 299.067 187.213 299.236 187.213Z" fill="#1280B7"/>
<path d="M249.24 152.774C249.42 152.774 249.588 152.718 249.757 152.605C250.184 152.302 250.308 151.684 250.027 151.223L246.453 145.423C246.172 144.962 245.587 144.839 245.16 145.142C244.733 145.446 244.609 146.064 244.89 146.525L248.464 152.324C248.644 152.617 248.937 152.774 249.24 152.774Z" fill="#1280B7"/>
<path d="M246.037 253.001C246.284 253.001 246.531 252.9 246.711 252.698L251.836 246.988C252.196 246.594 252.185 245.965 251.814 245.583C251.443 245.201 250.847 245.212 250.499 245.616L245.373 251.326C245.014 251.72 245.025 252.349 245.396 252.731C245.576 252.911 245.801 253.001 246.037 253.001Z" fill="#1280B7"/>
<path d="M264.864 251.81C265.111 251.81 265.358 251.709 265.538 251.506L270.664 245.796C271.023 245.403 271.012 244.774 270.641 244.391C270.27 244.009 269.686 244.02 269.326 244.425L264.201 250.135C263.841 250.528 263.852 251.158 264.223 251.54C264.392 251.72 264.628 251.81 264.864 251.81Z" fill="#1280B7"/>
<path d="M278.397 290.385C278.487 290.138 278.475 289.857 278.363 289.61L275.171 282.472C274.946 281.978 274.395 281.764 273.923 282C273.462 282.236 273.26 282.832 273.485 283.327L276.677 290.464C276.902 290.959 277.452 291.172 277.925 290.936C278.149 290.812 278.307 290.61 278.397 290.385Z" fill="#1280B7"/>
<path d="M224.377 313.911C224.467 313.663 224.456 313.382 224.344 313.135L221.151 305.998C220.927 305.503 220.376 305.29 219.904 305.526C219.443 305.762 219.241 306.357 219.465 306.852L222.658 313.989C222.882 314.484 223.433 314.698 223.905 314.461C224.13 314.349 224.299 314.147 224.377 313.911Z" fill="#1280B7"/>
<path d="M247.577 325.724C248.206 325.769 248.824 325.803 249.442 325.836L250.094 321.397C250.173 320.857 249.825 320.34 249.319 320.261C248.813 320.183 248.33 320.554 248.251 321.093L247.577 325.724Z" fill="#1280B7"/>
<path d="M240.136 312.303C240.338 312.157 240.484 311.921 240.518 311.64L241.664 303.828C241.743 303.289 241.395 302.772 240.889 302.693C240.383 302.603 239.9 302.974 239.821 303.525L238.674 311.337C238.596 311.876 238.944 312.393 239.45 312.472C239.709 312.506 239.945 312.438 240.136 312.303Z" fill="#1280B7"/>
<path d="M285.107 246.954C285.264 246.954 285.422 246.909 285.568 246.819C286.017 246.549 286.163 245.931 285.905 245.459L282.196 238.614C281.937 238.142 281.364 237.973 280.926 238.254C280.476 238.535 280.33 239.142 280.588 239.614L284.298 246.459C284.466 246.785 284.781 246.954 285.107 246.954Z" fill="#1280B7"/>
<path d="M274.227 229.847C274.564 229.847 274.89 229.644 275.058 229.307L278.453 222.282C278.689 221.788 278.509 221.192 278.048 220.945C277.587 220.686 277.025 220.888 276.789 221.372L273.395 228.397C273.159 228.891 273.339 229.487 273.799 229.734C273.934 229.813 274.08 229.847 274.227 229.847Z" fill="#1280B7"/>
<path d="M303.687 228.813C303.788 228.936 303.911 229.026 304.035 229.094C304.35 229.229 304.721 229.184 305.002 228.936L308.812 225.508C308.79 224.654 308.778 223.811 308.756 222.957L303.799 227.408C303.406 227.767 303.349 228.397 303.687 228.813Z" fill="#1280B7"/>
<path d="M274.272 155.269C274.609 155.269 274.935 155.078 275.103 154.73L278.498 147.705C278.734 147.21 278.554 146.615 278.093 146.367C277.632 146.12 277.07 146.311 276.834 146.794L273.44 153.819C273.204 154.314 273.384 154.91 273.844 155.157C273.979 155.236 274.125 155.269 274.272 155.269Z" fill="#1280B7"/>
<path d="M252.545 181.02C252.601 181.02 252.657 181.009 252.725 180.998C253.23 180.897 253.556 180.368 253.466 179.829L252.061 172.062C251.96 171.522 251.477 171.163 250.971 171.275C250.465 171.376 250.139 171.905 250.229 172.444L251.634 180.211C251.713 180.694 252.106 181.02 252.545 181.02Z" fill="#1280B7"/>
<path d="M264.639 187.843C264.695 187.843 264.751 187.832 264.819 187.82C265.325 187.719 265.651 187.191 265.561 186.651L264.156 178.885C264.054 178.345 263.571 177.997 263.065 178.098C262.56 178.199 262.234 178.727 262.323 179.267L263.728 187.034C263.807 187.506 264.201 187.843 264.639 187.843Z" fill="#1280B7"/>
<path d="M255.973 162.216C256.276 162.216 256.58 162.047 256.76 161.755L260.727 155.078C261.008 154.617 260.873 153.999 260.435 153.707C259.997 153.415 259.423 153.55 259.154 154.011L255.186 160.687C254.905 161.148 255.04 161.766 255.478 162.058C255.624 162.171 255.804 162.216 255.973 162.216Z" fill="#1280B7"/>
<path d="M292.334 231.083C292.593 230.791 292.66 230.353 292.492 229.97L289.311 222.833C289.086 222.338 288.535 222.125 288.063 222.361C287.602 222.597 287.4 223.193 287.625 223.687L290.806 230.825C291.03 231.319 291.581 231.533 292.053 231.297C292.154 231.24 292.256 231.173 292.334 231.083Z" fill="#1280B7"/>
<path d="M268.348 210.368C268.719 210.368 269.067 210.132 269.214 209.738L271.911 202.376C272.102 201.859 271.866 201.286 271.383 201.084C270.9 200.881 270.36 201.14 270.18 201.646L267.483 209.008C267.292 209.525 267.528 210.098 268.011 210.3C268.123 210.345 268.236 210.368 268.348 210.368Z" fill="#1280B7"/>
<path d="M238.742 255.867C238.888 255.867 239.023 255.834 239.158 255.755C239.619 255.508 239.798 254.912 239.574 254.417L236.235 247.359C235.999 246.864 235.437 246.673 234.988 246.92C234.527 247.168 234.347 247.763 234.572 248.258L237.91 255.317C238.067 255.665 238.405 255.867 238.742 255.867Z" fill="#1280B7"/>
<path d="M287.816 306.593C287.816 306.74 287.85 306.897 287.917 307.043C288.153 307.526 288.715 307.717 289.176 307.47L295.74 303.828C296.201 303.581 296.381 302.974 296.133 302.48C295.897 301.996 295.335 301.805 294.875 302.052L288.31 305.694C287.996 305.874 287.816 306.223 287.816 306.593Z" fill="#1280B7"/>
<path d="M305.642 311.112C305.642 311.269 305.676 311.415 305.744 311.562C305.98 312.056 306.542 312.236 307.002 311.989L309.857 310.404C309.857 309.685 309.857 308.943 309.857 308.167L306.148 310.213C305.822 310.393 305.642 310.752 305.642 311.112Z" fill="#1280B7"/>
<path d="M278.048 319.913L280.296 325.038C280.701 324.993 281.106 324.948 281.521 324.892C281.769 324.859 282.016 324.836 282.252 324.802L279.734 319.059C279.521 318.564 278.959 318.339 278.498 318.575C278.037 318.823 277.835 319.407 278.048 319.913Z" fill="#1280B7"/>
<path d="M226.625 237.872C227.075 237.872 227.468 237.524 227.547 237.04L228.75 229.24C228.828 228.7 228.491 228.183 227.985 228.093C227.479 228.003 226.996 228.374 226.917 228.914L225.715 236.714C225.636 237.254 225.973 237.771 226.479 237.861C226.524 237.861 226.569 237.872 226.625 237.872Z" fill="#1280B7"/>
<path d="M225.85 180.29C226.007 180.29 226.176 180.245 226.322 180.155C226.76 179.874 226.906 179.267 226.648 178.795L222.882 171.983C222.624 171.511 222.051 171.354 221.601 171.635C221.163 171.916 221.017 172.523 221.275 172.995L225.04 179.806C225.22 180.11 225.535 180.29 225.85 180.29Z" fill="#1280B7"/>
<path d="M237.966 207.951C238.135 207.951 238.315 207.895 238.472 207.794L244.677 203.5C245.104 203.197 245.227 202.59 244.958 202.118C244.677 201.657 244.103 201.522 243.665 201.825L237.449 206.119C237.022 206.423 236.899 207.03 237.168 207.502C237.359 207.794 237.663 207.951 237.966 207.951Z" fill="#1280B7"/>
<path d="M303.72 254.35C303.867 254.35 304.001 254.316 304.136 254.238C304.597 253.99 304.777 253.395 304.552 252.9L301.214 245.841C300.978 245.347 300.427 245.156 299.966 245.403C299.505 245.65 299.326 246.246 299.55 246.74L302.889 253.799C303.046 254.148 303.372 254.35 303.72 254.35Z" fill="#1280B7"/>
<path d="M227.378 218.674C227.693 218.674 227.997 218.506 228.165 218.202C228.435 217.73 228.3 217.123 227.873 216.831L221.601 212.638C221.163 212.346 220.589 212.492 220.32 212.953C220.05 213.425 220.173 214.032 220.612 214.324L226.884 218.517C227.041 218.618 227.21 218.674 227.378 218.674Z" fill="#1280B7"/>
<path d="M242.417 228.655C242.642 228.88 242.968 228.981 243.294 228.891C243.789 228.745 244.081 228.194 243.946 227.666L242.001 220.034C241.867 219.506 241.35 219.191 240.855 219.337C240.36 219.483 240.068 220.034 240.203 220.562L242.148 228.194C242.193 228.374 242.282 228.532 242.417 228.655Z" fill="#1280B7"/>
<path d="M215.958 148.087L217.577 150.717C217.757 150.998 218.049 151.167 218.353 151.167C218.532 151.167 218.701 151.122 218.858 150.998C219.286 150.695 219.409 150.076 219.128 149.616L217.33 146.693C216.813 147.177 216.352 147.637 215.958 148.087Z" fill="#1280B7"/>
<path d="M208.866 165.442L210.586 168.24C210.766 168.533 211.058 168.69 211.361 168.69C211.541 168.69 211.71 168.634 211.878 168.521C212.305 168.218 212.429 167.6 212.137 167.139L209.698 163.171C209.428 163.902 209.158 164.666 208.866 165.442Z" fill="#1280B7"/>
<path d="M289.468 278.988C289.715 278.988 289.963 278.887 290.142 278.685L295.268 272.975C295.628 272.581 295.616 271.952 295.245 271.57C294.874 271.188 294.279 271.199 293.93 271.603L288.805 277.313C288.445 277.707 288.456 278.336 288.827 278.718C289.007 278.898 289.243 278.988 289.468 278.988Z" fill="#1280B7"/>
<path d="M255.388 298.939C255.636 298.939 255.883 298.838 256.063 298.636L261.188 292.926C261.548 292.532 261.537 291.903 261.166 291.521C260.795 291.138 260.199 291.15 259.851 291.554L254.725 297.264C254.365 297.658 254.377 298.287 254.748 298.669C254.927 298.849 255.164 298.939 255.388 298.939Z" fill="#1280B7"/>
<path d="M245.924 291.015C246.082 290.812 246.16 290.543 246.127 290.262L245.205 282.416C245.138 281.865 244.677 281.483 244.16 281.551C243.654 281.618 243.283 282.113 243.35 282.663L244.272 290.509C244.339 291.06 244.8 291.442 245.317 291.374C245.565 291.341 245.778 291.206 245.924 291.015Z" fill="#1280B7"/>
<path d="M265.336 313.135C265.583 313.135 265.83 313.034 266.01 312.832L271.136 307.122C271.495 306.728 271.484 306.099 271.113 305.717C270.742 305.335 270.147 305.346 269.798 305.751L264.673 311.46C264.313 311.854 264.324 312.483 264.695 312.865C264.864 313.045 265.1 313.135 265.336 313.135Z" fill="#1280B7"/>
<path d="M210.192 291.543C210.192 292.217 210.192 292.892 210.192 293.544L215.97 294.061C216.487 294.106 216.936 293.701 216.981 293.15C217.026 292.6 216.644 292.128 216.127 292.071L210.192 291.543Z" fill="#1280B7"/>
<path d="M277.902 266.995C278.149 266.995 278.397 266.894 278.577 266.691L283.702 260.982C284.062 260.588 284.05 259.959 283.679 259.577C283.309 259.194 282.724 259.206 282.364 259.61L277.239 265.32C276.879 265.714 276.891 266.343 277.261 266.725C277.441 266.905 277.677 266.995 277.902 266.995Z" fill="#1280B7"/>
<path d="M253.264 264.511C253.275 264.77 253.388 265.028 253.59 265.208L259.255 270.3C259.648 270.659 260.233 270.603 260.57 270.176C260.896 269.749 260.851 269.131 260.458 268.771L254.793 263.679C254.399 263.32 253.815 263.376 253.478 263.803C253.32 264.016 253.242 264.264 253.264 264.511Z" fill="#1280B7"/>
<path d="M226.288 292.51C226.445 292.51 226.603 292.465 226.749 292.375C227.198 292.094 227.345 291.487 227.086 291.015L223.377 284.17C223.118 283.698 222.545 283.529 222.107 283.81C221.657 284.091 221.511 284.698 221.769 285.17L225.479 292.015C225.659 292.341 225.973 292.51 226.288 292.51Z" fill="#1280B7"/>
<path d="M219.881 272.165C220.218 272.165 220.544 271.974 220.713 271.626L224.107 264.601C224.344 264.106 224.164 263.511 223.703 263.263C223.242 263.005 222.68 263.207 222.444 263.69L219.049 270.715C218.813 271.21 218.993 271.806 219.454 272.053C219.589 272.132 219.735 272.165 219.881 272.165Z" fill="#1280B7"/>
<path d="M229.997 192.35C230.334 192.35 230.66 192.148 230.829 191.811L234.223 184.786C234.459 184.291 234.28 183.695 233.819 183.448C233.358 183.201 232.796 183.392 232.56 183.875L229.165 190.9C228.929 191.395 229.109 191.99 229.57 192.238C229.705 192.316 229.851 192.35 229.997 192.35Z" fill="#1280B7"/>
<path d="M226.288 162.856C226.344 162.856 226.4 162.845 226.468 162.834C226.974 162.733 227.3 162.204 227.21 161.665L225.805 153.898C225.704 153.359 225.22 153.01 224.714 153.111C224.209 153.212 223.883 153.741 223.973 154.28L225.378 162.047C225.456 162.519 225.85 162.856 226.288 162.856Z" fill="#1280B7"/>
<path d="M209.259 189.653C209.316 189.653 209.372 189.641 209.439 189.63C209.945 189.529 210.271 189.001 210.181 188.461L208.776 180.694C208.675 180.155 208.192 179.806 207.686 179.907C207.18 180.009 206.854 180.537 206.944 181.076L208.349 188.843C208.428 189.327 208.821 189.653 209.259 189.653Z" fill="#1280B7"/>
<path d="M238.393 169.668C238.45 169.668 238.506 169.657 238.573 169.645C239.079 169.544 239.405 169.016 239.315 168.476L237.91 160.71C237.809 160.17 237.326 159.822 236.82 159.923C236.314 160.024 235.988 160.552 236.078 161.092L237.483 168.859C237.562 169.342 237.955 169.668 238.393 169.668Z" fill="#1280B7"/>
<path d="M232.841 142.624C233.021 142.669 233.201 142.658 233.358 142.591C233.65 142.478 233.886 142.22 233.954 141.883L235.516 134.745C234.785 135.161 234.055 135.577 233.324 136.004L232.133 141.422C232.02 141.961 232.335 142.489 232.841 142.624Z" fill="#1280B7"/>
<path d="M211.519 201.657C211.822 201.657 212.126 201.488 212.306 201.196L216.273 194.519C216.554 194.059 216.419 193.44 215.981 193.148C215.543 192.856 214.969 192.991 214.7 193.452L210.732 200.128C210.451 200.589 210.586 201.207 211.024 201.499C211.17 201.612 211.339 201.657 211.519 201.657Z" fill="#1280B7"/>
<path d="M237.978 273.402C238.236 273.109 238.304 272.671 238.135 272.289L234.954 265.152C234.729 264.657 234.178 264.443 233.706 264.679C233.245 264.916 233.043 265.511 233.268 266.006L236.449 273.143C236.674 273.638 237.224 273.851 237.697 273.615C237.809 273.559 237.91 273.492 237.978 273.402Z" fill="#1280B7"/>
<path d="M303.529 286.811L309.756 287.89C309.756 287.227 309.745 286.553 309.734 285.867L303.833 284.844C303.327 284.765 302.844 285.125 302.765 285.665C302.686 286.215 303.023 286.732 303.529 286.811Z" fill="#1280B7"/>
<path d="M305.429 268.58L309.576 269.299C309.565 268.625 309.565 267.95 309.554 267.276L305.732 266.613C305.227 266.523 304.743 266.894 304.665 267.433C304.575 267.984 304.923 268.49 305.429 268.58Z" fill="#1280B7"/>
<path d="M214.003 252.686C214.374 252.686 214.722 252.45 214.868 252.057L217.566 244.695C217.757 244.178 217.521 243.605 217.037 243.402C216.554 243.2 216.015 243.458 215.835 243.964L213.137 251.326C212.946 251.843 213.182 252.417 213.665 252.619C213.778 252.664 213.89 252.686 214.003 252.686Z" fill="#1280B7"/>
<path d="M210.586 229.453C212.339 222.226 214.531 214.189 216.711 207.266C216.711 207.254 216.723 207.243 216.723 207.221C217.397 205.085 218.072 203.051 218.723 201.185C218.735 201.151 218.746 201.117 218.757 201.084C218.959 200.499 219.162 199.926 219.375 199.375C219.409 199.274 219.42 199.184 219.42 199.083C219.42 198.757 219.218 198.442 218.881 198.319C218.454 198.161 217.982 198.386 217.824 198.813C215.587 204.905 212.946 213.672 210.687 222.271C210.653 224.654 210.619 227.048 210.586 229.453Z" fill="#1280B7"/>
<path d="M237.303 89.8526C237.303 89.8526 230.818 82.7039 233.268 74.3751C235.718 66.0575 242.417 66.1474 242.417 66.1474C242.417 66.1474 246.329 57.3015 252.983 57.0093C259.637 56.7171 265.92 44.8926 271.979 48.1072C278.037 51.3219 271.327 58.3244 271.327 58.3244C271.327 58.3244 281.701 47.3766 285.129 50.5913C288.546 53.8059 280.375 62.4157 280.375 62.4157C280.375 62.4157 289.097 56.2899 291.963 58.6166C294.83 60.9545 285.129 71.0256 285.129 71.0256C285.129 71.0256 291.401 82.333 285.084 87.4135L237.303 89.8526Z" fill="#403657"/>
<path d="M282.645 92.2467C282.645 92.2467 286.793 86.7167 289.884 91.2913C292.975 95.866 288.603 109.377 281.049 106.083L282.645 92.2467Z" fill="#F97853"/>
<path d="M282.702 101.902C282.983 101.902 283.241 101.722 283.32 101.441C284.489 97.271 288.816 95.5737 288.861 95.5625C289.187 95.4389 289.356 95.0679 289.232 94.742C289.108 94.416 288.738 94.2474 288.412 94.3711C288.209 94.4497 283.443 96.2931 282.095 101.104C282.005 101.441 282.196 101.801 282.533 101.891C282.589 101.891 282.645 101.902 282.702 101.902Z" fill="#EA5143"/>
<path d="M287.063 99.8C287.186 99.8 287.299 99.7663 287.411 99.6988C287.703 99.5078 287.793 99.1144 287.602 98.8109C287.569 98.7659 286.804 97.597 285.208 96.8776C284.882 96.7315 284.511 96.8776 284.365 97.2036C284.219 97.5295 284.365 97.9004 284.691 98.0466C285.928 98.5973 286.534 99.4965 286.534 99.5078C286.647 99.6989 286.849 99.8 287.063 99.8Z" fill="#EA5143"/>
<path d="M239.877 92.2467C239.877 92.2467 235.73 86.7167 232.639 91.2913C229.548 95.866 233.92 109.377 241.473 106.083L239.877 92.2467Z" fill="#F97853"/>
<path d="M239.821 101.902C239.54 101.902 239.281 101.722 239.203 101.441C238.034 97.271 233.706 95.5737 233.661 95.5625C233.335 95.4389 233.167 95.0679 233.29 94.742C233.414 94.416 233.785 94.2474 234.111 94.3711C234.313 94.4497 239.079 96.2931 240.428 101.104C240.518 101.441 240.327 101.801 239.99 101.891C239.945 101.891 239.888 101.902 239.821 101.902Z" fill="#EA5143"/>
<path d="M235.46 99.8C235.336 99.8 235.224 99.7663 235.111 99.6988C234.819 99.5078 234.729 99.1144 234.92 98.8109C234.954 98.7659 235.718 97.597 237.314 96.8776C237.64 96.7315 238.011 96.8776 238.157 97.2036C238.304 97.5295 238.157 97.9004 237.832 98.0466C236.595 98.5973 235.988 99.4965 235.988 99.5078C235.876 99.6989 235.673 99.8 235.46 99.8Z" fill="#EA5143"/>
<path d="M251.05 117.537V130.98C251.05 130.98 255.062 137.825 260.48 138.286C265.898 138.758 270.708 132.396 270.708 132.396V118.481L251.05 117.537Z" fill="#FFA681"/>
<path d="M251.05 117.537V123.505C254.691 127.54 261.143 128.552 270.708 127.136V118.481L251.05 117.537Z" fill="#F97853"/>
<path d="M236.887 83.0299C237.135 88.2565 237.629 94.7869 238.63 100.002V100.014C238.63 100.025 238.63 100.047 238.641 100.059C238.641 100.059 238.641 100.059 238.641 100.07C238.888 101.34 239.158 102.543 239.461 103.622C239.641 104.251 239.832 104.914 240.057 105.589C243.238 115.581 250.623 130.047 269.169 123.426C276.98 120.639 281.049 112.58 283.117 103.824C283.241 103.307 283.354 102.79 283.455 102.284C283.522 101.958 283.59 101.632 283.646 101.317L283.736 100.845C283.747 100.767 283.758 100.71 283.769 100.677C283.769 100.654 283.769 100.643 283.769 100.643C284.995 93.9102 285.174 87.11 285.084 82.2544C284.995 77.2975 282.286 72.7678 277.97 70.3175C266.28 63.6859 253.95 66.1587 245.823 69.2834C240.203 71.4639 236.595 77.0053 236.887 83.0299Z" fill="#FFA681"/>
<path d="M238.618 100.002C238.618 100.002 238.618 100.002 238.618 100.013C238.618 100.025 238.618 100.047 238.63 100.058C238.63 100.058 238.63 100.058 238.63 100.07C238.753 100.508 239.405 102.902 240.046 105.589C243.227 115.581 250.611 130.047 269.157 123.426C276.969 120.639 281.038 112.58 283.106 103.824C283.23 103.307 283.342 102.79 283.443 102.284C283.511 101.958 283.578 101.632 283.634 101.317L283.724 100.845C283.736 100.767 283.747 100.71 283.758 100.677C283.758 100.654 283.758 100.643 283.758 100.643L281.027 100.092C280.51 102.677 279.352 105.105 277.936 107.275C275.632 101.744 263.92 105.42 263.92 105.42L263.863 105.442C263.155 105.667 262.413 105.78 261.683 105.78C260.93 105.78 260.177 105.656 259.435 105.42C259.435 105.42 247.869 101.587 245.463 106.859C243.069 103.149 241.44 99.7775 241.44 99.7775L238.618 100.002ZM261.672 107.938C274.912 106.151 272.833 113.277 272.833 113.277C271.36 114.614 270.023 115.592 269.112 116.098C266.224 117.705 263.38 118.323 261.312 118.222C259.277 118.132 258.727 118.548 253.59 115.772C252.68 115.289 251.769 114.558 250.87 113.704C250.645 112.321 248.397 105.656 261.672 107.938Z" fill="#403657"/>
<path d="M249.678 92.7412C249.678 94.1799 250.42 95.3377 251.331 95.3377C252.241 95.3377 252.983 94.1799 252.983 92.7412C252.983 91.3025 252.241 90.1448 251.331 90.1448C250.42 90.1448 249.678 91.3137 249.678 92.7412Z" fill="#403657"/>
<path d="M270.326 92.7412C270.326 94.1799 271.068 95.3377 271.979 95.3377C272.889 95.3377 273.631 94.1799 273.631 92.7412C273.631 91.3025 272.889 90.1448 271.979 90.1448C271.057 90.1448 270.326 91.3137 270.326 92.7412Z" fill="#403657"/>
<path d="M245.452 83.9853C245.452 83.9853 252.275 81.2877 257.535 83.5582L257.007 86.4806C257.007 86.4806 249.296 85.8287 245.407 87.4023C245.059 86.2783 245.003 85.143 245.452 83.9853Z" fill="#403657"/>
<path d="M277.891 83.9965C277.891 83.9965 271.012 81.2765 265.729 83.5694L266.257 86.5143C266.257 86.5143 274.024 85.8624 277.936 87.4472C278.295 86.312 278.34 85.1655 277.891 83.9965Z" fill="#403657"/>
<path d="M261.042 104.352C259.963 104.352 258.895 103.936 258.727 103.869C258.401 103.734 258.243 103.363 258.378 103.037C258.513 102.711 258.884 102.554 259.21 102.689C259.783 102.925 261.166 103.284 261.773 102.936C261.885 102.868 262.042 102.734 262.087 102.34C262.323 100.115 261.705 92.6401 261.705 92.5614C261.671 92.213 261.941 91.8983 262.29 91.8758C262.638 91.8421 262.953 92.1118 262.975 92.4603C262.998 92.775 263.605 100.126 263.357 102.475C263.268 103.363 262.807 103.813 262.425 104.037C262.02 104.273 261.525 104.352 261.042 104.352Z" fill="#F97853"/>
<path d="M269.18 109.219C268.697 111.658 267.089 116.143 261.66 116.143C256.22 116.143 254.691 112.04 254.174 109.219H269.18Z" fill="white"/>
<path d="M236.876 83.0299C237.123 88.2565 237.618 94.7869 238.618 100.002L241.473 99.8C241.473 99.8 240.776 95.3939 240.462 92.5164C240.147 89.639 239.596 84.2775 242.046 83.6031C244.497 82.94 243.058 76.8142 246.464 74.1615C249.869 71.4976 257.479 70.767 262.492 73.858C267.505 76.9378 273.17 73.622 275.474 74.1615C277.79 74.6898 280.937 77.882 280.083 80.8606C279.228 83.8392 281.78 85.6488 282.398 88.7286C283.016 91.8083 281.038 100.115 281.038 100.115L283.769 100.665C284.994 93.9327 285.186 87.1325 285.096 82.2768C285.006 77.32 282.297 72.779 277.981 70.3399C266.291 63.7083 253.961 66.1811 245.834 69.3058C240.203 71.4752 236.595 77.0052 236.876 83.0299Z" fill="#403657"/>
<path d="M354.357 226.823C352.626 242.649 342.285 278.01 335.136 284.934C325.818 293.949 295.167 312.933 279.195 322.667C276.317 324.42 289.85 336.121 289.85 336.121C289.85 336.121 332.248 317.991 348.444 303.694C353.03 299.647 362.326 286.89 372.824 262.6C376.005 255.238 383.727 240.379 383.322 230.69C382.85 219.551 365.147 221.383 354.357 226.823Z" fill="#1F93CC"/>
<path d="M321.277 317.755C321.277 317.755 309.745 322.138 305.654 326.949C301.562 331.771 296.167 335.851 297.482 337.751C298.797 339.65 304.777 334.098 304.777 334.098C304.777 334.098 306.418 340.19 312.218 340.853C318.018 341.516 328.999 330.153 328.999 330.153L321.277 317.755Z" fill="#FFA681"/>
<path d="M435.105 271.019C435.105 272.019 435.094 273.211 435.082 274.548C435.06 275.886 435.037 277.381 434.992 279.011C434.959 280.123 434.925 281.315 434.88 282.551C434.846 283.596 434.801 284.675 434.756 285.799C434.711 286.946 434.655 288.126 434.599 289.351C433.801 305.93 431.856 328.815 427.585 347.17H337.868C340.857 333.839 345.443 312.798 349.074 285.507C349.231 284.361 349.377 283.203 349.523 282.034C349.67 280.865 349.816 279.685 349.962 278.493C350.04 277.864 350.119 277.223 350.198 276.583C350.254 276.054 350.321 275.526 350.378 275.009C350.546 273.537 350.692 272.087 350.827 270.67C350.94 269.49 351.041 268.321 351.142 267.175C352.682 248.831 352.142 235.073 354.345 226.834C356.919 217.247 386.941 206.254 386.941 206.254L405.746 207.243C405.746 207.243 423.685 213.099 433.273 221.518C442.86 229.937 434.846 255.058 435.082 269.322C435.105 269.805 435.105 270.378 435.105 271.019Z" fill="#1F93CC"/>
<path d="M435.082 274.548C426.922 275.537 418.413 275.931 410.062 275.931C382.715 275.931 357.043 271.749 350.827 270.659C350.94 269.479 351.041 268.31 351.142 267.164C358.369 268.445 400.16 275.358 435.094 271.019C435.105 272.019 435.105 273.211 435.082 274.548Z" fill="#E0D5F8"/>
<path d="M434.992 279.011C434.959 280.123 434.925 281.315 434.88 282.551C426.776 283.518 418.346 283.911 410.062 283.911C381.175 283.911 354.154 279.247 349.962 278.494C350.04 277.864 350.119 277.223 350.198 276.583C350.254 276.054 350.322 275.526 350.378 275.009C354.537 275.762 398.485 283.518 434.992 279.011Z" fill="#E0D5F8"/>
<path d="M434.768 285.811C434.723 286.957 434.666 288.137 434.61 289.363C426.18 290.43 417.357 290.846 408.713 290.846C380.737 290.846 354.525 286.474 349.085 285.507C349.242 284.361 349.389 283.203 349.535 282.034C356.009 283.181 399.182 290.464 434.768 285.811Z" fill="#E0D5F8"/>
<path d="M392.382 224.294C401.733 224.294 410.365 214.358 410.736 213.92C410.972 213.639 410.939 213.223 410.669 212.987C410.388 212.751 409.972 212.785 409.736 213.054C409.646 213.155 400.609 223.575 391.572 222.945C391.213 222.923 390.898 223.193 390.864 223.564C390.842 223.923 391.111 224.238 391.471 224.272C391.786 224.283 392.089 224.294 392.382 224.294Z" fill="#1F93CC"/>
<path d="M400.497 336.099C400.823 336.099 401.115 335.851 401.149 335.514C401.194 335.154 400.935 334.828 400.564 334.783C376.409 332.007 366.395 290.183 366.293 289.767C366.215 289.408 365.855 289.194 365.507 289.273C365.147 289.351 364.933 289.711 365.012 290.06C365.417 291.824 375.342 333.21 400.418 336.099C400.441 336.099 400.463 336.099 400.497 336.099Z" fill="#1F93CC"/>
<path d="M390.875 323.442C391.1 323.442 391.314 323.33 391.437 323.128C391.629 322.813 391.527 322.408 391.224 322.217C378.377 314.293 376.466 302.615 376.443 302.502C376.387 302.143 376.05 301.895 375.69 301.951C375.331 302.008 375.083 302.345 375.139 302.705C375.218 303.21 377.14 315.091 390.527 323.352C390.628 323.409 390.752 323.442 390.875 323.442Z" fill="#1F93CC"/>
<path d="M398.373 189.248C412.992 189.248 424.843 177.397 424.843 162.778C424.843 148.159 412.992 136.307 398.373 136.307C383.753 136.307 371.902 148.159 371.902 162.778C371.902 177.397 383.753 189.248 398.373 189.248Z" fill="#403657"/>
<path d="M372.341 158.034C372.341 158.034 364.844 155.966 365.833 148.694C366.676 142.501 373.948 146.513 373.307 141.68C372.667 136.836 371.25 132.441 377.511 131.227C382.985 130.17 383.075 133.925 390.268 128.473C398.766 122.044 405.285 136.937 412.872 137.387C424.056 138.05 425.461 144.367 426.562 149.425C427.664 154.483 423.359 158.034 423.359 158.034H372.341Z" fill="#403657"/>
<path d="M376.353 170.185C376.353 170.185 372.161 164.599 369.047 169.218C365.934 173.838 370.34 187.494 377.972 184.156L376.353 170.185Z" fill="#F97853"/>
<path d="M376.297 179.941C376.016 179.941 375.758 179.75 375.679 179.469C374.499 175.254 370.126 173.546 370.081 173.534C369.744 173.411 369.587 173.04 369.711 172.703C369.834 172.365 370.205 172.197 370.542 172.332C370.745 172.41 375.555 174.276 376.927 179.132C377.028 179.48 376.825 179.829 376.477 179.93C376.421 179.93 376.353 179.941 376.297 179.941Z" fill="#EA5143"/>
<path d="M371.891 177.817C371.767 177.817 371.655 177.783 371.543 177.716C371.239 177.525 371.16 177.12 371.352 176.828C371.385 176.783 372.161 175.602 373.768 174.872C374.094 174.726 374.476 174.872 374.622 175.198C374.768 175.524 374.622 175.906 374.296 176.052C373.049 176.614 372.442 177.513 372.431 177.525C372.307 177.716 372.105 177.817 371.891 177.817Z" fill="#EA5143"/>
<path d="M406.758 195.733V209.311C406.758 209.311 401.171 215.291 395.697 215.763C390.224 216.235 386.896 209.738 386.896 209.738V196.689L406.758 195.733Z" fill="#FFA681"/>
<path d="M406.758 195.733V201.758C403.082 205.838 396.563 206.85 386.908 205.433V196.689L406.758 195.733Z" fill="#F97853"/>
<path d="M421.077 160.867C420.83 166.139 420.324 172.736 419.313 178.019C419.065 179.334 418.773 180.571 418.458 181.683C415.603 191.687 408.455 208.839 388.448 201.702C379.613 198.543 375.51 188.708 373.689 178.694C372.453 171.893 372.262 165.026 372.352 160.114C372.453 155.101 375.184 150.526 379.546 148.053C391.359 141.354 403.813 143.85 412.018 147.008C417.717 149.2 421.358 154.786 421.077 160.867Z" fill="#FFA681"/>
<path d="M397.069 170.455V171.522C397.069 173.681 397.912 175.704 399.44 177.221C400.946 178.716 402.936 179.537 405.06 179.537H405.319C407.162 179.503 408.826 178.761 410.287 177.334C411.759 175.906 412.591 173.849 412.591 171.702V170.432C412.591 170.084 412.524 169.747 412.4 169.432C412.265 169.05 412.04 168.724 411.759 168.443C411.253 167.937 410.545 167.622 409.77 167.622H399.867C398.743 167.622 397.777 168.274 397.327 169.23C397.159 169.578 397.057 169.96 397.057 170.365C397.069 170.41 397.069 170.432 397.069 170.455ZM398.238 170.455C398.238 169.544 398.979 168.802 399.89 168.802H409.792C410.703 168.802 411.445 169.533 411.445 170.455V171.725C411.445 173.557 410.736 175.299 409.489 176.513C408.241 177.716 406.836 178.345 405.308 178.379H405.071C403.262 178.379 401.565 177.682 400.272 176.401C398.968 175.108 398.249 173.377 398.249 171.534V170.455H398.238Z" fill="#403657"/>
<path d="M377.241 170.455V171.522C377.241 173.681 378.084 175.704 379.613 177.221C381.119 178.716 383.109 179.537 385.233 179.537H385.503C387.335 179.503 389.01 178.761 390.471 177.334C391.943 175.906 392.786 173.849 392.786 171.702V170.432C392.786 170.41 392.786 170.398 392.786 170.376C392.786 169.994 392.696 169.634 392.55 169.297C392.112 168.308 391.123 167.611 389.976 167.611H380.074C379.208 167.611 378.422 168.004 377.904 168.623C377.657 168.926 377.466 169.286 377.365 169.668C377.275 169.949 377.241 170.196 377.241 170.455ZM378.41 170.455C378.41 169.544 379.152 168.802 380.063 168.802H389.965C390.875 168.802 391.617 169.533 391.617 170.455V171.725C391.617 173.557 390.898 175.299 389.662 176.513C388.425 177.716 387.009 178.345 385.48 178.379H385.244C383.435 178.379 381.737 177.682 380.456 176.401C379.152 175.108 378.433 173.377 378.433 171.534V170.455H378.41Z" fill="#403657"/>
<path d="M419.661 167.173C416.3 167.026 413.895 167.993 412.951 168.465C412.681 168.589 411.973 169.05 411.95 169.072L412.501 170.061C412.512 170.061 413.288 169.589 413.591 169.454C414.524 169.016 416.593 168.15 419.672 168.33V167.173H419.661Z" fill="#403657"/>
<path d="M397.855 170.5L398.238 169.398C398.17 169.376 396.529 168.814 394.731 168.814C392.809 168.814 391.584 169.398 391.527 169.432L392.033 170.477C392.044 170.477 393.09 169.983 394.731 169.983C396.327 169.983 397.844 170.5 397.855 170.5Z" fill="#403657"/>
<path d="M373.15 167.454V168.623C375.567 168.825 377.803 169.904 377.837 169.915L378.354 168.87C378.219 168.802 375.825 167.645 373.15 167.454Z" fill="#403657"/>
<path d="M386.413 171.961C386.413 173.411 385.671 174.58 384.75 174.58C383.828 174.58 383.086 173.4 383.086 171.961C383.086 170.511 383.828 169.342 384.75 169.342C385.66 169.331 386.413 170.511 386.413 171.961Z" fill="#403657"/>
<path d="M405.948 171.961C405.948 173.411 405.206 174.58 404.285 174.58C403.363 174.58 402.621 173.4 402.621 171.961C402.621 170.511 403.363 169.342 404.285 169.342C405.195 169.331 405.948 170.511 405.948 171.961Z" fill="#403657"/>
<path d="M379.321 163.902C379.321 163.902 386.267 161.159 391.617 163.463L391.168 165.947C391.168 165.947 385.379 164.655 379.703 166.768C379.343 165.621 378.86 165.071 379.321 163.902Z" fill="#403657"/>
<path d="M411.096 163.902C411.096 163.902 404.15 161.159 398.8 163.463L399.249 165.947C399.249 165.947 405.038 164.655 410.714 166.768C411.063 165.621 411.546 165.071 411.096 163.902Z" fill="#403657"/>
<path d="M395.529 182.953C396.619 182.953 397.698 182.526 397.867 182.459C398.193 182.324 398.35 181.953 398.215 181.616C398.08 181.29 397.709 181.133 397.372 181.267C396.788 181.504 395.394 181.874 394.787 181.515C394.675 181.447 394.506 181.301 394.472 180.919C394.236 178.671 394.854 171.118 394.866 171.039C394.899 170.679 394.63 170.376 394.281 170.342C393.921 170.308 393.618 170.578 393.584 170.927C393.562 171.241 392.955 178.671 393.202 181.043C393.292 181.931 393.764 182.391 394.135 182.616C394.54 182.864 395.045 182.953 395.529 182.953Z" fill="#F97853"/>
<path d="M387.537 186.224C388.066 188.877 389.819 193.755 395.72 193.755C401.632 193.755 403.296 189.293 403.869 186.224H387.537Z" fill="white"/>
<path d="M395.641 197.127C397.316 197.127 398.721 196.284 398.788 196.25C399.092 196.071 399.193 195.666 399.002 195.362C398.822 195.059 398.417 194.958 398.114 195.149C398.103 195.16 396.934 195.846 395.641 195.846C394.45 195.846 393.303 195.16 393.292 195.149C392.989 194.958 392.595 195.059 392.404 195.362C392.213 195.666 392.314 196.059 392.618 196.25C392.674 196.273 394.068 197.127 395.641 197.127Z" fill="#F97853"/>
<path d="M375.69 174.49C375.207 171.826 374.724 168.398 375.072 166.633C375.701 163.52 378.275 161.687 377.421 158.686C376.567 155.674 379.737 152.448 382.074 151.909C384.412 151.369 389.875 152.527 395.248 149.975C400.373 147.536 409.298 149.278 410.748 152.572C412.501 156.562 410.118 156.933 414.918 161.249C416.829 162.969 414.558 167.431 414.232 170.331C414.086 171.669 414.064 172.32 414.12 173.748L414.142 174.479H419.886C420.515 169.983 420.886 165.014 421.077 160.856C421.37 154.775 417.717 149.189 412.029 146.997C403.824 143.838 391.37 141.343 379.557 148.042C375.196 150.515 372.464 155.09 372.374 160.103C372.296 163.992 372.408 169.128 373.071 174.479H375.69V174.49Z" fill="#403657"/>
<path d="M417.334 176.974C417.312 175.468 417.424 173.973 417.683 172.489C418.042 170.466 418.627 168.634 420.695 167.791C422.359 167.116 424.135 167.094 425.405 168.971C428.518 173.591 425.045 187.978 417.413 184.639L417.334 176.974Z" fill="#FFA681"/>
<path d="M418.908 180.447C419.189 180.391 419.402 180.155 419.425 179.863C419.762 175.501 423.707 172.972 423.752 172.939C424.056 172.748 424.146 172.354 423.955 172.051C423.764 171.747 423.37 171.657 423.067 171.848C422.887 171.961 418.526 174.737 418.144 179.761C418.121 180.121 418.38 180.425 418.739 180.458C418.784 180.47 418.852 180.458 418.908 180.447Z" fill="#F97853"/>
<path d="M422.808 177.502C422.921 177.48 423.033 177.423 423.134 177.333C423.393 177.086 423.393 176.682 423.145 176.423C423.1 176.378 422.111 175.378 420.392 174.984C420.043 174.906 419.695 175.119 419.616 175.468C419.537 175.816 419.751 176.165 420.099 176.243C421.437 176.547 422.212 177.311 422.212 177.322C422.381 177.491 422.606 177.547 422.808 177.502Z" fill="#F97853"/>
<path d="M429.474 218.562C420.043 232.848 383.974 282.248 375.836 287.98C365.237 295.455 336.35 306.077 319.771 317.148C314.14 320.913 327.448 331.558 327.448 331.558C327.448 331.558 367.878 320.194 386.076 308.572C391.224 305.29 412.647 283.821 426.304 264.792C430.98 258.273 438.589 249.213 439.691 239.581C440.961 228.498 437.476 222.563 429.474 218.562Z" fill="#1F93CC"/>
<path d="M357.976 347.17H245.598C244.16 347.17 243.002 346.001 243.002 344.574V335.615C243.002 334.177 244.171 333.019 245.598 333.019H357.976C359.415 333.019 360.572 334.188 360.572 335.615V344.574C360.572 346.001 359.403 347.17 357.976 347.17Z" fill="#1A0B42"/>
<path d="M243.013 347.17L220.915 264.399C219.679 259.745 223.175 255.193 227.985 255.193H276.621C279.903 255.193 282.78 257.374 283.668 260.532L308.003 347.17H243.013Z" fill="#403657"/>
<path d="M283.668 260.532L307.801 346.462H313.353L289.221 260.532C288.322 257.374 285.455 255.182 282.173 255.182H276.621C279.903 255.182 282.78 257.374 283.668 260.532Z" fill="#1A0B42"/>
<path d="M271.169 304.885C272.428 310.348 269.034 314.765 263.571 314.765C258.108 314.765 252.657 310.336 251.398 304.885C250.139 299.422 253.534 295.005 258.996 295.005C264.459 295.005 269.91 299.422 271.169 304.885Z" fill="#43AADD"/>
<path d="M421.875 42.3186C417.784 42.3186 414.457 38.9916 414.457 34.9002C414.457 30.8088 417.784 27.4818 421.875 27.4818C425.967 27.4818 429.294 30.8088 429.294 34.9002C429.294 38.9916 425.967 42.3186 421.875 42.3186ZM421.875 29.7973C419.065 29.7973 416.783 32.079 416.783 34.889C416.783 37.699 419.065 39.9807 421.875 39.9807C424.685 39.9807 426.967 37.699 426.967 34.889C426.967 32.079 424.685 29.7973 421.875 29.7973Z" fill="#1FC2F5"/>
<path d="M448.593 68.3505C444.501 68.3505 441.174 65.0234 441.174 60.9321C441.174 56.8407 444.501 53.5137 448.593 53.5137C452.684 53.5137 456.011 56.8407 456.011 60.9321C456.011 65.0234 452.684 68.3505 448.593 68.3505ZM448.593 55.8404C445.783 55.8404 443.501 58.1221 443.501 60.9321C443.501 63.7421 445.783 66.0238 448.593 66.0238C451.403 66.0238 453.684 63.7421 453.684 60.9321C453.684 58.1221 451.403 55.8404 448.593 55.8404Z" fill="#1FC2F5"/>
<path d="M457.765 92.4714C457.124 92.4714 456.596 91.9544 456.596 91.3025V86.1658C456.596 85.5251 457.113 84.9968 457.765 84.9968C458.405 84.9968 458.933 85.5139 458.933 86.1658V91.3025C458.922 91.9544 458.405 92.4714 457.765 92.4714Z" fill="#1FC2F5"/>
<path d="M457.765 101.452C457.124 101.452 456.596 100.935 456.596 100.283V95.1465C456.596 94.5058 457.113 93.9775 457.765 93.9775C458.405 93.9775 458.933 94.4946 458.933 95.1465V100.283C458.922 100.935 458.405 101.452 457.765 101.452Z" fill="#1FC2F5"/>
<path d="M464.969 94.3934H460.361C459.72 94.3934 459.192 93.8764 459.192 93.2245C459.192 92.5838 459.709 92.0555 460.361 92.0555H464.969C465.61 92.0555 466.138 92.5726 466.138 93.2245C466.127 93.8764 465.61 94.3934 464.969 94.3934Z" fill="#1FC2F5"/>
<path d="M455.168 94.3934H450.56C449.919 94.3934 449.391 93.8764 449.391 93.2245C449.391 92.5838 449.908 92.0555 450.56 92.0555H455.168C455.809 92.0555 456.337 92.5726 456.337 93.2245C456.326 93.8764 455.809 94.3934 455.168 94.3934Z" fill="#1FC2F5"/>
<path d="M416.772 63.6971C416.132 63.6971 415.603 63.1801 415.603 62.5282V57.3915C415.603 56.7508 416.12 56.2225 416.772 56.2225C417.413 56.2225 417.941 56.7396 417.941 57.3915V62.5282C417.941 63.1801 417.424 63.6971 416.772 63.6971Z" fill="#43AADD"/>
<path d="M416.772 72.6891C416.132 72.6891 415.603 72.172 415.603 71.5201V66.3834C415.603 65.7427 416.12 65.2145 416.772 65.2145C417.413 65.2145 417.941 65.7315 417.941 66.3834V71.5201C417.941 72.1608 417.424 72.6891 416.772 72.6891Z" fill="#43AADD"/>
<path d="M423.988 65.6304H419.38C418.739 65.6304 418.211 65.1134 418.211 64.4615C418.211 63.8208 418.728 63.2925 419.38 63.2925H423.988C424.629 63.2925 425.157 63.8095 425.157 64.4615C425.146 65.1021 424.629 65.6304 423.988 65.6304Z" fill="#43AADD"/>
<path d="M414.187 65.6304H409.579C408.938 65.6304 408.41 65.1134 408.41 64.4615C408.41 63.8208 408.927 63.2925 409.579 63.2925H414.187C414.828 63.2925 415.356 63.8095 415.356 64.4615C415.345 65.1021 414.828 65.6304 414.187 65.6304Z" fill="#43AADD"/>
<path d="M77.4254 8.23896C77.4254 4.14759 80.7525 0.820557 84.8438 0.820557C88.9352 0.820557 92.2622 4.14759 92.2622 8.23896C92.2622 12.3303 88.9352 15.6574 84.8438 15.6574C80.7525 15.6574 77.4254 12.3303 77.4254 8.23896ZM79.7521 8.23896C79.7521 11.049 82.0338 13.3307 84.8438 13.3307C87.6538 13.3307 89.9355 11.049 89.9355 8.23896C89.9355 5.42896 87.6538 3.14724 84.8438 3.14724C82.0338 3.14724 79.7521 5.42896 79.7521 8.23896Z" fill="#1FC2F5"/>
<path d="M47.6169 36.53C47.6169 32.4386 50.944 29.1116 55.0353 29.1116C59.1267 29.1116 62.4537 32.4386 62.4537 36.53C62.4537 40.6213 59.1267 43.9484 55.0353 43.9484C50.944 43.9484 47.6169 40.6213 47.6169 36.53ZM49.9436 36.53C49.9436 39.34 52.2253 41.6217 55.0353 41.6217C57.8453 41.6217 60.1271 39.34 60.1271 36.53C60.1271 33.72 57.8453 31.4382 55.0353 31.4382C52.2253 31.4382 49.9436 33.72 49.9436 36.53Z" fill="#D8EFFA"/>
<path d="M32.1845 46.9382C32.8251 46.9382 33.3534 46.4212 33.3534 45.7693V40.6326C33.3534 39.9919 32.8364 39.4636 32.1845 39.4636C31.5438 39.4636 31.0155 39.9807 31.0155 40.6326V45.7693C31.0155 46.4212 31.5438 46.9382 32.1845 46.9382Z" fill="#1FC2F5"/>
<path d="M32.1845 55.9302C32.8251 55.9302 33.3534 55.4131 33.3534 54.7612V49.6245C33.3534 48.9839 32.8364 48.4556 32.1845 48.4556C31.5438 48.4556 31.0155 48.9726 31.0155 49.6245V54.7612C31.0155 55.4019 31.5438 55.9302 32.1845 55.9302Z" fill="#1FC2F5"/>
<path d="M24.9796 48.8715H29.588C30.2287 48.8715 30.757 48.3544 30.757 47.7025C30.757 47.0618 30.24 46.5336 29.588 46.5336H24.9796C24.339 46.5336 23.8107 47.0506 23.8107 47.7025C23.8107 48.3432 24.339 48.8715 24.9796 48.8715Z" fill="#1FC2F5"/>
<path d="M34.7809 48.8715H39.3893C40.03 48.8715 40.5583 48.3544 40.5583 47.7025C40.5583 47.0618 40.0412 46.5336 39.3893 46.5336H34.7809C34.1402 46.5336 33.6119 47.0506 33.6119 47.7025C33.6119 48.3432 34.1402 48.8715 34.7809 48.8715Z" fill="#1FC2F5"/>
<path d="M59.0143 7.4746C59.655 7.4746 60.1833 6.95756 60.1833 6.30564V1.16896C60.1833 0.528281 59.6662 0 59.0143 0C58.3736 0 57.8453 0.517041 57.8453 1.16896V6.30564C57.8453 6.95756 58.3624 7.4746 59.0143 7.4746Z" fill="#43AADD"/>
<path d="M59.0143 16.4553C59.655 16.4553 60.1833 15.9383 60.1833 15.2864V10.1497C60.1833 9.50899 59.6662 8.98071 59.0143 8.98071C58.3736 8.98071 57.8453 9.49775 57.8453 10.1497V15.2864C57.8453 15.9383 58.3624 16.4553 59.0143 16.4553Z" fill="#43AADD"/>
<path d="M51.7982 9.39664H56.4066C57.0473 9.39664 57.5756 8.8796 57.5756 8.22768C57.5756 7.57576 57.0586 7.05872 56.4066 7.05872H51.7982C51.1576 7.05872 50.6293 7.57576 50.6293 8.22768C50.6293 8.8796 51.1576 9.39664 51.7982 9.39664Z" fill="#43AADD"/>
<path d="M61.5995 9.39664H66.2079C66.8486 9.39664 67.3769 8.8796 67.3769 8.22768C67.3769 7.57576 66.8598 7.05872 66.2079 7.05872H61.5995C60.9588 7.05872 60.4305 7.57576 60.4305 8.22768C60.4305 8.8796 60.9588 9.39664 61.5995 9.39664Z" fill="#43AADD"/>
<path d="M363.742 16.1182V38.7218C363.742 41.7116 361.314 44.1282 358.336 44.1282H317.298L304.912 48.568C303.642 49.0289 302.417 47.77 302.911 46.5111L307.598 34.4056V16.1182C307.598 13.1283 310.026 10.7117 313.016 10.7117H358.347C361.314 10.7005 363.742 13.1283 363.742 16.1182Z" fill="#43AADD"/>
<g opacity="0.5">
<path d="M355.087 22.5138H317.444C316.624 22.5138 315.949 21.8506 315.949 21.0188C315.949 20.1983 316.613 19.5239 317.444 19.5239H355.087C355.908 19.5239 356.582 20.1871 356.582 21.0188C356.582 21.8394 355.919 22.5138 355.087 22.5138Z" fill="#E0D5F8"/>
<path d="M355.087 28.5272H317.444C316.624 28.5272 315.949 27.864 315.949 27.0323C315.949 26.2118 316.613 25.5374 317.444 25.5374H355.087C355.908 25.5374 356.582 26.2005 356.582 27.0323C356.582 27.8528 355.919 28.5272 355.087 28.5272Z" fill="#E0D5F8"/>
<path d="M355.087 34.5406H317.444C316.624 34.5406 315.949 33.8775 315.949 33.0457C315.949 32.2252 316.613 31.5508 317.444 31.5508H355.087C355.908 31.5508 356.582 32.2139 356.582 33.0457C356.582 33.8662 355.919 34.5406 355.087 34.5406Z" fill="#E0D5F8"/>
</g>
<path d="M484.786 355.622V356.432C484.786 361.085 481.009 364.873 476.344 364.873H38.6251C33.9605 364.873 30.1838 361.096 30.1838 356.432V355.622C30.1838 350.969 33.9605 347.181 38.6251 347.181H476.344C481.009 347.181 484.786 350.969 484.786 355.622Z" fill="#43AADD"/>
<path d="M484.786 355.622V356.027H30.1838V355.622C30.1838 350.969 33.9605 347.181 38.6251 347.181H476.344C481.009 347.181 484.786 350.969 484.786 355.622Z" fill="#43AADD"/>
</svg>
